<?xml version="1.0" encoding="UTF-8" standalone="no"?>
<svg
   xmlns:dc="http://purl.org/dc/elements/1.1/"
   xmlns:cc="http://creativecommons.org/ns#"
   xmlns:rdf="http://www.w3.org/1999/02/22-rdf-syntax-ns#"
   xmlns:svg="http://www.w3.org/2000/svg"
   xmlns="http://www.w3.org/2000/svg"
   viewBox="0 0 482.66666 482.66666"
   height="482.66666"
   width="482.66666"
   xml:space="preserve"
   id="svg2"
   version="1.1"><metadata
     id="metadata8"><rdf:RDF><cc:Work
         rdf:about=""><dc:format>image/svg+xml</dc:format><dc:type
           rdf:resource="http://purl.org/dc/dcmitype/StillImage" /></cc:Work></rdf:RDF></metadata><defs
     id="defs6" /><g
     transform="matrix(1.3333333,0,0,-1.3333333,0,482.66667)"
     id="g10"><g
       transform="scale(0.1)"
       id="g12"><path
         id="path14"
         style="fill:#f4f4f4;fill-opacity:1;fill-rule:evenodd;stroke:none"
         d="m 1851.96,3220.17 c 0,-1.14 -0.09,-2.07 -0.27,-2.88 -0.15,-0.78 -0.39,-1.44 -0.69,-1.99 -0.3,-0.5 -0.66,-0.9 -1.05,-1.14 -0.42,-0.24 -0.84,-0.32 -1.32,-0.32 h -28.88 v -32.07 c 0,-0.45 -0.12,-0.87 -0.36,-1.17 -0.24,-0.33 -0.6,-0.6 -1.08,-0.84 -0.51,-0.24 -1.17,-0.42 -1.98,-0.57 -0.85,-0.15 -1.87,-0.24 -3.1,-0.24 -1.17,0 -2.19,0.09 -3.03,0.24 -0.84,0.15 -1.54,0.33 -2.02,0.57 -0.51,0.24 -0.87,0.51 -1.11,0.84 -0.24,0.3 -0.36,0.72 -0.36,1.17 v 32.07 h -28.87 c -0.51,0 -0.96,0.08 -1.36,0.32 -0.39,0.24 -0.71,0.64 -1.02,1.14 -0.26,0.55 -0.51,1.21 -0.69,1.99 -0.18,0.81 -0.27,1.74 -0.27,2.88 0,1.06 0.09,1.96 0.27,2.77 0.18,0.78 0.43,1.44 0.69,1.98 0.31,0.51 0.63,0.9 1.02,1.14 0.4,0.24 0.82,0.36 1.27,0.36 h 28.96 v 32.03 c 0,0.48 0.12,0.9 0.36,1.26 0.24,0.4 0.6,0.73 1.11,0.99 0.48,0.25 1.18,0.46 2.02,0.6 0.84,0.16 1.86,0.22 3.03,0.22 1.23,0 2.25,-0.06 3.1,-0.22 0.81,-0.14 1.47,-0.35 1.98,-0.6 0.48,-0.26 0.84,-0.59 1.08,-0.99 0.24,-0.36 0.36,-0.78 0.36,-1.26 v -32.03 h 28.96 c 0.46,0 0.91,-0.12 1.27,-0.36 0.39,-0.24 0.75,-0.63 1.05,-1.14 0.33,-0.54 0.57,-1.2 0.72,-1.98 0.15,-0.81 0.21,-1.71 0.21,-2.77" /><path
         id="path16"
         style="fill:#f4f4f4;fill-opacity:1;fill-rule:evenodd;stroke:none"
         d="m 1497.96,2463.93 c 0.23,-0.38 0.34,-0.8 0.31,-1.17 -0.04,-0.4 -0.23,-0.84 -0.56,-1.3 -0.33,-0.48 -0.87,-1 -1.63,-1.59 -0.74,-0.58 -1.72,-1.23 -2.94,-1.94 -1.26,-0.74 -2.33,-1.3 -3.19,-1.67 -0.86,-0.37 -1.6,-0.59 -2.22,-0.67 -0.58,-0.07 -1.05,-0.04 -1.43,0.12 -0.36,0.14 -0.67,0.44 -0.9,0.83 l -24.39,41.45 c -1.69,2.87 -3.5,5.35 -5.38,7.42 -1.92,2.07 -3.92,3.64 -6.05,4.72 -2.12,1.05 -4.31,1.53 -6.55,1.44 -2.24,-0.1 -4.56,-0.84 -6.86,-2.19 -2.9,-1.71 -5.13,-4.52 -6.72,-8.45 -1.59,-3.93 -2.88,-9.07 -3.82,-15.4 l 28.04,-47.65 c 0.23,-0.4 0.34,-0.82 0.28,-1.2 -0.04,-0.4 -0.23,-0.84 -0.6,-1.33 -0.35,-0.48 -0.9,-1.02 -1.64,-1.59 -0.77,-0.59 -1.75,-1.24 -2.96,-1.95 -1.16,-0.68 -2.18,-1.21 -3.07,-1.6 -0.91,-0.4 -1.65,-0.62 -2.26,-0.7 -0.59,-0.07 -1.06,-0.03 -1.41,0.14 -0.31,0.17 -0.62,0.47 -0.85,0.86 l -24.39,41.45 c -1.69,2.86 -3.53,5.34 -5.45,7.37 -1.97,2.05 -4,3.6 -6.13,4.68 -2.12,1.05 -4.29,1.55 -6.51,1.46 -2.23,-0.09 -4.5,-0.8 -6.82,-2.17 -2.9,-1.71 -5.15,-4.52 -6.75,-8.46 -1.62,-3.95 -2.91,-9.09 -3.8,-15.39 l 28.05,-47.66 c 0.22,-0.38 0.33,-0.81 0.28,-1.18 -0.04,-0.41 -0.24,-0.84 -0.56,-1.31 -0.34,-0.48 -0.87,-1 -1.61,-1.57 -0.77,-0.59 -1.77,-1.26 -3.04,-2 -1.19,-0.7 -2.23,-1.24 -3.12,-1.62 -0.86,-0.38 -1.6,-0.6 -2.18,-0.66 -0.61,-0.09 -1.09,-0.05 -1.41,0.14 -0.34,0.15 -0.65,0.45 -0.88,0.84 l -40.12,68.18 c -0.25,0.42 -0.36,0.8 -0.38,1.18 0,0.35 0.16,0.79 0.46,1.28 0.33,0.5 0.83,0.97 1.5,1.47 0.66,0.49 1.56,1.09 2.72,1.77 1.12,0.66 2.07,1.15 2.84,1.5 0.77,0.35 1.42,0.56 1.97,0.57 0.53,0 0.99,-0.08 1.32,-0.24 0.32,-0.19 0.62,-0.46 0.87,-0.88 l 5.31,-9.02 c 1.3,6.55 3.17,11.89 5.62,16.01 2.44,4.12 5.5,7.27 9.17,9.43 2.84,1.68 5.57,2.83 8.2,3.51 2.64,0.65 5.14,0.9 7.58,0.73 2.4,-0.18 4.71,-0.74 6.89,-1.65 2.16,-0.96 4.28,-2.18 6.26,-3.73 0.82,3.82 1.73,7.18 2.77,10.09 1.02,2.93 2.2,5.5 3.46,7.67 1.26,2.17 2.65,4 4.18,5.56 1.49,1.54 3.17,2.84 4.97,3.9 4.4,2.59 8.55,3.99 12.44,4.19 3.87,0.22 7.49,-0.43 10.86,-1.9 3.36,-1.5 6.46,-3.75 9.26,-6.73 2.81,-3.01 5.35,-6.43 7.61,-10.28 l 25.36,-43.11" /><path
         id="path18"
         style="fill:#f4f4f4;fill-opacity:1;fill-rule:evenodd;stroke:none"
         d="m 1866.18,2530.73 c 0.01,-0.44 -0.11,-0.86 -0.32,-1.17 -0.23,-0.33 -0.62,-0.6 -1.13,-0.85 -0.53,-0.24 -1.26,-0.42 -2.21,-0.55 -0.93,-0.13 -2.1,-0.2 -3.51,-0.21 -1.47,-0.02 -2.67,0.03 -3.6,0.15 -0.94,0.11 -1.69,0.28 -2.26,0.52 -0.54,0.23 -0.93,0.5 -1.18,0.83 -0.24,0.3 -0.36,0.71 -0.36,1.17 l -0.4,48.09 c -0.03,3.33 -0.35,6.38 -0.95,9.11 -0.62,2.75 -1.57,5.12 -2.88,7.11 -1.3,1.97 -2.96,3.49 -4.95,4.52 -1.99,1.04 -4.37,1.56 -7.04,1.54 -3.35,-0.03 -6.7,-1.35 -10.04,-3.95 -3.34,-2.61 -7.03,-6.42 -11.01,-11.44 l 0.46,-55.29 c 0,-0.45 -0.12,-0.87 -0.35,-1.17 -0.24,-0.33 -0.63,-0.6 -1.2,-0.85 -0.54,-0.24 -1.29,-0.43 -2.21,-0.56 -0.96,-0.13 -2.13,-0.19 -3.54,-0.21 -1.35,-0.01 -2.49,0.04 -3.45,0.16 -1,0.11 -1.75,0.28 -2.32,0.52 -0.54,0.23 -0.93,0.5 -1.14,0.83 -0.19,0.29 -0.31,0.71 -0.32,1.16 l -0.39,48.1 c -0.03,3.32 -0.38,6.38 -1.04,9.1 -0.68,2.76 -1.66,5.12 -2.96,7.12 -1.31,1.97 -2.94,3.49 -4.9,4.52 -1.99,1.04 -4.3,1.56 -7.01,1.54 -3.36,-0.03 -6.7,-1.35 -10.08,-3.96 -3.36,-2.61 -7.05,-6.42 -10.97,-11.43 l 0.46,-55.29 c 0,-0.45 -0.12,-0.87 -0.36,-1.17 -0.23,-0.33 -0.62,-0.61 -1.13,-0.85 -0.54,-0.24 -1.25,-0.43 -2.18,-0.56 -0.96,-0.13 -2.16,-0.2 -3.63,-0.21 -1.38,-0.01 -2.55,0.04 -3.51,0.15 -0.94,0.11 -1.69,0.29 -2.23,0.52 -0.57,0.24 -0.96,0.5 -1.14,0.84 -0.22,0.29 -0.34,0.71 -0.34,1.16 l -0.66,79.11 c 0,0.48 0.09,0.87 0.26,1.2 0.18,0.31 0.54,0.61 1.05,0.88 0.53,0.28 1.19,0.43 2.03,0.53 0.81,0.1 1.89,0.16 3.24,0.17 1.29,0.02 2.37,-0.03 3.21,-0.12 0.84,-0.08 1.51,-0.22 1.99,-0.49 0.45,-0.27 0.81,-0.57 1.02,-0.86 0.19,-0.33 0.31,-0.72 0.31,-1.2 l 0.09,-10.47 c 4.4,5.02 8.69,8.71 12.87,11.05 4.18,2.35 8.4,3.56 12.66,3.59 3.3,0.03 6.25,-0.34 8.86,-1.07 2.62,-0.75 4.91,-1.79 6.93,-3.15 1.99,-1.37 3.71,-3 5.14,-4.88 1.39,-1.91 2.61,-4.03 3.56,-6.36 2.62,2.9 5.08,5.35 7.44,7.35 2.35,2.03 4.65,3.67 6.83,4.92 2.18,1.24 4.3,2.14 6.4,2.72 2.06,0.59 4.16,0.88 6.26,0.89 5.1,0.05 9.4,-0.82 12.86,-2.59 3.47,-1.74 6.28,-4.12 8.46,-7.07 2.16,-2.99 3.72,-6.48 4.65,-10.46 0.93,-4.02 1.41,-8.25 1.45,-12.71 l 0.41,-50.02" /><path
         id="path20"
         style="fill:#f4f4f4;fill-opacity:1;fill-rule:evenodd;stroke:none"
         d="m 2480.79,2166.67 c -3.02,-1.73 -6.22,-2.8 -9.54,-3.18 -3.33,-0.39 -6.62,-0.11 -9.8,0.81 -3.25,0.93 -6.21,2.49 -8.94,4.68 -2.72,2.16 -5.06,4.92 -6.94,8.2 -1.89,3.31 -3.09,6.59 -3.62,9.88 -0.54,3.29 -0.42,6.48 0.33,9.53 0.7,3.06 2.05,5.86 4.02,8.47 1.95,2.64 4.54,4.84 7.72,6.66 3.18,1.82 6.44,2.93 9.82,3.3 3.39,0.34 6.61,0.03 9.74,-0.93 3.14,-0.99 6.03,-2.55 8.77,-4.7 2.72,-2.16 5.01,-4.9 6.89,-8.18 1.85,-3.25 3.06,-6.53 3.58,-9.87 0.48,-3.35 0.4,-6.52 -0.32,-9.55 -0.66,-3.05 -2,-5.88 -3.97,-8.49 -1.97,-2.61 -4.56,-4.81 -7.74,-6.63 z m -7.08,11.54 c 1.66,0.95 3.11,2.11 4.24,3.52 1.1,1.4 1.94,2.89 2.43,4.48 0.46,1.62 0.62,3.27 0.44,4.98 -0.21,1.7 -0.73,3.35 -1.66,4.97 -0.89,1.55 -2.03,2.8 -3.37,3.81 -1.37,0.99 -2.87,1.7 -4.49,2.08 -1.63,0.42 -3.31,0.47 -5.07,0.23 -1.74,-0.28 -3.43,-0.87 -5.05,-1.8 -1.79,-1.02 -3.28,-2.25 -4.46,-3.65 -1.17,-1.43 -1.99,-2.95 -2.45,-4.57 -0.47,-1.62 -0.61,-3.31 -0.41,-5.05 0.23,-1.73 0.82,-3.42 1.73,-5.01 0.86,-1.5 1.96,-2.77 3.36,-3.74 1.37,-0.99 2.89,-1.64 4.51,-1.98 1.67,-0.31 3.34,-0.37 5.11,-0.12 1.75,0.25 3.46,0.89 5.14,1.85" /><path
         id="path22"
         style="fill:#f4f4f4;fill-opacity:1;fill-rule:evenodd;stroke:none"
         d="m 2164.95,1137.2 c -1.74,3.02 -2.81,6.21 -3.2,9.54 -0.4,3.32 -0.13,6.61 0.78,9.8 0.92,3.25 2.47,6.21 4.66,8.95 2.15,2.72 4.9,5.07 8.18,6.96 3.3,1.9 6.58,3.12 9.86,3.65 3.29,0.54 6.48,0.44 9.54,-0.3 3.06,-0.69 5.87,-2.04 8.48,-4 2.64,-1.95 4.85,-4.53 6.68,-7.7 1.83,-3.18 2.95,-6.43 3.32,-9.81 0.36,-3.4 0.05,-6.62 -0.89,-9.75 -0.98,-3.14 -2.54,-6.03 -4.68,-8.78 -2.15,-2.72 -4.89,-5.02 -8.16,-6.91 -3.24,-1.87 -6.52,-3.08 -9.86,-3.6 -3.35,-0.5 -6.53,-0.43 -9.56,0.29 -3.05,0.65 -5.88,1.98 -8.5,3.94 -2.61,1.97 -4.81,4.55 -6.65,7.72 z m 11.53,7.11 c 0.95,-1.65 2.12,-3.1 3.53,-4.23 1.4,-1.1 2.89,-1.93 4.48,-2.41 1.62,-0.46 3.27,-0.61 4.99,-0.43 1.69,0.22 3.34,0.74 4.95,1.67 1.56,0.9 2.81,2.04 3.81,3.39 0.99,1.37 1.69,2.87 2.07,4.49 0.41,1.63 0.46,3.31 0.21,5.07 -0.29,1.74 -0.88,3.43 -1.81,5.05 -1.03,1.78 -2.26,3.27 -3.66,4.45 -1.44,1.16 -2.96,1.98 -4.59,2.44 -1.61,0.46 -3.3,0.59 -5.04,0.39 -1.73,-0.23 -3.42,-0.83 -5.01,-1.74 -1.49,-0.86 -2.76,-1.97 -3.73,-3.38 -0.98,-1.37 -1.63,-2.89 -1.96,-4.52 -0.31,-1.66 -0.36,-3.34 -0.11,-5.1 0.25,-1.75 0.89,-3.46 1.87,-5.14" /><path
         id="path24"
         style="fill:#292b2c;fill-opacity:1;fill-rule:evenodd;stroke:none"
         d="M 1.12109,3615.79 H 56.918 v -55.8 H 1.12109 v 55.8" /><path
         id="path26"
         style="fill:#292b2c;fill-opacity:1;fill-rule:evenodd;stroke:none"
         d="m 3556.5,3615.79 h 55.79 v -55.8 h -55.79 v 55.8" /><path
         id="path28"
         style="fill:#292b2c;fill-opacity:1;fill-rule:evenodd;stroke:none"
         d="M 1.12109,60.4102 H 56.918 V 4.61328 H 1.12109 V 60.4102" /><path
         id="path30"
         style="fill:#292b2c;fill-opacity:1;fill-rule:evenodd;stroke:none"
         d="m 3556.5,60.4102 h 55.79 V 4.61328 H 3556.5 V 60.4102" /></g></g></svg>