<?xml version="1.0" encoding="UTF-8" standalone="no"?>
<svg
   xmlns:dc="http://purl.org/dc/elements/1.1/"
   xmlns:cc="http://creativecommons.org/ns#"
   xmlns:rdf="http://www.w3.org/1999/02/22-rdf-syntax-ns#"
   xmlns:svg="http://www.w3.org/2000/svg"
   xmlns="http://www.w3.org/2000/svg"
   viewBox="0 0 482.66666 482.66666"
   height="482.66666"
   width="482.66666"
   xml:space="preserve"
   id="svg2"
   version="1.1"><metadata
     id="metadata8"><rdf:RDF><cc:Work
         rdf:about=""><dc:format>image/svg+xml</dc:format><dc:type
           rdf:resource="http://purl.org/dc/dcmitype/StillImage" /></cc:Work></rdf:RDF></metadata><defs
     id="defs6" /><g
     transform="matrix(1.3333333,0,0,-1.3333333,0,482.66667)"
     id="g10"><g
       transform="scale(0.1)"
       id="g12"><path
         id="path14"
         style="fill:#f4f4f4;fill-opacity:1;fill-rule:evenodd;stroke:none"
         d="m 2317.28,1947.19 c -62.36,225.99 -270,392.79 -515.36,392.79 -144.88,0 -272.32,-60.12 -368.76,-154.3 l 92.24,-93.64 c 72.17,72.05 171.69,116.71 281.3,116.71 184,0 339.55,-125.83 385.03,-295.82 l 125.55,34.26" /><path
         id="path16"
         style="fill:#f4f4f4;fill-opacity:1;fill-rule:evenodd;stroke:none"
         d="m 2644,2647.57 -91.93,-91.93 c -191.11,191.11 -454.84,309.59 -745.37,309.59 -290.52,0 -554.25,-118.48 -745.36,-309.59 l -91.93,91.93 c 214.68,214.68 510.94,347.77 837.29,347.77 326.36,0 622.62,-133.09 837.3,-347.77" /><path
         id="path18"
         style="fill:#292b2c;fill-opacity:1;fill-rule:evenodd;stroke:none"
         d="m 1806.38,2852.09 c 43.07,0 78.19,35.13 78.19,78.2 0,43.06 -35.12,78.18 -78.19,78.18 -43.07,0 -78.19,-35.12 -78.19,-78.18 0,-43.07 35.12,-78.2 78.19,-78.2 z m 0,10.68 c 37.19,0 67.52,30.32 67.52,67.52 0,37.18 -30.33,67.51 -67.52,67.51 -37.19,0 -67.52,-30.33 -67.52,-67.51 0,-37.2 30.33,-67.52 67.52,-67.52" /><path
         id="path20"
         style="fill:#292b2c;fill-opacity:1;fill-rule:evenodd;stroke:none"
         d="m 1805.25,2234.01 c -0.22,-0.72 -0.5,-1.31 -0.83,-1.76 -0.35,-0.44 -0.89,-0.79 -1.65,-1.03 -0.79,-0.21 -1.81,-0.36 -3.13,-0.43 -1.33,-0.06 -3.05,-0.11 -5.16,-0.11 -1.69,0 -3.15,0.02 -4.36,0.05 -1.22,0.02 -2.24,0.06 -3.09,0.15 -0.85,0.08 -1.55,0.21 -2.07,0.39 -0.54,0.17 -0.98,0.37 -1.35,0.63 -0.34,0.26 -0.63,0.56 -0.82,0.93 -0.2,0.35 -0.37,0.81 -0.54,1.37 l -24.53,73.04 c -0.49,1.53 -0.8,2.74 -0.91,3.63 -0.11,0.9 0.11,1.57 0.63,2 0.52,0.46 1.44,0.72 2.72,0.83 1.26,0.11 3.04,0.18 5.35,0.18 1.95,0 3.48,-0.05 4.58,-0.14 1.09,-0.08 1.94,-0.24 2.55,-0.45 0.58,-0.22 1,-0.52 1.24,-0.96 0.24,-0.42 0.45,-0.95 0.67,-1.59 l 20.06,-63.56 h 0.05 l 19.69,63.24 c 0.18,0.74 0.37,1.3 0.63,1.76 0.27,0.43 0.7,0.8 1.31,1.04 0.6,0.26 1.5,0.44 2.65,0.52 1.13,0.09 2.72,0.14 4.7,0.14 1.95,0 3.47,-0.07 4.56,-0.2 1.09,-0.13 1.83,-0.44 2.24,-0.94 0.39,-0.47 0.52,-1.17 0.37,-2.06 -0.15,-0.89 -0.48,-2.09 -0.98,-3.57 l -24.58,-73.1" /><path
         id="path22"
         style="fill:#292b2c;fill-opacity:1;fill-rule:evenodd;stroke:none"
         d="m 1858.18,2233.36 c 0,-0.42 -0.15,-0.81 -0.44,-1.13 -0.26,-0.35 -0.72,-0.64 -1.36,-0.83 -0.64,-0.22 -1.49,-0.39 -2.55,-0.52 -1.06,-0.13 -2.41,-0.2 -4.06,-0.2 -1.61,0 -2.96,0.07 -4.05,0.2 -1.08,0.13 -1.95,0.3 -2.58,0.52 -0.64,0.19 -1.09,0.48 -1.37,0.83 -0.29,0.32 -0.42,0.71 -0.42,1.13 v 77.84 c 0,0.41 0.13,0.8 0.42,1.13 0.28,0.35 0.73,0.63 1.41,0.83 0.65,0.21 1.5,0.39 2.57,0.52 1.06,0.13 2.41,0.2 4.02,0.2 1.65,0 3,-0.07 4.06,-0.2 1.06,-0.13 1.91,-0.31 2.55,-0.52 0.64,-0.2 1.1,-0.48 1.36,-0.83 0.29,-0.33 0.44,-0.72 0.44,-1.13 v -77.84" /><path
         id="path24"
         style="fill:#292b2c;fill-opacity:1;fill-rule:evenodd;stroke:none"
         d="m 1591.29,2174.43 c 0.21,-0.36 0.27,-0.77 0.19,-1.19 -0.05,-0.43 -0.3,-0.91 -0.77,-1.4 -0.44,-0.5 -1.08,-1.08 -1.94,-1.73 -0.86,-0.64 -1.99,-1.37 -3.42,-2.2 -1.4,-0.8 -2.6,-1.42 -3.6,-1.85 -1.01,-0.43 -1.85,-0.72 -2.5,-0.84 -0.65,-0.15 -1.18,-0.13 -1.61,0.03 -0.4,0.14 -0.71,0.41 -0.92,0.77 l -38.92,67.42 c -0.21,0.35 -0.29,0.76 -0.21,1.18 0.07,0.44 0.33,0.92 0.81,1.42 0.46,0.51 1.11,1.09 1.96,1.74 0.86,0.64 2,1.37 3.39,2.18 1.43,0.83 2.63,1.44 3.62,1.86 0.99,0.42 1.81,0.69 2.46,0.82 0.66,0.16 1.2,0.14 1.6,-0.03 0.41,-0.14 0.73,-0.4 0.94,-0.76 l 38.92,-67.42" /><path
         id="path26"
         style="fill:#292b2c;fill-opacity:1;fill-rule:evenodd;stroke:none"
         d="m 1621.41,2191.82 c 0.21,-0.36 0.27,-0.77 0.2,-1.19 -0.06,-0.43 -0.31,-0.91 -0.78,-1.4 -0.44,-0.51 -1.08,-1.08 -1.94,-1.73 -0.86,-0.64 -1.99,-1.37 -3.43,-2.2 -1.39,-0.8 -2.58,-1.42 -3.59,-1.85 -1.01,-0.43 -1.85,-0.72 -2.5,-0.84 -0.65,-0.15 -1.18,-0.13 -1.6,0.03 -0.41,0.14 -0.72,0.41 -0.93,0.77 l -38.92,67.41 c -0.21,0.36 -0.29,0.77 -0.21,1.19 0.08,0.44 0.33,0.92 0.81,1.42 0.46,0.52 1.11,1.09 1.96,1.74 0.86,0.64 2,1.37 3.39,2.18 1.43,0.83 2.63,1.44 3.62,1.86 0.99,0.42 1.81,0.69 2.46,0.82 0.66,0.16 1.2,0.14 1.6,-0.03 0.41,-0.14 0.74,-0.41 0.94,-0.76 l 38.92,-67.42" /><path
         id="path28"
         style="fill:#292b2c;fill-opacity:1;fill-rule:evenodd;stroke:none"
         d="m 1999.3,2187.61 c -0.21,-0.36 -0.54,-0.62 -0.94,-0.76 -0.4,-0.17 -0.94,-0.19 -1.61,-0.03 -0.65,0.13 -1.47,0.4 -2.46,0.82 -0.99,0.42 -2.18,1.04 -3.61,1.86 -1.4,0.81 -2.54,1.54 -3.41,2.2 -0.88,0.65 -1.54,1.23 -1.98,1.74 -0.45,0.48 -0.7,0.96 -0.77,1.4 -0.08,0.43 0,0.83 0.21,1.18 l 38.92,67.42 c 0.21,0.36 0.51,0.63 0.92,0.77 0.42,0.16 0.96,0.18 1.64,0.01 0.67,-0.14 1.49,-0.41 2.48,-0.83 0.99,-0.42 2.19,-1.03 3.58,-1.84 1.43,-0.83 2.57,-1.56 3.42,-2.2 0.86,-0.65 1.51,-1.22 1.94,-1.72 0.47,-0.5 0.73,-0.97 0.78,-1.41 0.08,-0.42 0.02,-0.84 -0.19,-1.19 l -38.92,-67.42" /><path
         id="path30"
         style="fill:#292b2c;fill-opacity:1;fill-rule:evenodd;stroke:none"
         d="m 2029.41,2170.22 c -0.2,-0.36 -0.53,-0.62 -0.93,-0.76 -0.41,-0.17 -0.94,-0.19 -1.6,-0.03 -0.66,0.13 -1.48,0.4 -2.47,0.82 -0.98,0.42 -2.18,1.04 -3.61,1.86 -1.4,0.81 -2.53,1.54 -3.41,2.19 -0.87,0.66 -1.54,1.25 -1.98,1.75 -0.45,0.49 -0.7,0.96 -0.77,1.4 -0.09,0.43 0,0.83 0.2,1.18 l 38.93,67.42 c 0.2,0.36 0.51,0.63 0.92,0.77 0.42,0.16 0.95,0.18 1.64,0.01 0.67,-0.14 1.49,-0.41 2.48,-0.83 0.99,-0.42 2.19,-1.04 3.58,-1.84 1.43,-0.83 2.57,-1.56 3.42,-2.2 0.86,-0.65 1.51,-1.23 1.94,-1.73 0.47,-0.49 0.73,-0.96 0.78,-1.4 0.08,-0.42 0.01,-0.83 -0.19,-1.19 l -38.93,-67.42" /><path
         id="path32"
         style="fill:#292b2c;fill-opacity:1;fill-rule:evenodd;stroke:none"
         d="m 2059.54,2152.83 c -0.21,-0.36 -0.54,-0.62 -0.94,-0.76 -0.4,-0.17 -0.94,-0.19 -1.6,-0.03 -0.66,0.13 -1.48,0.4 -2.46,0.82 -1,0.42 -2.19,1.04 -3.63,1.86 -1.39,0.81 -2.52,1.54 -3.4,2.19 -0.88,0.66 -1.54,1.25 -1.98,1.75 -0.45,0.48 -0.7,0.96 -0.77,1.4 -0.08,0.42 0,0.83 0.2,1.18 l 38.93,67.42 c 0.2,0.36 0.51,0.63 0.92,0.77 0.42,0.16 0.96,0.18 1.64,0.01 0.67,-0.14 1.49,-0.41 2.48,-0.83 0.99,-0.42 2.19,-1.04 3.58,-1.84 1.43,-0.83 2.56,-1.56 3.42,-2.2 0.86,-0.65 1.51,-1.23 1.95,-1.73 0.46,-0.49 0.72,-0.96 0.77,-1.4 0.08,-0.42 0.01,-0.83 -0.19,-1.19 l -38.92,-67.42" /><path
         id="path34"
         style="fill:#292b2c;fill-opacity:1;fill-rule:evenodd;stroke:none"
         d="m 2160.43,2044.32 c -0.73,-0.18 -1.38,-0.24 -1.93,-0.19 -0.55,0.07 -1.13,0.35 -1.73,0.89 -0.59,0.55 -1.24,1.36 -1.98,2.46 -0.74,1.1 -1.66,2.56 -2.74,4.36 -0.87,1.46 -1.61,2.71 -2.21,3.77 -0.61,1.05 -1.1,1.95 -1.46,2.73 -0.36,0.77 -0.61,1.43 -0.73,1.97 -0.13,0.55 -0.18,1.03 -0.15,1.48 0.05,0.43 0.16,0.83 0.38,1.19 0.2,0.34 0.5,0.73 0.89,1.17 l 50.04,58.58 c 1.05,1.22 1.94,2.1 2.65,2.65 0.7,0.55 1.4,0.71 2.04,0.49 0.66,-0.21 1.35,-0.86 2.1,-1.91 0.74,-1.02 1.72,-2.51 2.9,-4.49 1.01,-1.68 1.75,-3.01 2.25,-4 0.48,-0.98 0.79,-1.78 0.91,-2.42 0.12,-0.61 0.07,-1.12 -0.18,-1.55 -0.23,-0.42 -0.59,-0.89 -1.02,-1.4 l -44.2,-49.89 0.03,-0.03 64.36,15.62 c 0.73,0.23 1.31,0.35 1.83,0.36 0.51,0 1.05,-0.18 1.57,-0.58 0.54,-0.39 1.15,-1.06 1.81,-2.01 0.66,-0.92 1.51,-2.26 2.53,-3.96 1,-1.68 1.73,-3.01 2.18,-4.01 0.44,-1 0.56,-1.79 0.35,-2.4 -0.21,-0.59 -0.74,-1.06 -1.58,-1.38 -0.85,-0.33 -2.04,-0.67 -3.57,-1 l -75.34,-16.5" /><path
         id="path36"
         style="fill:#292b2c;fill-opacity:1;fill-rule:evenodd;stroke:none"
         d="m 2187.09,1998.59 c -0.36,-0.21 -0.77,-0.29 -1.2,-0.21 -0.43,0.04 -0.91,0.29 -1.41,0.75 -0.51,0.43 -1.09,1.07 -1.75,1.91 -0.66,0.85 -1.41,1.97 -2.26,3.39 -0.83,1.38 -1.47,2.57 -1.91,3.57 -0.45,1 -0.75,1.83 -0.88,2.48 -0.16,0.65 -0.15,1.18 0,1.6 0.14,0.41 0.4,0.72 0.76,0.94 l 66.76,40.02 c 0.36,0.21 0.76,0.3 1.18,0.23 0.45,-0.07 0.92,-0.31 1.44,-0.79 0.52,-0.44 1.11,-1.08 1.77,-1.93 0.66,-0.85 1.41,-1.97 2.23,-3.35 0.85,-1.41 1.49,-2.61 1.93,-3.59 0.43,-0.98 0.71,-1.79 0.86,-2.45 0.16,-0.66 0.16,-1.19 -0.01,-1.6 -0.14,-0.4 -0.39,-0.74 -0.74,-0.95 l -66.77,-40.02" /><path
         id="path38"
         style="fill:#292b2c;fill-opacity:1;fill-rule:evenodd;stroke:none"
         d="m 2204.97,1968.75 c -0.35,-0.21 -0.77,-0.28 -1.19,-0.2 -0.43,0.04 -0.91,0.29 -1.41,0.75 -0.51,0.43 -1.1,1.06 -1.76,1.91 -0.66,0.84 -1.41,1.97 -2.26,3.39 -0.82,1.38 -1.46,2.56 -1.91,3.56 -0.45,1 -0.74,1.84 -0.88,2.49 -0.16,0.64 -0.15,1.18 0,1.6 0.14,0.41 0.4,0.72 0.76,0.94 l 66.77,40.02 c 0.35,0.21 0.75,0.31 1.18,0.23 0.44,-0.06 0.92,-0.31 1.43,-0.79 0.52,-0.45 1.11,-1.08 1.77,-1.93 0.66,-0.85 1.41,-1.97 2.24,-3.35 0.84,-1.42 1.48,-2.6 1.92,-3.58 0.43,-0.99 0.72,-1.81 0.86,-2.45 0.16,-0.66 0.16,-1.2 -0.01,-1.61 -0.13,-0.41 -0.39,-0.74 -0.74,-0.95 l -66.77,-40.03" /><path
         id="path40"
         style="fill:#292b2c;fill-opacity:1;fill-rule:evenodd;stroke:none"
         d="m 1815.13,2890.17 c 0,-0.42 -0.16,-0.81 -0.44,-1.13 -0.26,-0.35 -0.72,-0.63 -1.37,-0.83 -0.63,-0.22 -1.48,-0.39 -2.54,-0.52 -1.07,-0.13 -2.42,-0.19 -4.07,-0.19 -1.61,0 -2.96,0.06 -4.04,0.19 -1.09,0.13 -1.96,0.3 -2.59,0.52 -0.63,0.2 -1.08,0.48 -1.37,0.83 -0.28,0.32 -0.41,0.71 -0.41,1.13 v 77.84 c 0,0.42 0.13,0.81 0.41,1.13 0.29,0.35 0.74,0.63 1.42,0.83 0.65,0.21 1.5,0.39 2.56,0.52 1.06,0.13 2.41,0.19 4.02,0.19 1.65,0 3,-0.06 4.07,-0.19 1.06,-0.13 1.91,-0.31 2.54,-0.52 0.65,-0.2 1.11,-0.48 1.37,-0.83 0.28,-0.32 0.44,-0.71 0.44,-1.13 v -77.84" /><path
         id="path42"
         style="fill:#292b2c;fill-opacity:1;fill-rule:evenodd;stroke:none"
         d="m 1244.35,2733.02 c 0.2,-0.36 0.27,-0.78 0.19,-1.2 -0.06,-0.43 -0.31,-0.91 -0.78,-1.4 -0.44,-0.5 -1.08,-1.08 -1.94,-1.72 -0.86,-0.65 -1.99,-1.38 -3.42,-2.2 -1.4,-0.81 -2.6,-1.43 -3.6,-1.86 -1.01,-0.43 -1.85,-0.71 -2.5,-0.84 -0.64,-0.14 -1.18,-0.13 -1.6,0.03 -0.41,0.14 -0.72,0.42 -0.92,0.78 l -38.92,67.41 c -0.21,0.36 -0.3,0.76 -0.21,1.18 0.07,0.45 0.32,0.92 0.81,1.43 0.45,0.51 1.1,1.08 1.96,1.73 0.85,0.64 1.99,1.37 3.38,2.18 1.43,0.83 2.63,1.44 3.62,1.87 0.99,0.41 1.81,0.68 2.46,0.81 0.67,0.16 1.2,0.14 1.6,-0.03 0.41,-0.14 0.74,-0.4 0.95,-0.76 l 38.92,-67.41" /><path
         id="path44"
         style="fill:#292b2c;fill-opacity:1;fill-rule:evenodd;stroke:none"
         d="m 1295.09,2763.07 c 0.18,-0.73 0.22,-1.38 0.17,-1.94 -0.08,-0.55 -0.38,-1.12 -0.92,-1.71 -0.57,-0.58 -1.38,-1.22 -2.49,-1.94 -1.12,-0.72 -2.59,-1.62 -4.41,-2.67 -1.47,-0.85 -2.74,-1.56 -3.81,-2.15 -1.06,-0.59 -1.97,-1.06 -2.75,-1.41 -0.77,-0.35 -1.44,-0.58 -1.98,-0.7 -0.56,-0.12 -1.03,-0.16 -1.48,-0.12 -0.44,0.05 -0.83,0.17 -1.19,0.39 -0.34,0.21 -0.72,0.52 -1.15,0.92 l -57.76,50.99 c -1.19,1.07 -2.06,1.97 -2.6,2.69 -0.54,0.72 -0.69,1.41 -0.45,2.05 0.22,0.65 0.88,1.33 1.93,2.07 1.04,0.73 2.55,1.67 4.55,2.83 1.69,0.97 3.03,1.7 4.04,2.17 0.98,0.48 1.79,0.76 2.43,0.88 0.61,0.11 1.12,0.05 1.55,-0.21 0.41,-0.24 0.87,-0.6 1.37,-1.03 l 49.16,-45.02 0.04,0.02 -14.56,64.61 c -0.22,0.73 -0.33,1.32 -0.33,1.84 0,0.51 0.19,1.05 0.6,1.56 0.4,0.53 1.08,1.13 2.04,1.78 0.93,0.64 2.29,1.47 4,2.46 1.69,0.98 3.04,1.68 4.05,2.11 1,0.43 1.8,0.54 2.41,0.32 0.57,-0.23 1.04,-0.76 1.35,-1.61 0.31,-0.85 0.63,-2.05 0.93,-3.58 l 15.26,-75.6" /><path
         id="path46"
         style="fill:#292b2c;fill-opacity:1;fill-rule:evenodd;stroke:none"
         d="m 2360.97,2738.45 c -0.55,-0.52 -1.09,-0.88 -1.6,-1.12 -0.51,-0.2 -1.16,-0.23 -1.94,-0.06 -0.79,0.21 -1.75,0.59 -2.93,1.19 -1.18,0.61 -2.69,1.43 -4.51,2.49 -1.47,0.84 -2.72,1.59 -3.76,2.22 -1.05,0.63 -1.91,1.17 -2.6,1.67 -0.69,0.5 -1.23,0.96 -1.59,1.37 -0.39,0.43 -0.67,0.81 -0.86,1.22 -0.17,0.4 -0.26,0.81 -0.25,1.23 0.01,0.39 0.09,0.88 0.22,1.45 l 15.28,75.52 c 0.33,1.57 0.68,2.77 1.03,3.6 0.35,0.82 0.88,1.3 1.54,1.41 0.68,0.14 1.61,-0.09 2.77,-0.64 1.15,-0.54 2.72,-1.37 4.72,-2.52 1.69,-0.98 2.99,-1.78 3.9,-2.41 0.9,-0.62 1.56,-1.17 1.98,-1.66 0.4,-0.48 0.6,-0.96 0.59,-1.45 0,-0.48 -0.08,-1.06 -0.21,-1.71 l -14.4,-65.08 0.04,-0.03 48.67,44.92 c 0.52,0.56 0.98,0.95 1.43,1.21 0.44,0.25 1,0.35 1.65,0.25 0.66,-0.07 1.52,-0.37 2.56,-0.87 1.02,-0.49 2.42,-1.24 4.13,-2.23 1.69,-0.98 2.98,-1.8 3.85,-2.46 0.88,-0.65 1.37,-1.28 1.48,-1.92 0.09,-0.61 -0.14,-1.28 -0.71,-1.98 -0.58,-0.7 -1.47,-1.57 -2.64,-2.6 l -57.84,-51.01" /><path
         id="path48"
         style="fill:#292b2c;fill-opacity:1;fill-rule:evenodd;stroke:none"
         d="M 1.12109,3615.79 H 56.918 v -55.8 H 1.12109 v 55.8" /><path
         id="path50"
         style="fill:#292b2c;fill-opacity:1;fill-rule:evenodd;stroke:none"
         d="m 3556.5,3615.79 h 55.79 v -55.8 h -55.79 v 55.8" /><path
         id="path52"
         style="fill:#292b2c;fill-opacity:1;fill-rule:evenodd;stroke:none"
         d="M 1.12109,60.4102 H 56.918 V 4.61328 H 1.12109 V 60.4102" /><path
         id="path54"
         style="fill:#292b2c;fill-opacity:1;fill-rule:evenodd;stroke:none"
         d="m 3556.5,60.4102 h 55.79 V 4.61328 H 3556.5 V 60.4102" /></g></g></svg>