<?xml version="1.0" encoding="UTF-8" standalone="no"?>
<svg
   xmlns:dc="http://purl.org/dc/elements/1.1/"
   xmlns:cc="http://creativecommons.org/ns#"
   xmlns:rdf="http://www.w3.org/1999/02/22-rdf-syntax-ns#"
   xmlns:svg="http://www.w3.org/2000/svg"
   xmlns="http://www.w3.org/2000/svg"
   viewBox="0 0 482.66666 482.66666"
   height="482.66666"
   width="482.66666"
   xml:space="preserve"
   id="svg2"
   version="1.1"><metadata
     id="metadata8"><rdf:RDF><cc:Work
         rdf:about=""><dc:format>image/svg+xml</dc:format><dc:type
           rdf:resource="http://purl.org/dc/dcmitype/StillImage" /></cc:Work></rdf:RDF></metadata><defs
     id="defs6" /><g
     transform="matrix(1.3333333,0,0,-1.3333333,0,482.66667)"
     id="g10"><g
       transform="scale(0.1)"
       id="g12"><path
         id="path14"
         style="fill:#f4f4f4;fill-opacity:1;fill-rule:evenodd;stroke:none"
         d="m 2317.28,1947.19 c -62.36,225.99 -270,392.79 -515.36,392.79 -144.88,0 -272.32,-60.12 -368.76,-154.3 l 92.24,-93.64 c 72.17,72.05 171.69,116.71 281.3,116.71 184,0 339.55,-125.83 385.03,-295.82 l 125.55,34.26" /><path
         id="path16"
         style="fill:#f4f4f4;fill-opacity:1;fill-rule:evenodd;stroke:none"
         d="m 2644,2647.57 -91.93,-91.93 c -191.11,191.11 -454.84,309.59 -745.37,309.59 -290.52,0 -554.25,-118.48 -745.36,-309.59 l -91.93,91.93 c 214.68,214.68 510.94,347.77 837.29,347.77 326.36,0 622.62,-133.09 837.3,-347.77" /><path
         id="path18"
         style="fill:#292b2c;fill-opacity:1;fill-rule:evenodd;stroke:none"
         d="m 2133.08,1998.37 c 23.17,-40.12 74.78,-53.95 114.89,-30.79 40.12,23.17 53.95,74.78 30.79,114.9 -23.16,40.12 -74.78,53.95 -114.89,30.78 -40.12,-23.16 -53.95,-74.77 -30.79,-114.89 z m 9.94,5.74 c 20,-34.65 64.57,-46.59 99.21,-26.59 34.65,20 46.59,64.57 26.59,99.21 -20,34.65 -64.57,46.59 -99.21,26.59 -34.65,-20 -46.59,-64.57 -26.59,-99.21" /><path
         id="path20"
         style="fill:#292b2c;fill-opacity:1;fill-rule:evenodd;stroke:none"
         d="m 1996.02,2189.5 c -0.21,-0.36 -0.54,-0.62 -0.94,-0.76 -0.4,-0.17 -0.94,-0.19 -1.6,-0.03 -0.66,0.13 -1.48,0.4 -2.46,0.82 -0.99,0.42 -2.19,1.04 -3.62,1.86 -1.4,0.81 -2.53,1.54 -3.41,2.2 -0.87,0.65 -1.54,1.24 -1.97,1.74 -0.45,0.49 -0.71,0.96 -0.78,1.4 -0.08,0.43 0,0.83 0.21,1.18 l 38.92,67.42 c 0.21,0.36 0.52,0.63 0.92,0.77 0.42,0.16 0.96,0.18 1.64,0.01 0.67,-0.14 1.5,-0.41 2.48,-0.83 0.99,-0.42 2.19,-1.03 3.58,-1.84 1.44,-0.83 2.57,-1.56 3.43,-2.2 0.85,-0.65 1.5,-1.22 1.94,-1.72 0.46,-0.5 0.72,-0.97 0.77,-1.41 0.08,-0.42 0.02,-0.83 -0.19,-1.19 l -38.92,-67.42" /><path
         id="path22"
         style="fill:#292b2c;fill-opacity:1;fill-rule:evenodd;stroke:none"
         d="m 2047.42,2160.58 c -0.55,-0.51 -1.09,-0.88 -1.6,-1.11 -0.52,-0.2 -1.16,-0.24 -1.94,-0.06 -0.79,0.2 -1.74,0.58 -2.93,1.19 -1.18,0.61 -2.69,1.43 -4.51,2.48 -1.47,0.85 -2.72,1.6 -3.76,2.22 -1.05,0.63 -1.91,1.18 -2.6,1.68 -0.69,0.5 -1.23,0.96 -1.6,1.37 -0.38,0.42 -0.66,0.81 -0.85,1.22 -0.17,0.4 -0.26,0.81 -0.24,1.22 0,0.4 0.08,0.89 0.21,1.46 l 15.28,75.52 c 0.33,1.56 0.68,2.77 1.03,3.59 0.35,0.83 0.88,1.3 1.54,1.42 0.68,0.13 1.6,-0.1 2.77,-0.64 1.15,-0.54 2.72,-1.37 4.72,-2.52 1.69,-0.98 2.99,-1.78 3.9,-2.41 0.91,-0.62 1.56,-1.17 1.98,-1.67 0.4,-0.48 0.61,-0.95 0.59,-1.45 0,-0.47 -0.08,-1.05 -0.2,-1.71 l -14.41,-65.08 0.04,-0.02 48.67,44.92 c 0.52,0.55 0.97,0.94 1.43,1.21 0.44,0.25 1.01,0.35 1.65,0.25 0.66,-0.08 1.52,-0.37 2.55,-0.87 1.03,-0.49 2.43,-1.25 4.14,-2.24 1.69,-0.98 2.98,-1.79 3.86,-2.45 0.87,-0.66 1.36,-1.29 1.47,-1.93 0.1,-0.61 -0.14,-1.28 -0.72,-1.97 -0.57,-0.7 -1.45,-1.57 -2.63,-2.6 l -57.84,-51.02" /><path
         id="path24"
         style="fill:#292b2c;fill-opacity:1;fill-rule:evenodd;stroke:none"
         d="m 2177.26,2014.85 c -0.36,-0.21 -0.77,-0.28 -1.2,-0.21 -0.43,0.05 -0.9,0.3 -1.4,0.76 -0.52,0.43 -1.1,1.07 -1.75,1.92 -0.66,0.85 -1.4,1.98 -2.24,3.4 -0.82,1.39 -1.45,2.58 -1.89,3.58 -0.45,1 -0.74,1.84 -0.87,2.49 -0.16,0.64 -0.14,1.18 0.01,1.6 0.13,0.41 0.4,0.72 0.76,0.93 l 66.97,39.68 c 0.36,0.21 0.76,0.3 1.18,0.22 0.45,-0.06 0.92,-0.31 1.44,-0.79 0.52,-0.45 1.1,-1.09 1.75,-1.94 0.66,-0.85 1.4,-1.98 2.22,-3.36 0.84,-1.43 1.47,-2.62 1.9,-3.6 0.43,-0.98 0.72,-1.8 0.85,-2.46 0.17,-0.66 0.15,-1.19 -0.01,-1.59 -0.14,-0.41 -0.4,-0.74 -0.75,-0.95 l -66.97,-39.68" /><path
         id="path26"
         style="fill:#292b2c;fill-opacity:1;fill-rule:evenodd;stroke:none"
         d="m 1280.04,2754.38 c 0.17,-0.74 0.21,-1.38 0.16,-1.95 -0.08,-0.54 -0.38,-1.12 -0.92,-1.7 -0.57,-0.59 -1.38,-1.23 -2.49,-1.95 -1.12,-0.71 -2.59,-1.61 -4.41,-2.67 -1.47,-0.84 -2.74,-1.56 -3.81,-2.14 -1.06,-0.59 -1.97,-1.07 -2.75,-1.42 -0.77,-0.34 -1.44,-0.58 -1.98,-0.69 -0.56,-0.12 -1.03,-0.17 -1.48,-0.13 -0.43,0.06 -0.83,0.18 -1.18,0.4 -0.35,0.21 -0.73,0.51 -1.16,0.91 l -57.76,51 c -1.19,1.07 -2.06,1.97 -2.6,2.68 -0.54,0.72 -0.69,1.41 -0.46,2.05 0.23,0.66 0.89,1.34 1.94,2.08 1.04,0.72 2.55,1.67 4.55,2.82 1.69,0.98 3.03,1.71 4.04,2.18 0.98,0.47 1.79,0.76 2.43,0.88 0.61,0.1 1.12,0.04 1.55,-0.21 0.41,-0.24 0.87,-0.6 1.38,-1.04 l 49.15,-45.02 0.04,0.03 -14.56,64.61 c -0.22,0.73 -0.33,1.31 -0.34,1.84 0.01,0.51 0.21,1.04 0.61,1.56 0.4,0.52 1.08,1.12 2.04,1.77 0.93,0.64 2.29,1.48 4,2.46 1.69,0.98 3.04,1.69 4.05,2.12 1.01,0.43 1.8,0.53 2.4,0.31 0.58,-0.22 1.04,-0.76 1.36,-1.61 0.31,-0.84 0.63,-2.04 0.93,-3.57 l 15.27,-75.6" /><path
         id="path28"
         style="fill:#292b2c;fill-opacity:1;fill-rule:evenodd;stroke:none"
         d="m 1212.75,2706.33 -47.81,74.13 3.21,2.06 27.84,-43.16 c 1.29,4.72 3.58,8.13 6.87,10.25 2.59,1.68 5.26,2.28 8.05,1.8 2.79,-0.47 5.19,-2.18 7.23,-5.1 1.31,-2.15 1.91,-4.7 1.79,-7.62 -0.13,-2.93 -0.72,-6.26 -1.78,-10 -1.05,-3.76 -2.16,-7.63 -3.28,-11.64 -1.14,-4.03 -1.84,-7.59 -2.12,-10.72 z m -13.54,28.03 11.97,-18.54 c 0.91,6.07 1.43,11.02 1.55,14.86 0.13,3.82 -0.74,7.2 -2.62,10.11 -1.25,1.7 -2.62,2.75 -4.03,3.12 -1.42,0.39 -2.77,0.17 -4.01,-0.62 -2.45,-1.59 -3.41,-4.56 -2.86,-8.93" /><path
         id="path30"
         style="fill:#292b2c;fill-opacity:1;fill-rule:evenodd;stroke:none"
         d="m 1802.22,2890.17 c 0,-0.42 -0.15,-0.81 -0.43,-1.13 -0.26,-0.35 -0.72,-0.63 -1.37,-0.83 -0.63,-0.22 -1.48,-0.39 -2.54,-0.52 -1.07,-0.13 -2.42,-0.19 -4.07,-0.19 -1.61,0 -2.95,0.06 -4.04,0.19 -1.09,0.13 -1.96,0.3 -2.59,0.52 -0.63,0.2 -1.08,0.48 -1.37,0.83 -0.28,0.32 -0.41,0.71 -0.41,1.13 v 77.84 c 0,0.42 0.13,0.81 0.41,1.13 0.29,0.35 0.74,0.63 1.42,0.83 0.65,0.21 1.5,0.39 2.56,0.52 1.07,0.13 2.41,0.19 4.02,0.19 1.65,0 3,-0.06 4.07,-0.19 1.06,-0.13 1.91,-0.31 2.54,-0.52 0.65,-0.2 1.11,-0.48 1.37,-0.83 0.28,-0.32 0.43,-0.71 0.43,-1.13 v -77.84" /><path
         id="path32"
         style="fill:#292b2c;fill-opacity:1;fill-rule:evenodd;stroke:none"
         d="m 1837,2890.17 c 0,-0.42 -0.15,-0.81 -0.43,-1.13 -0.26,-0.35 -0.72,-0.63 -1.37,-0.83 -0.63,-0.22 -1.48,-0.39 -2.54,-0.52 -1.07,-0.13 -2.41,-0.19 -4.07,-0.19 -1.61,0 -2.95,0.06 -4.04,0.19 -1.09,0.13 -1.96,0.3 -2.59,0.52 -0.63,0.2 -1.08,0.48 -1.37,0.83 -0.28,0.32 -0.41,0.71 -0.41,1.13 v 77.84 c 0,0.42 0.13,0.81 0.41,1.13 0.29,0.35 0.74,0.63 1.42,0.83 0.65,0.21 1.5,0.39 2.56,0.52 1.07,0.13 2.41,0.19 4.02,0.19 1.66,0 3,-0.06 4.07,-0.19 1.06,-0.13 1.91,-0.31 2.54,-0.52 0.65,-0.2 1.11,-0.48 1.37,-0.83 0.28,-0.32 0.43,-0.71 0.43,-1.13 v -77.84" /><path
         id="path34"
         style="fill:#292b2c;fill-opacity:1;fill-rule:evenodd;stroke:none"
         d="m 1735.71,2882.75 -4.72,88.08 3.81,0.2 2.75,-51.29 c 3.46,3.46 7.15,5.28 11.04,5.49 3.09,0.17 5.71,-0.64 7.89,-2.43 2.18,-1.8 3.43,-4.48 3.75,-8.02 0.07,-2.53 -0.68,-5.03 -2.24,-7.5 -1.56,-2.48 -3.72,-5.08 -6.5,-7.8 -2.78,-2.74 -5.66,-5.56 -8.62,-8.48 -2.99,-2.93 -5.37,-5.67 -7.16,-8.25 z m 2.16,31.05 1.18,-22.04 c 3.81,4.82 6.71,8.86 8.73,12.13 2,3.25 2.92,6.62 2.74,10.08 -0.25,2.1 -0.91,3.69 -1.95,4.71 -1.05,1.04 -2.32,1.52 -3.79,1.45 -2.91,-0.16 -5.22,-2.26 -6.91,-6.33" /><path
         id="path36"
         style="fill:#292b2c;fill-opacity:1;fill-rule:evenodd;stroke:none"
         d="m 1596.94,2177.77 c 0.21,-0.36 0.28,-0.77 0.21,-1.2 -0.05,-0.43 -0.3,-0.91 -0.76,-1.41 -0.43,-0.5 -1.07,-1.09 -1.92,-1.75 -0.84,-0.65 -1.97,-1.39 -3.39,-2.24 -1.38,-0.82 -2.58,-1.46 -3.58,-1.9 -1,-0.45 -1.83,-0.74 -2.48,-0.88 -0.64,-0.15 -1.18,-0.14 -1.61,0.02 -0.41,0.13 -0.71,0.4 -0.93,0.75 l -39.8,66.91 c -0.21,0.35 -0.3,0.75 -0.22,1.18 0.06,0.45 0.31,0.92 0.79,1.43 0.45,0.52 1.09,1.11 1.94,1.77 0.85,0.65 1.97,1.39 3.35,2.22 1.42,0.84 2.62,1.47 3.6,1.91 0.98,0.43 1.8,0.71 2.45,0.85 0.66,0.16 1.2,0.16 1.6,-0.01 0.41,-0.13 0.74,-0.4 0.95,-0.75 l 39.8,-66.9" /><path
         id="path38"
         style="fill:#292b2c;fill-opacity:1;fill-rule:evenodd;stroke:none"
         d="m 1626.84,2195.55 c 0.21,-0.35 0.27,-0.77 0.2,-1.19 -0.05,-0.43 -0.3,-0.91 -0.75,-1.41 -0.43,-0.51 -1.08,-1.09 -1.92,-1.75 -0.85,-0.66 -1.98,-1.4 -3.4,-2.25 -1.38,-0.82 -2.57,-1.45 -3.58,-1.9 -1,-0.44 -1.83,-0.74 -2.48,-0.87 -0.64,-0.16 -1.18,-0.14 -1.6,0.01 -0.41,0.13 -0.72,0.4 -0.93,0.76 l -39.81,66.9 c -0.21,0.36 -0.3,0.76 -0.22,1.18 0.06,0.45 0.31,0.92 0.79,1.44 0.45,0.51 1.09,1.1 1.94,1.76 0.85,0.65 1.97,1.4 3.36,2.22 1.42,0.85 2.61,1.48 3.59,1.91 0.98,0.43 1.8,0.72 2.45,0.85 0.66,0.17 1.2,0.16 1.6,-0.01 0.41,-0.13 0.74,-0.39 0.95,-0.75 l 39.81,-66.9" /><path
         id="path40"
         style="fill:#292b2c;fill-opacity:1;fill-rule:evenodd;stroke:none"
         d="m 1656.73,2213.33 c 0.21,-0.35 0.28,-0.76 0.2,-1.19 -0.05,-0.43 -0.29,-0.91 -0.75,-1.41 -0.43,-0.51 -1.07,-1.09 -1.92,-1.75 -0.85,-0.66 -1.98,-1.4 -3.4,-2.25 -1.38,-0.82 -2.57,-1.45 -3.57,-1.89 -1,-0.45 -1.84,-0.74 -2.49,-0.88 -0.64,-0.15 -1.18,-0.14 -1.6,0.01 -0.41,0.14 -0.72,0.41 -0.93,0.76 l -39.81,66.9 c -0.21,0.36 -0.3,0.76 -0.22,1.19 0.07,0.44 0.31,0.91 0.8,1.43 0.44,0.52 1.08,1.1 1.93,1.76 0.85,0.65 1.98,1.4 3.36,2.22 1.42,0.85 2.61,1.48 3.59,1.91 0.98,0.43 1.8,0.72 2.46,0.86 0.66,0.16 1.19,0.15 1.59,-0.02 0.41,-0.13 0.74,-0.39 0.96,-0.75 l 39.8,-66.9" /><path
         id="path42"
         style="fill:#292b2c;fill-opacity:1;fill-rule:evenodd;stroke:none"
         d="m 1550.46,2142.97 -51.67,71.48 3.09,2.24 30.1,-41.63 c 1.03,4.78 3.14,8.31 6.3,10.6 2.51,1.81 5.15,2.55 7.95,2.23 2.81,-0.33 5.31,-1.91 7.5,-4.71 1.42,-2.09 2.15,-4.59 2.18,-7.52 0.03,-2.93 -0.38,-6.28 -1.24,-10.07 -0.85,-3.82 -1.75,-7.74 -2.65,-11.8 -0.93,-4.09 -1.44,-7.68 -1.56,-10.82 z m -15,27.28 12.93,-17.89 c 0.59,6.1 0.84,11.08 0.77,14.93 -0.08,3.81 -1.13,7.14 -3.16,9.95 -1.34,1.63 -2.76,2.61 -4.19,2.9 -1.44,0.31 -2.77,0.02 -3.97,-0.84 -2.36,-1.71 -3.16,-4.72 -2.38,-9.05" /><path
         id="path44"
         style="fill:#292b2c;fill-opacity:1;fill-rule:evenodd;stroke:none"
         d="m 2358.68,2739.77 c -0.55,-0.51 -1.09,-0.88 -1.61,-1.11 -0.51,-0.2 -1.16,-0.23 -1.93,-0.06 -0.79,0.2 -1.75,0.58 -2.93,1.19 -1.18,0.6 -2.69,1.43 -4.52,2.48 -1.47,0.85 -2.72,1.6 -3.76,2.22 -1.04,0.63 -1.91,1.18 -2.6,1.68 -0.69,0.5 -1.22,0.96 -1.59,1.37 -0.38,0.42 -0.66,0.81 -0.85,1.22 -0.18,0.4 -0.27,0.81 -0.25,1.22 0,0.4 0.08,0.88 0.21,1.46 l 15.29,75.52 c 0.32,1.56 0.67,2.77 1.02,3.59 0.35,0.83 0.88,1.31 1.55,1.42 0.68,0.14 1.6,-0.09 2.77,-0.64 1.14,-0.54 2.72,-1.37 4.71,-2.53 1.7,-0.97 2.99,-1.77 3.91,-2.4 0.9,-0.62 1.56,-1.17 1.97,-1.67 0.4,-0.48 0.61,-0.95 0.6,-1.44 0,-0.49 -0.08,-1.06 -0.21,-1.72 l -14.41,-65.07 0.04,-0.03 48.68,44.92 c 0.52,0.55 0.97,0.94 1.42,1.21 0.45,0.24 1.01,0.35 1.65,0.25 0.66,-0.08 1.52,-0.37 2.56,-0.87 1.02,-0.49 2.42,-1.25 4.13,-2.24 1.7,-0.98 2.98,-1.79 3.86,-2.45 0.88,-0.66 1.36,-1.29 1.47,-1.93 0.1,-0.61 -0.13,-1.28 -0.71,-1.97 -0.58,-0.7 -1.46,-1.57 -2.63,-2.6 l -57.84,-51.02" /><path
         id="path46"
         style="fill:#292b2c;fill-opacity:1;fill-rule:evenodd;stroke:none"
         d="m 2404.19,2712.74 c -0.21,-0.36 -0.54,-0.62 -0.94,-0.76 -0.4,-0.17 -0.94,-0.19 -1.6,-0.03 -0.66,0.12 -1.48,0.4 -2.47,0.82 -0.98,0.42 -2.18,1.03 -3.61,1.86 -1.4,0.81 -2.53,1.53 -3.41,2.19 -0.87,0.66 -1.54,1.24 -1.98,1.75 -0.45,0.48 -0.7,0.95 -0.77,1.4 -0.08,0.42 0,0.82 0.21,1.18 l 38.92,67.42 c 0.21,0.36 0.51,0.63 0.92,0.77 0.42,0.16 0.96,0.18 1.64,0.01 0.67,-0.14 1.49,-0.41 2.48,-0.83 0.99,-0.42 2.19,-1.04 3.58,-1.84 1.43,-0.83 2.57,-1.56 3.43,-2.2 0.85,-0.65 1.5,-1.23 1.94,-1.73 0.46,-0.5 0.72,-0.97 0.77,-1.4 0.08,-0.42 0.02,-0.84 -0.19,-1.19 l -38.92,-67.42" /><path
         id="path48"
         style="fill:#292b2c;fill-opacity:1;fill-rule:evenodd;stroke:none"
         d="m 2284.08,2773.01 40.18,78.53 3.4,-1.75 -23.4,-45.72 c 4.73,1.25 8.83,0.97 12.31,-0.8 2.75,-1.41 4.61,-3.42 5.59,-6.07 0.99,-2.65 0.72,-5.59 -0.78,-8.82 -1.21,-2.21 -3.11,-4 -5.71,-5.36 -2.59,-1.36 -5.77,-2.52 -9.54,-3.47 -3.77,-0.98 -7.68,-1.97 -11.71,-3.01 -4.05,-1.03 -7.49,-2.2 -10.34,-3.53 z m 17.47,25.76 -10.05,-19.65 c 5.71,2.26 10.25,4.29 13.64,6.11 3.37,1.8 5.85,4.25 7.43,7.34 0.84,1.93 1.07,3.64 0.69,5.04 -0.38,1.43 -1.24,2.49 -2.56,3.16 -2.59,1.33 -5.64,0.67 -9.15,-2" /><path
         id="path50"
         style="fill:#292b2c;fill-opacity:1;fill-rule:evenodd;stroke:none"
         d="m 1813.48,2234.01 c -0.22,-0.72 -0.5,-1.31 -0.83,-1.76 -0.35,-0.44 -0.88,-0.79 -1.65,-1.03 -0.78,-0.21 -1.8,-0.36 -3.13,-0.43 -1.32,-0.06 -3.04,-0.11 -5.15,-0.11 -1.7,0 -3.15,0.02 -4.37,0.05 -1.22,0.02 -2.24,0.06 -3.08,0.15 -0.85,0.08 -1.55,0.21 -2.07,0.39 -0.54,0.17 -0.98,0.37 -1.35,0.63 -0.35,0.26 -0.63,0.56 -0.83,0.93 -0.19,0.35 -0.36,0.81 -0.54,1.37 l -24.52,73.04 c -0.5,1.53 -0.8,2.74 -0.91,3.63 -0.11,0.9 0.11,1.57 0.63,2 0.52,0.46 1.43,0.72 2.71,0.83 1.27,0.11 3.05,0.18 5.35,0.18 1.96,0 3.48,-0.05 4.59,-0.14 1.09,-0.08 1.94,-0.24 2.55,-0.45 0.58,-0.22 0.99,-0.52 1.23,-0.96 0.24,-0.42 0.46,-0.95 0.68,-1.59 l 20.06,-63.56 h 0.04 l 19.7,63.24 c 0.17,0.74 0.37,1.3 0.63,1.76 0.26,0.43 0.69,0.8 1.3,1.04 0.61,0.26 1.5,0.44 2.66,0.52 1.12,0.09 2.71,0.14 4.69,0.14 1.96,0 3.48,-0.07 4.57,-0.2 1.08,-0.13 1.82,-0.44 2.24,-0.94 0.39,-0.47 0.52,-1.17 0.37,-2.06 -0.16,-0.89 -0.48,-2.09 -0.98,-3.57 l -24.59,-73.1" /><path
         id="path52"
         style="fill:#292b2c;fill-opacity:1;fill-rule:evenodd;stroke:none"
         d="m 1866.41,2233.36 c 0,-0.42 -0.15,-0.81 -0.43,-1.13 -0.26,-0.35 -0.72,-0.64 -1.37,-0.83 -0.63,-0.22 -1.48,-0.39 -2.54,-0.52 -1.07,-0.13 -2.42,-0.2 -4.07,-0.2 -1.61,0 -2.96,0.07 -4.04,0.2 -1.09,0.13 -1.96,0.3 -2.59,0.52 -0.63,0.19 -1.08,0.48 -1.37,0.83 -0.28,0.32 -0.41,0.71 -0.41,1.13 v 77.84 c 0,0.41 0.13,0.8 0.41,1.13 0.29,0.35 0.74,0.63 1.41,0.83 0.66,0.21 1.5,0.39 2.57,0.52 1.06,0.13 2.41,0.2 4.02,0.2 1.65,0 3,-0.07 4.07,-0.2 1.06,-0.13 1.91,-0.31 2.54,-0.52 0.65,-0.2 1.11,-0.48 1.37,-0.83 0.28,-0.33 0.43,-0.72 0.43,-1.13 v -77.84" /><path
         id="path54"
         style="fill:#292b2c;fill-opacity:1;fill-rule:evenodd;stroke:none"
         d="m 1901.19,2233.36 c 0,-0.42 -0.15,-0.81 -0.43,-1.13 -0.26,-0.35 -0.72,-0.64 -1.37,-0.83 -0.63,-0.22 -1.48,-0.39 -2.54,-0.52 -1.07,-0.13 -2.42,-0.2 -4.07,-0.2 -1.61,0 -2.96,0.07 -4.04,0.2 -1.09,0.13 -1.96,0.3 -2.59,0.52 -0.63,0.19 -1.08,0.48 -1.37,0.83 -0.28,0.32 -0.41,0.71 -0.41,1.13 v 77.84 c 0,0.41 0.13,0.8 0.41,1.13 0.29,0.35 0.74,0.63 1.42,0.83 0.65,0.21 1.5,0.39 2.56,0.52 1.06,0.13 2.41,0.2 4.02,0.2 1.65,0 3,-0.07 4.07,-0.2 1.06,-0.13 1.91,-0.31 2.54,-0.52 0.65,-0.2 1.11,-0.48 1.37,-0.83 0.28,-0.33 0.43,-0.72 0.43,-1.13 v -77.84" /><path
         id="path56"
         style="fill:#292b2c;fill-opacity:1;fill-rule:evenodd;stroke:none"
         d="m 1739.26,2224.76 -11.52,87.45 3.78,0.5 6.71,-50.92 c 3.18,3.71 6.72,5.82 10.59,6.33 3.07,0.4 5.73,-0.2 8.05,-1.82 2.31,-1.62 3.76,-4.19 4.36,-7.7 0.26,-2.51 -0.29,-5.06 -1.65,-7.65 -1.37,-2.6 -3.32,-5.36 -5.88,-8.28 -2.56,-2.95 -5.22,-5.98 -7.94,-9.13 -2.75,-3.15 -4.91,-6.06 -6.5,-8.78 z m -0.25,31.13 2.88,-21.88 c 3.42,5.1 6.01,9.35 7.77,12.77 1.74,3.4 2.4,6.83 1.95,10.26 -0.41,2.07 -1.19,3.61 -2.31,4.55 -1.12,0.95 -2.43,1.34 -3.89,1.14 -2.89,-0.38 -5.03,-2.65 -6.4,-6.84" /><path
         id="path58"
         style="fill:#292b2c;fill-opacity:1;fill-rule:evenodd;stroke:none"
         d="M 1.12109,3615.79 H 56.918 v -55.8 H 1.12109 v 55.8" /><path
         id="path60"
         style="fill:#292b2c;fill-opacity:1;fill-rule:evenodd;stroke:none"
         d="m 3556.5,3615.79 h 55.79 v -55.8 h -55.79 v 55.8" /><path
         id="path62"
         style="fill:#292b2c;fill-opacity:1;fill-rule:evenodd;stroke:none"
         d="M 1.12109,60.4102 H 56.918 V 4.61328 H 1.12109 V 60.4102" /><path
         id="path64"
         style="fill:#292b2c;fill-opacity:1;fill-rule:evenodd;stroke:none"
         d="m 3556.5,60.4102 h 55.79 V 4.61328 H 3556.5 V 60.4102" /></g></g></svg>