<?xml version="1.0" encoding="UTF-8" standalone="no"?>
<svg
   xmlns:dc="http://purl.org/dc/elements/1.1/"
   xmlns:cc="http://creativecommons.org/ns#"
   xmlns:rdf="http://www.w3.org/1999/02/22-rdf-syntax-ns#"
   xmlns:svg="http://www.w3.org/2000/svg"
   xmlns="http://www.w3.org/2000/svg"
   viewBox="0 0 482.66666 482.66666"
   height="482.66666"
   width="482.66666"
   xml:space="preserve"
   id="svg2"
   version="1.1"><metadata
     id="metadata8"><rdf:RDF><cc:Work
         rdf:about=""><dc:format>image/svg+xml</dc:format><dc:type
           rdf:resource="http://purl.org/dc/dcmitype/StillImage" /></cc:Work></rdf:RDF></metadata><defs
     id="defs6" /><g
     transform="matrix(1.3333333,0,0,-1.3333333,0,482.66667)"
     id="g10"><g
       transform="scale(0.1)"
       id="g12"><path
         id="path14"
         style="fill:#f4f4f4;fill-opacity:1;fill-rule:evenodd;stroke:none"
         d="m 2317.28,1947.19 c -62.36,225.99 -270,392.79 -515.36,392.79 -144.88,0 -272.32,-60.12 -368.76,-154.3 l 92.24,-93.64 c 72.17,72.05 171.69,116.71 281.3,116.71 184,0 339.55,-125.83 385.03,-295.82 l 125.55,34.26" /><path
         id="path16"
         style="fill:#f4f4f4;fill-opacity:1;fill-rule:evenodd;stroke:none"
         d="m 2644,2647.57 -91.93,-91.93 c -191.11,191.11 -454.84,309.59 -745.37,309.59 -290.52,0 -554.25,-118.48 -745.36,-309.59 l -91.93,91.93 c 214.68,214.68 510.94,347.77 837.29,347.77 326.36,0 622.62,-133.09 837.3,-347.77" /><path
         id="path18"
         style="fill:#292b2c;fill-opacity:1;fill-rule:evenodd;stroke:none"
         d="m 1285.52,2712.35 c 37.3,21.54 50.16,69.51 28.62,106.81 -21.53,37.3 -69.51,50.16 -106.81,28.62 -37.29,-21.53 -50.15,-69.51 -28.62,-106.81 21.54,-37.3 69.52,-50.15 106.81,-28.62 z m -5.33,9.24 c 32.2,18.6 43.31,60.03 24.71,92.23 -18.6,32.21 -60.02,43.32 -92.23,24.72 -32.21,-18.59 -43.31,-60.02 -24.72,-92.23 18.6,-32.21 60.03,-43.31 92.24,-24.72" /><path
         id="path20"
         style="fill:#292b2c;fill-opacity:1;fill-rule:evenodd;stroke:none"
         d="m 1822.64,2890.82 c -0.22,-0.72 -0.5,-1.3 -0.83,-1.76 -0.35,-0.43 -0.89,-0.79 -1.65,-1.02 -0.78,-0.22 -1.8,-0.37 -3.13,-0.44 -1.33,-0.06 -3.05,-0.1 -5.15,-0.1 -1.7,0 -3.16,0.02 -4.37,0.04 -1.22,0.02 -2.24,0.06 -3.09,0.15 -0.85,0.09 -1.54,0.22 -2.06,0.39 -0.55,0.17 -0.98,0.37 -1.35,0.63 -0.35,0.26 -0.63,0.56 -0.83,0.93 -0.2,0.35 -0.37,0.81 -0.54,1.38 l -24.52,73.03 c -0.5,1.53 -0.81,2.74 -0.92,3.63 -0.11,0.89 0.11,1.57 0.64,2 0.52,0.46 1.43,0.72 2.71,0.83 1.26,0.11 3.04,0.17 5.35,0.17 1.96,0 3.48,-0.04 4.58,-0.13 1.09,-0.08 1.94,-0.23 2.55,-0.45 0.58,-0.22 1,-0.52 1.24,-0.96 0.24,-0.41 0.45,-0.95 0.67,-1.59 l 20.06,-63.56 h 0.05 l 19.7,63.24 c 0.17,0.74 0.36,1.3 0.63,1.76 0.26,0.44 0.69,0.8 1.3,1.04 0.61,0.26 1.5,0.44 2.65,0.52 1.13,0.09 2.72,0.13 4.7,0.13 1.95,0 3.47,-0.06 4.56,-0.19 1.09,-0.13 1.83,-0.44 2.24,-0.94 0.39,-0.47 0.52,-1.17 0.37,-2.06 -0.15,-0.89 -0.48,-2.09 -0.98,-3.57 l -24.58,-73.1" /><path
         id="path22"
         style="fill:#292b2c;fill-opacity:1;fill-rule:evenodd;stroke:none"
         d="m 1272.87,2749.55 c 0.21,-0.36 0.28,-0.77 0.2,-1.2 -0.05,-0.43 -0.3,-0.9 -0.77,-1.4 -0.43,-0.51 -1.08,-1.09 -1.93,-1.74 -0.85,-0.65 -1.99,-1.38 -3.41,-2.21 -1.39,-0.82 -2.59,-1.44 -3.59,-1.87 -1.01,-0.44 -1.84,-0.73 -2.5,-0.86 -0.64,-0.15 -1.18,-0.14 -1.6,0.02 -0.41,0.14 -0.72,0.41 -0.92,0.77 l -39.28,67.21 c -0.2,0.36 -0.29,0.76 -0.21,1.19 0.07,0.44 0.32,0.92 0.8,1.42 0.46,0.52 1.1,1.1 1.96,1.75 0.85,0.65 1.98,1.38 3.37,2.19 1.43,0.84 2.62,1.46 3.61,1.89 0.98,0.42 1.8,0.7 2.46,0.83 0.66,0.16 1.2,0.15 1.6,-0.02 0.41,-0.14 0.73,-0.4 0.94,-0.76 l 39.27,-67.21" /><path
         id="path24"
         style="fill:#292b2c;fill-opacity:1;fill-rule:evenodd;stroke:none"
         d="m 2342.96,2748.09 c -0.2,-0.36 -0.53,-0.62 -0.93,-0.77 -0.4,-0.16 -0.94,-0.18 -1.6,-0.03 -0.66,0.13 -1.48,0.41 -2.47,0.82 -0.98,0.43 -2.18,1.04 -3.62,1.87 -1.39,0.8 -2.52,1.53 -3.4,2.19 -0.87,0.65 -1.54,1.24 -1.98,1.74 -0.45,0.49 -0.7,0.96 -0.77,1.4 -0.08,0.43 0,0.83 0.2,1.19 l 38.93,67.41 c 0.2,0.36 0.51,0.64 0.92,0.77 0.42,0.17 0.96,0.18 1.64,0.02 0.67,-0.14 1.49,-0.41 2.48,-0.84 0.99,-0.41 2.19,-1.03 3.58,-1.84 1.43,-0.82 2.56,-1.56 3.42,-2.2 0.86,-0.64 1.51,-1.22 1.94,-1.72 0.47,-0.5 0.73,-0.97 0.78,-1.4 0.08,-0.43 0.01,-0.84 -0.19,-1.2 l -38.93,-67.41" /><path
         id="path26"
         style="fill:#292b2c;fill-opacity:1;fill-rule:evenodd;stroke:none"
         d="m 2373.09,2730.7 c -0.21,-0.36 -0.54,-0.62 -0.95,-0.77 -0.39,-0.16 -0.93,-0.18 -1.59,-0.02 -0.66,0.12 -1.48,0.39 -2.47,0.81 -0.99,0.42 -2.19,1.04 -3.62,1.87 -1.39,0.8 -2.52,1.53 -3.4,2.19 -0.88,0.65 -1.54,1.24 -1.98,1.74 -0.45,0.49 -0.7,0.96 -0.77,1.4 -0.08,0.43 0,0.83 0.21,1.19 l 38.92,67.41 c 0.2,0.36 0.51,0.64 0.92,0.78 0.42,0.16 0.96,0.17 1.64,0 0.67,-0.13 1.49,-0.41 2.48,-0.83 0.99,-0.42 2.19,-1.03 3.58,-1.84 1.43,-0.82 2.57,-1.55 3.42,-2.2 0.86,-0.64 1.51,-1.22 1.95,-1.72 0.46,-0.5 0.72,-0.97 0.77,-1.41 0.08,-0.42 0.01,-0.83 -0.19,-1.19 l -38.92,-67.41" /><path
         id="path28"
         style="fill:#292b2c;fill-opacity:1;fill-rule:evenodd;stroke:none"
         d="m 1780.98,2233.36 c 0,-0.42 -0.15,-0.81 -0.43,-1.13 -0.26,-0.35 -0.72,-0.64 -1.37,-0.83 -0.63,-0.22 -1.48,-0.39 -2.55,-0.52 -1.06,-0.13 -2.41,-0.2 -4.06,-0.2 -1.61,0 -2.96,0.07 -4.04,0.2 -1.09,0.13 -1.96,0.3 -2.59,0.52 -0.63,0.19 -1.09,0.48 -1.37,0.83 -0.28,0.32 -0.41,0.71 -0.41,1.13 v 77.84 c 0,0.41 0.13,0.8 0.41,1.13 0.28,0.35 0.74,0.63 1.41,0.83 0.65,0.21 1.5,0.39 2.57,0.52 1.06,0.13 2.41,0.2 4.02,0.2 1.65,0 3,-0.07 4.06,-0.2 1.07,-0.13 1.92,-0.31 2.55,-0.52 0.65,-0.2 1.11,-0.48 1.37,-0.83 0.28,-0.33 0.43,-0.72 0.43,-1.13 v -77.84" /><path
         id="path30"
         style="fill:#292b2c;fill-opacity:1;fill-rule:evenodd;stroke:none"
         d="m 1815.76,2233.36 c 0,-0.42 -0.15,-0.81 -0.43,-1.13 -0.26,-0.35 -0.72,-0.64 -1.37,-0.83 -0.63,-0.22 -1.48,-0.39 -2.55,-0.52 -1.06,-0.13 -2.41,-0.2 -4.06,-0.2 -1.61,0 -2.96,0.07 -4.05,0.2 -1.08,0.13 -1.95,0.3 -2.58,0.52 -0.63,0.19 -1.09,0.48 -1.37,0.83 -0.28,0.32 -0.41,0.71 -0.41,1.13 v 77.84 c 0,0.41 0.13,0.8 0.41,1.13 0.28,0.35 0.74,0.63 1.41,0.83 0.65,0.21 1.5,0.39 2.57,0.52 1.06,0.13 2.41,0.2 4.02,0.2 1.65,0 3,-0.07 4.06,-0.2 1.07,-0.13 1.92,-0.31 2.55,-0.52 0.65,-0.2 1.11,-0.48 1.37,-0.83 0.28,-0.33 0.43,-0.72 0.43,-1.13 v -77.84" /><path
         id="path32"
         style="fill:#292b2c;fill-opacity:1;fill-rule:evenodd;stroke:none"
         d="m 1850.54,2233.36 c 0,-0.42 -0.15,-0.81 -0.43,-1.13 -0.26,-0.35 -0.72,-0.64 -1.37,-0.83 -0.63,-0.22 -1.48,-0.39 -2.54,-0.52 -1.07,-0.13 -2.42,-0.2 -4.07,-0.2 -1.61,0 -2.96,0.07 -4.04,0.2 -1.09,0.13 -1.96,0.3 -2.59,0.52 -0.63,0.19 -1.09,0.48 -1.37,0.83 -0.28,0.32 -0.41,0.71 -0.41,1.13 v 77.84 c 0,0.41 0.13,0.8 0.41,1.13 0.28,0.35 0.74,0.63 1.41,0.83 0.66,0.21 1.5,0.39 2.57,0.52 1.06,0.13 2.41,0.2 4.02,0.2 1.65,0 3,-0.07 4.07,-0.2 1.06,-0.13 1.91,-0.31 2.54,-0.52 0.65,-0.2 1.11,-0.48 1.37,-0.83 0.28,-0.33 0.43,-0.72 0.43,-1.13 v -77.84" /><path
         id="path34"
         style="fill:#292b2c;fill-opacity:1;fill-rule:evenodd;stroke:none"
         d="m 1588.82,2173.7 c 0.18,-0.74 0.23,-1.38 0.19,-1.94 -0.08,-0.55 -0.37,-1.13 -0.9,-1.72 -0.56,-0.59 -1.36,-1.25 -2.47,-1.98 -1.1,-0.73 -2.56,-1.65 -4.37,-2.73 -1.46,-0.87 -2.72,-1.59 -3.78,-2.19 -1.05,-0.61 -1.95,-1.09 -2.73,-1.45 -0.77,-0.36 -1.44,-0.6 -1.97,-0.72 -0.56,-0.13 -1.03,-0.18 -1.49,-0.15 -0.42,0.05 -0.82,0.16 -1.18,0.38 -0.35,0.2 -0.73,0.51 -1.17,0.9 l -58.42,50.24 c -1.21,1.05 -2.09,1.94 -2.64,2.65 -0.55,0.71 -0.71,1.4 -0.48,2.04 0.22,0.66 0.87,1.35 1.91,2.1 1.03,0.74 2.53,1.71 4.51,2.89 1.68,1 3.01,1.74 4.01,2.23 0.98,0.48 1.79,0.78 2.42,0.91 0.62,0.11 1.12,0.06 1.55,-0.19 0.42,-0.24 0.89,-0.59 1.39,-1.02 l 49.75,-44.37 0.03,0.02 -15.4,64.42 c -0.23,0.73 -0.35,1.31 -0.36,1.84 0,0.5 0.19,1.04 0.59,1.56 0.39,0.53 1.07,1.14 2.01,1.8 0.93,0.66 2.27,1.51 3.97,2.52 1.68,1 3.02,1.72 4.02,2.16 1,0.45 1.8,0.56 2.4,0.35 0.58,-0.22 1.05,-0.75 1.38,-1.59 0.32,-0.85 0.65,-2.04 0.98,-3.57 l 16.25,-75.39" /><path
         id="path36"
         style="fill:#292b2c;fill-opacity:1;fill-rule:evenodd;stroke:none"
         d="m 1634.64,2200.2 c 0.22,-0.36 0.29,-0.77 0.21,-1.2 -0.05,-0.43 -0.3,-0.91 -0.76,-1.41 -0.43,-0.51 -1.07,-1.09 -1.91,-1.75 -0.85,-0.65 -1.98,-1.4 -3.4,-2.24 -1.38,-0.82 -2.57,-1.46 -3.57,-1.9 -1,-0.45 -1.84,-0.74 -2.5,-0.88 -0.64,-0.15 -1.17,-0.14 -1.59,0.02 -0.41,0.13 -0.73,0.4 -0.94,0.75 l -39.8,66.91 c -0.21,0.35 -0.3,0.75 -0.22,1.18 0.07,0.45 0.31,0.92 0.79,1.43 0.45,0.52 1.09,1.1 1.94,1.77 0.85,0.65 1.97,1.39 3.36,2.22 1.41,0.84 2.61,1.47 3.59,1.91 0.98,0.43 1.8,0.71 2.45,0.85 0.66,0.16 1.2,0.16 1.6,-0.01 0.41,-0.14 0.74,-0.4 0.95,-0.75 l 39.8,-66.9" /><path
         id="path38"
         style="fill:#292b2c;fill-opacity:1;fill-rule:evenodd;stroke:none"
         d="m 2002.24,2186.67 c -0.55,-0.52 -1.09,-0.88 -1.6,-1.12 -0.51,-0.2 -1.16,-0.23 -1.94,-0.05 -0.79,0.2 -1.74,0.58 -2.93,1.18 -1.18,0.61 -2.69,1.43 -4.51,2.49 -1.47,0.85 -2.72,1.59 -3.76,2.22 -1.05,0.63 -1.91,1.17 -2.6,1.67 -0.69,0.5 -1.23,0.96 -1.6,1.37 -0.38,0.43 -0.66,0.81 -0.85,1.23 -0.17,0.39 -0.26,0.8 -0.24,1.22 0,0.4 0.08,0.88 0.21,1.46 l 15.28,75.51 c 0.33,1.57 0.68,2.77 1.03,3.6 0.35,0.82 0.88,1.3 1.54,1.42 0.68,0.13 1.61,-0.1 2.77,-0.65 1.15,-0.53 2.72,-1.37 4.72,-2.52 1.69,-0.98 2.99,-1.78 3.9,-2.41 0.91,-0.61 1.56,-1.17 1.98,-1.66 0.4,-0.49 0.61,-0.95 0.59,-1.45 0,-0.48 -0.08,-1.06 -0.2,-1.71 l -14.41,-65.08 0.04,-0.02 48.67,44.92 c 0.52,0.55 0.97,0.94 1.43,1.2 0.44,0.25 1.01,0.35 1.65,0.26 0.66,-0.08 1.52,-0.38 2.55,-0.88 1.03,-0.49 2.43,-1.24 4.14,-2.23 1.69,-0.98 2.98,-1.8 3.86,-2.46 0.87,-0.65 1.36,-1.29 1.47,-1.93 0.1,-0.61 -0.14,-1.27 -0.72,-1.97 -0.57,-0.69 -1.45,-1.57 -2.63,-2.6 l -57.84,-51.01" /><path
         id="path40"
         style="fill:#292b2c;fill-opacity:1;fill-rule:evenodd;stroke:none"
         d="m 2047.75,2159.63 c -0.2,-0.35 -0.53,-0.61 -0.94,-0.76 -0.4,-0.17 -0.93,-0.18 -1.6,-0.03 -0.65,0.13 -1.47,0.4 -2.46,0.82 -0.99,0.42 -2.19,1.04 -3.62,1.87 -1.39,0.8 -2.53,1.53 -3.4,2.19 -0.88,0.65 -1.54,1.24 -1.98,1.74 -0.45,0.49 -0.7,0.96 -0.77,1.4 -0.09,0.43 0,0.83 0.2,1.19 l 38.93,67.41 c 0.2,0.36 0.51,0.63 0.92,0.77 0.42,0.16 0.95,0.18 1.63,0.01 0.68,-0.13 1.5,-0.41 2.49,-0.83 0.98,-0.42 2.19,-1.03 3.58,-1.84 1.43,-0.82 2.56,-1.55 3.42,-2.2 0.86,-0.65 1.51,-1.22 1.94,-1.73 0.47,-0.49 0.72,-0.96 0.77,-1.39 0.09,-0.43 0.02,-0.84 -0.18,-1.2 l -38.93,-67.42" /><path
         id="path42"
         style="fill:#292b2c;fill-opacity:1;fill-rule:evenodd;stroke:none"
         d="m 2077.88,2142.25 c -0.21,-0.36 -0.54,-0.62 -0.95,-0.77 -0.39,-0.17 -0.93,-0.18 -1.59,-0.03 -0.66,0.13 -1.48,0.4 -2.47,0.82 -0.99,0.42 -2.19,1.04 -3.62,1.87 -1.39,0.8 -2.53,1.53 -3.4,2.19 -0.88,0.65 -1.54,1.24 -1.98,1.74 -0.45,0.48 -0.7,0.96 -0.77,1.4 -0.08,0.42 0,0.83 0.2,1.19 l 38.93,67.41 c 0.2,0.36 0.51,0.63 0.92,0.77 0.42,0.16 0.96,0.18 1.64,0.01 0.67,-0.14 1.49,-0.41 2.48,-0.83 0.98,-0.42 2.18,-1.04 3.58,-1.84 1.43,-0.82 2.56,-1.55 3.42,-2.2 0.86,-0.65 1.5,-1.22 1.94,-1.72 0.47,-0.5 0.72,-0.97 0.77,-1.4 0.09,-0.43 0.02,-0.84 -0.18,-1.2 l -38.92,-67.41" /><path
         id="path44"
         style="fill:#292b2c;fill-opacity:1;fill-rule:evenodd;stroke:none"
         d="m 2168.93,2028.91 c -0.35,-0.22 -0.77,-0.29 -1.19,-0.23 -0.43,0.04 -0.92,0.28 -1.42,0.74 -0.52,0.42 -1.11,1.05 -1.78,1.89 -0.67,0.84 -1.43,1.95 -2.3,3.36 -0.84,1.37 -1.49,2.55 -1.95,3.54 -0.46,1 -0.77,1.83 -0.91,2.48 -0.17,0.64 -0.17,1.18 -0.02,1.6 0.13,0.41 0.39,0.73 0.75,0.94 l 66.28,40.83 c 0.35,0.21 0.75,0.31 1.18,0.24 0.44,-0.06 0.92,-0.3 1.44,-0.77 0.53,-0.44 1.12,-1.07 1.79,-1.91 0.67,-0.84 1.43,-1.95 2.27,-3.32 0.87,-1.41 1.52,-2.59 1.97,-3.57 0.45,-0.97 0.75,-1.78 0.89,-2.44 0.18,-0.65 0.18,-1.19 0.02,-1.59 -0.13,-0.41 -0.39,-0.75 -0.74,-0.97 l -66.28,-40.82" /><path
         id="path46"
         style="fill:#292b2c;fill-opacity:1;fill-rule:evenodd;stroke:none"
         d="m 2200.41,1979.04 c -0.72,-0.2 -1.37,-0.26 -1.93,-0.22 -0.55,0.06 -1.13,0.34 -1.73,0.86 -0.6,0.56 -1.27,1.35 -2.02,2.44 -0.75,1.1 -1.69,2.54 -2.79,4.33 -0.89,1.45 -1.64,2.7 -2.26,3.75 -0.62,1.04 -1.11,1.94 -1.48,2.7 -0.38,0.77 -0.63,1.43 -0.75,1.97 -0.14,0.55 -0.2,1.02 -0.18,1.47 0.04,0.44 0.16,0.84 0.37,1.2 0.19,0.35 0.49,0.74 0.88,1.18 l 49.33,59.18 c 1.03,1.23 1.91,2.12 2.61,2.69 0.7,0.55 1.39,0.72 2.04,0.51 0.66,-0.21 1.36,-0.85 2.13,-1.89 0.75,-1.01 1.74,-2.49 2.94,-4.46 1.03,-1.66 1.79,-2.98 2.3,-3.97 0.5,-0.97 0.81,-1.77 0.95,-2.4 0.12,-0.62 0.07,-1.13 -0.17,-1.56 -0.22,-0.42 -0.57,-0.89 -1,-1.41 l -43.6,-50.41 0.03,-0.04 64.17,16.39 c 0.72,0.24 1.3,0.37 1.83,0.39 0.51,0 1.05,-0.17 1.57,-0.56 0.54,-0.39 1.16,-1.05 1.84,-1.99 0.66,-0.92 1.53,-2.24 2.57,-3.93 1.03,-1.67 1.77,-2.99 2.23,-3.99 0.46,-0.99 0.59,-1.78 0.38,-2.39 -0.21,-0.59 -0.73,-1.07 -1.57,-1.4 -0.84,-0.34 -2.03,-0.69 -3.55,-1.04 l -75.14,-17.4" /><path
         id="path48"
         style="fill:#292b2c;fill-opacity:1;fill-rule:evenodd;stroke:none"
         d="m 2161.04,2094.39 13.92,10.65 -5.46,4.71 9.75,7.45 5.55,-4.64 19.11,14.61 2.82,-3.69 -18.33,-14.01 7.67,-6.79 19.01,14.53 2.82,-3.69 -18.23,-13.93 5.53,-5.01 -9.63,-7.37 -5.84,4.77 -13.92,-10.64 5.61,-4.95 -10.04,-7.68 -5.61,4.95 -18.32,-14.01 -2.82,3.69 17.52,13.4 -7.86,6.65 -19.02,-14.55 -2.82,3.69 18.32,14.01 -5.44,4.73 10.04,7.67 z m 11.25,-9.9 14.03,10.73 -7.76,6.73 -13.94,-10.66 7.67,-6.8" /><path
         id="path50"
         style="fill:#292b2c;fill-opacity:1;fill-rule:evenodd;stroke:none"
         d="M 1.12109,3615.79 H 56.918 v -55.8 H 1.12109 v 55.8" /><path
         id="path52"
         style="fill:#292b2c;fill-opacity:1;fill-rule:evenodd;stroke:none"
         d="m 3556.5,3615.79 h 55.79 v -55.8 h -55.79 v 55.8" /><path
         id="path54"
         style="fill:#292b2c;fill-opacity:1;fill-rule:evenodd;stroke:none"
         d="M 1.12109,60.4102 H 56.918 V 4.61328 H 1.12109 V 60.4102" /><path
         id="path56"
         style="fill:#292b2c;fill-opacity:1;fill-rule:evenodd;stroke:none"
         d="m 3556.5,60.4102 h 55.79 V 4.61328 H 3556.5 V 60.4102" /></g></g></svg>