<?xml version="1.0" encoding="UTF-8" standalone="no"?>
<svg
   xmlns:dc="http://purl.org/dc/elements/1.1/"
   xmlns:cc="http://creativecommons.org/ns#"
   xmlns:rdf="http://www.w3.org/1999/02/22-rdf-syntax-ns#"
   xmlns:svg="http://www.w3.org/2000/svg"
   xmlns="http://www.w3.org/2000/svg"
   viewBox="0 0 482.66666 482.66666"
   height="482.66666"
   width="482.66666"
   xml:space="preserve"
   id="svg2"
   version="1.1"><metadata
     id="metadata8"><rdf:RDF><cc:Work
         rdf:about=""><dc:format>image/svg+xml</dc:format><dc:type
           rdf:resource="http://purl.org/dc/dcmitype/StillImage" /></cc:Work></rdf:RDF></metadata><defs
     id="defs6" /><g
     transform="matrix(1.3333333,0,0,-1.3333333,0,482.66667)"
     id="g10"><g
       transform="scale(0.1)"
       id="g12"><path
         id="path14"
         style="fill:#f4f4f4;fill-opacity:1;fill-rule:evenodd;stroke:none"
         d="m 1823.25,3043.85 c 0,-0.37 -0.1,-0.72 -0.3,-1.02 -0.2,-0.3 -0.53,-0.53 -1.03,-0.7 -0.47,-0.18 -1.1,-0.3 -1.85,-0.43 -0.77,-0.12 -1.75,-0.2 -2.97,-0.2 -1.13,0 -2.1,0.08 -2.9,0.2 -0.8,0.13 -1.43,0.25 -1.9,0.43 -0.48,0.17 -0.8,0.4 -1,0.7 -0.18,0.3 -0.28,0.65 -0.28,1.02 v 82.55 h -0.15 l -33.77,-82.9 c -0.15,-0.35 -0.35,-0.65 -0.63,-0.9 -0.25,-0.22 -0.65,-0.45 -1.15,-0.62 -0.52,-0.15 -1.12,-0.28 -1.85,-0.35 -0.7,-0.08 -1.55,-0.13 -2.52,-0.13 -1.03,0 -1.9,0.05 -2.63,0.15 -0.75,0.1 -1.35,0.25 -1.85,0.4 -0.47,0.18 -0.85,0.4 -1.12,0.63 -0.28,0.25 -0.45,0.52 -0.55,0.82 l -32.3,82.9 h -0.08 v -82.55 c 0,-0.37 -0.1,-0.72 -0.3,-1.02 -0.17,-0.3 -0.52,-0.53 -1.02,-0.7 -0.48,-0.18 -1.1,-0.3 -1.9,-0.43 -0.78,-0.12 -1.78,-0.2 -3,-0.2 -1.18,0 -2.15,0.08 -2.93,0.2 -0.77,0.13 -1.4,0.25 -1.87,0.43 -0.45,0.17 -0.78,0.4 -0.95,0.7 -0.18,0.3 -0.25,0.65 -0.25,1.02 v 87.18 c 0,2.05 0.52,3.5 1.6,4.37 1.07,0.88 2.27,1.33 3.6,1.33 h 7.62 c 1.55,0 2.93,-0.15 4.1,-0.45 1.18,-0.28 2.2,-0.75 3.08,-1.37 0.87,-0.66 1.6,-1.46 2.2,-2.43 0.57,-0.98 1.1,-2.13 1.52,-3.45 l 27.48,-68.62 h 0.35 l 28.57,68.42 c 0.53,1.45 1.13,2.7 1.75,3.72 0.65,1.03 1.35,1.85 2.1,2.45 0.75,0.63 1.6,1.05 2.53,1.33 0.92,0.28 2,0.4 3.22,0.4 h 7.98 c 0.73,0 1.42,-0.1 2.1,-0.32 0.65,-0.23 1.2,-0.58 1.67,-1.03 0.48,-0.47 0.85,-1.05 1.13,-1.75 0.3,-0.72 0.45,-1.58 0.45,-2.6 v -87.18" /><path
         id="path16"
         style="fill:#f4f4f4;fill-opacity:1;fill-rule:evenodd;stroke:none"
         d="m 1904.93,3131.3 c 0,-0.87 -0.05,-1.67 -0.13,-2.37 -0.08,-0.7 -0.17,-1.4 -0.28,-2.05 -0.12,-0.65 -0.3,-1.3 -0.52,-1.9 -0.23,-0.62 -0.48,-1.25 -0.78,-1.95 l -34.12,-78.65 c -0.25,-0.6 -0.55,-1.08 -0.92,-1.43 -0.36,-0.37 -0.83,-0.67 -1.38,-0.9 -0.58,-0.2 -1.28,-0.35 -2.18,-0.42 -0.87,-0.08 -1.95,-0.13 -3.22,-0.13 -1.65,0 -2.95,0.08 -3.88,0.23 -0.92,0.15 -1.59,0.37 -2,0.7 -0.42,0.32 -0.6,0.7 -0.55,1.17 0.05,0.45 0.21,1 0.5,1.65 l 35.91,80.43 h -45.5 c -0.93,0 -1.63,0.48 -2.08,1.45 -0.48,0.98 -0.7,2.35 -0.7,4.1 0,0.93 0.05,1.75 0.17,2.42 0.13,0.68 0.33,1.26 0.55,1.73 0.25,0.45 0.55,0.8 0.88,1.03 0.35,0.22 0.75,0.32 1.18,0.32 h 55.22 c 0.7,0 1.3,-0.07 1.8,-0.23 0.53,-0.14 0.9,-0.42 1.17,-0.87 0.28,-0.45 0.48,-1 0.63,-1.68 0.15,-0.7 0.23,-1.57 0.23,-2.65" /><path
         id="path18"
         style="fill:#f4f4f4;fill-opacity:1;fill-rule:evenodd;stroke:none"
         d="m 1823.25,2387.47 c 0,-0.38 -0.1,-0.72 -0.3,-1.02 -0.2,-0.3 -0.53,-0.53 -1.03,-0.7 -0.47,-0.18 -1.1,-0.3 -1.85,-0.43 -0.77,-0.12 -1.75,-0.2 -2.98,-0.2 -1.12,0 -2.09,0.08 -2.89,0.2 -0.81,0.13 -1.43,0.25 -1.9,0.43 -0.48,0.17 -0.8,0.4 -1,0.7 -0.18,0.3 -0.28,0.64 -0.28,1.02 v 82.55 h -0.15 l -33.77,-82.9 c -0.15,-0.35 -0.35,-0.65 -0.63,-0.9 -0.25,-0.22 -0.65,-0.45 -1.15,-0.62 -0.52,-0.15 -1.12,-0.28 -1.85,-0.35 -0.7,-0.08 -1.55,-0.13 -2.52,-0.13 -1.03,0 -1.9,0.05 -2.63,0.15 -0.75,0.1 -1.35,0.25 -1.85,0.4 -0.47,0.18 -0.85,0.4 -1.13,0.63 -0.27,0.25 -0.45,0.52 -0.55,0.82 l -32.29,82.9 h -0.08 v -82.55 c 0,-0.38 -0.1,-0.72 -0.3,-1.02 -0.17,-0.3 -0.53,-0.53 -1.03,-0.7 -0.47,-0.18 -1.09,-0.3 -1.89,-0.43 -0.78,-0.12 -1.78,-0.2 -3,-0.2 -1.18,0 -2.15,0.08 -2.93,0.2 -0.77,0.13 -1.4,0.25 -1.88,0.43 -0.44,0.17 -0.77,0.4 -0.94,0.7 -0.18,0.3 -0.25,0.64 -0.25,1.02 v 87.18 c 0,2.05 0.52,3.5 1.59,4.37 1.08,0.88 2.28,1.33 3.6,1.33 h 7.63 c 1.55,0 2.93,-0.15 4.1,-0.45 1.18,-0.28 2.2,-0.75 3.08,-1.38 0.87,-0.65 1.6,-1.45 2.19,-2.42 0.58,-0.98 1.11,-2.13 1.53,-3.45 l 27.47,-68.63 h 0.36 l 28.57,68.43 c 0.53,1.45 1.13,2.69 1.75,3.72 0.65,1.03 1.35,1.85 2.1,2.45 0.75,0.63 1.6,1.05 2.53,1.33 0.92,0.27 2,0.4 3.22,0.4 h 7.98 c 0.72,0 1.42,-0.1 2.1,-0.33 0.65,-0.22 1.2,-0.57 1.67,-1.02 0.47,-0.48 0.85,-1.05 1.13,-1.75 0.29,-0.73 0.45,-1.58 0.45,-2.6 v -87.18" /><path
         id="path20"
         style="fill:#f4f4f4;fill-opacity:1;fill-rule:evenodd;stroke:none"
         d="m 1904.92,2474.92 c 0,-0.87 -0.04,-1.67 -0.12,-2.37 -0.08,-0.7 -0.18,-1.4 -0.28,-2.05 -0.12,-0.65 -0.3,-1.3 -0.52,-1.9 -0.23,-0.63 -0.48,-1.25 -0.78,-1.95 L 1869.1,2388 c -0.25,-0.6 -0.55,-1.08 -0.93,-1.43 -0.35,-0.37 -0.82,-0.68 -1.37,-0.9 -0.58,-0.2 -1.28,-0.35 -2.18,-0.42 -0.87,-0.08 -1.95,-0.13 -3.23,-0.13 -1.64,0 -2.94,0.08 -3.87,0.22 -0.92,0.16 -1.6,0.38 -2,0.71 -0.42,0.32 -0.6,0.7 -0.55,1.17 0.05,0.45 0.2,1 0.5,1.65 l 35.9,80.43 h -45.5 c -0.92,0 -1.62,0.47 -2.07,1.45 -0.48,0.97 -0.7,2.35 -0.7,4.1 0,0.92 0.04,1.75 0.17,2.42 0.13,0.68 0.33,1.25 0.55,1.73 0.25,0.45 0.55,0.8 0.88,1.02 0.35,0.23 0.75,0.33 1.17,0.33 h 55.23 c 0.7,0 1.3,-0.08 1.8,-0.22 0.52,-0.16 0.9,-0.43 1.17,-0.88 0.28,-0.45 0.48,-1 0.63,-1.68 0.15,-0.7 0.22,-1.57 0.22,-2.65" /><path
         id="path22"
         style="fill:#f4f4f4;fill-opacity:1;fill-rule:evenodd;stroke:none"
         d="m 1502.52,2402.21 c 0.44,-0.76 0.8,-1.48 1.09,-2.12 0.28,-0.64 0.55,-1.3 0.79,-1.91 0.22,-0.63 0.39,-1.27 0.5,-1.9 0.12,-0.66 0.22,-1.33 0.31,-2.08 l 9.97,-85.15 c 0.09,-0.65 0.07,-1.21 -0.08,-1.7 -0.12,-0.5 -0.38,-1 -0.74,-1.47 -0.4,-0.46 -0.93,-0.94 -1.67,-1.46 -0.72,-0.51 -1.62,-1.09 -2.73,-1.72 -1.42,-0.83 -2.58,-1.42 -3.46,-1.76 -0.87,-0.33 -1.57,-0.48 -2.08,-0.4 -0.53,0.07 -0.87,0.31 -1.06,0.74 -0.19,0.42 -0.33,0.97 -0.4,1.68 l -9.33,87.58 -39.35,-22.84 c -0.8,-0.47 -1.64,-0.41 -2.52,0.21 -0.9,0.61 -1.79,1.68 -2.67,3.2 -0.46,0.8 -0.83,1.53 -1.06,2.18 -0.23,0.65 -0.35,1.25 -0.39,1.77 -0.01,0.51 0.07,0.96 0.24,1.32 0.19,0.37 0.48,0.66 0.85,0.87 l 47.76,27.73 c 0.61,0.35 1.17,0.59 1.67,0.71 0.53,0.13 0.99,0.08 1.46,-0.17 0.46,-0.25 0.91,-0.62 1.38,-1.13 0.48,-0.53 0.98,-1.25 1.52,-2.18" /><path
         id="path24"
         style="fill:#f4f4f4;fill-opacity:1;fill-rule:evenodd;stroke:none"
         d="m 2164.35,2371.54 c -0.43,-0.77 -0.87,-1.44 -1.28,-2.01 -0.41,-0.57 -0.84,-1.13 -1.25,-1.65 -0.43,-0.5 -0.9,-0.98 -1.39,-1.39 -0.51,-0.44 -1.04,-0.85 -1.64,-1.31 l -68.5,-51.57 c -0.51,-0.4 -1.01,-0.66 -1.5,-0.78 -0.5,-0.16 -1.06,-0.19 -1.65,-0.11 -0.6,0.11 -1.28,0.33 -2.1,0.71 -0.79,0.36 -1.75,0.85 -2.86,1.48 -1.44,0.81 -2.53,1.52 -3.26,2.11 -0.74,0.58 -1.21,1.11 -1.4,1.59 -0.21,0.5 -0.17,0.91 0.11,1.3 0.26,0.36 0.66,0.77 1.25,1.18 l 70.91,52.24 -39.58,22.45 c -0.8,0.46 -1.17,1.22 -1.08,2.29 0.07,1.08 0.55,2.39 1.41,3.91 0.46,0.81 0.91,1.5 1.35,2.02 0.44,0.53 0.9,0.93 1.33,1.23 0.44,0.27 0.87,0.43 1.27,0.46 0.41,0.02 0.81,-0.08 1.18,-0.3 l 48.03,-27.25 c 0.61,-0.35 1.1,-0.71 1.46,-1.09 0.38,-0.38 0.57,-0.81 0.59,-1.34 0.02,-0.52 -0.08,-1.1 -0.29,-1.76 -0.21,-0.68 -0.58,-1.48 -1.11,-2.41" /><path
         id="path26"
         style="fill:#f4f4f4;fill-opacity:1;fill-rule:evenodd;stroke:none"
         d="m 2397.99,2115.72 c -0.75,-0.44 -1.47,-0.8 -2.11,-1.09 -0.65,-0.29 -1.3,-0.55 -1.91,-0.79 -0.63,-0.22 -1.27,-0.4 -1.91,-0.51 -0.65,-0.12 -1.32,-0.22 -2.07,-0.31 l -85.14,-10.15 c -0.64,-0.08 -1.21,-0.07 -1.69,0.08 -0.5,0.11 -1,0.37 -1.47,0.74 -0.47,0.39 -0.95,0.92 -1.47,1.66 -0.51,0.72 -1.09,1.62 -1.73,2.72 -0.83,1.43 -1.42,2.59 -1.76,3.46 -0.34,0.88 -0.48,1.57 -0.4,2.08 0.06,0.53 0.3,0.87 0.74,1.07 0.41,0.18 0.96,0.33 1.68,0.4 l 87.55,9.51 -22.92,39.3 c -0.47,0.81 -0.41,1.65 0.21,2.53 0.6,0.9 1.68,1.79 3.19,2.67 0.8,0.46 1.53,0.84 2.18,1.07 0.65,0.23 1.24,0.35 1.77,0.39 0.51,0.02 0.97,-0.07 1.32,-0.24 0.37,-0.18 0.66,-0.48 0.88,-0.85 l 27.82,-47.7 c 0.35,-0.61 0.59,-1.16 0.71,-1.67 0.14,-0.53 0.09,-0.99 -0.16,-1.46 -0.25,-0.46 -0.62,-0.91 -1.13,-1.38 -0.53,-0.48 -1.25,-0.99 -2.18,-1.53" /><path
         id="path28"
         style="fill:#f4f4f4;fill-opacity:1;fill-rule:evenodd;stroke:none"
         d="m 2471.53,1779.98 c -0.88,0 -1.68,0.04 -2.38,0.12 -0.7,0.07 -1.4,0.16 -2.05,0.26 -0.65,0.12 -1.3,0.29 -1.9,0.51 -0.63,0.22 -1.25,0.47 -1.96,0.77 l -78.84,33.68 c -0.6,0.24 -1.08,0.54 -1.43,0.91 -0.38,0.35 -0.68,0.82 -0.91,1.37 -0.2,0.58 -0.36,1.28 -0.44,2.17 -0.08,0.88 -0.14,1.95 -0.14,3.23 -0.01,1.65 0.06,2.95 0.2,3.88 0.14,0.92 0.37,1.6 0.69,2 0.32,0.42 0.7,0.6 1.17,0.56 0.45,-0.05 1,-0.2 1.66,-0.49 l 80.62,-35.45 -0.25,45.5 c -0.01,0.93 0.46,1.63 1.43,2.09 0.98,0.48 2.35,0.71 4.1,0.72 0.93,0 1.75,-0.04 2.43,-0.16 0.67,-0.12 1.25,-0.32 1.72,-0.54 0.46,-0.25 0.81,-0.55 1.04,-0.87 0.22,-0.35 0.32,-0.75 0.33,-1.17 l 0.31,-55.23 c 0,-0.7 -0.07,-1.3 -0.22,-1.8 -0.14,-0.53 -0.41,-0.9 -0.86,-1.18 -0.45,-0.28 -1,-0.48 -1.67,-0.63 -0.7,-0.16 -1.58,-0.24 -2.65,-0.25" /><path
         id="path30"
         style="fill:#f4f4f4;fill-opacity:1;fill-rule:evenodd;stroke:none"
         d="m 2113.43,1219.68 c -0.45,0.75 -0.81,1.47 -1.09,2.11 -0.29,0.64 -0.56,1.3 -0.8,1.91 -0.22,0.62 -0.4,1.27 -0.51,1.9 -0.12,0.66 -0.23,1.32 -0.32,2.08 l -10.33,85.11 c -0.09,0.64 -0.08,1.21 0.07,1.69 0.11,0.51 0.37,1.01 0.73,1.48 0.4,0.46 0.92,0.95 1.66,1.47 0.72,0.5 1.62,1.09 2.72,1.73 1.42,0.84 2.58,1.43 3.46,1.77 0.87,0.34 1.57,0.48 2.08,0.41 0.53,-0.07 0.87,-0.3 1.07,-0.74 0.18,-0.41 0.33,-0.96 0.4,-1.67 l 9.7,-87.54 39.26,23.01 c 0.79,0.47 1.64,0.41 2.52,-0.2 0.9,-0.61 1.79,-1.68 2.68,-3.19 0.47,-0.8 0.84,-1.53 1.07,-2.18 0.24,-0.65 0.36,-1.24 0.4,-1.76 0.01,-0.52 -0.07,-0.97 -0.24,-1.33 -0.18,-0.37 -0.48,-0.66 -0.85,-0.88 l -47.64,-27.93 c -0.6,-0.35 -1.16,-0.59 -1.67,-0.72 -0.52,-0.13 -0.99,-0.08 -1.45,0.17 -0.47,0.25 -0.92,0.62 -1.39,1.13 -0.48,0.53 -0.99,1.24 -1.53,2.17" /><path
         id="path32"
         style="fill:#292b2c;fill-opacity:1;fill-rule:evenodd;stroke:none"
         d="M 1.12109,3615.79 H 56.918 v -55.8 H 1.12109 v 55.8" /><path
         id="path34"
         style="fill:#292b2c;fill-opacity:1;fill-rule:evenodd;stroke:none"
         d="m 3556.5,3615.79 h 55.79 v -55.8 h -55.79 v 55.8" /><path
         id="path36"
         style="fill:#292b2c;fill-opacity:1;fill-rule:evenodd;stroke:none"
         d="M 1.12109,60.4102 H 56.918 V 4.61328 H 1.12109 V 60.4102" /><path
         id="path38"
         style="fill:#292b2c;fill-opacity:1;fill-rule:evenodd;stroke:none"
         d="m 3556.5,60.4102 h 55.79 V 4.61328 H 3556.5 V 60.4102" /></g></g></svg>