<?xml version="1.0" encoding="UTF-8" standalone="no"?>
<svg
   xmlns:dc="http://purl.org/dc/elements/1.1/"
   xmlns:cc="http://creativecommons.org/ns#"
   xmlns:rdf="http://www.w3.org/1999/02/22-rdf-syntax-ns#"
   xmlns:svg="http://www.w3.org/2000/svg"
   xmlns="http://www.w3.org/2000/svg"
   viewBox="0 0 482.66666 482.66666"
   height="482.66666"
   width="482.66666"
   xml:space="preserve"
   id="svg2"
   version="1.1"><metadata
     id="metadata8"><rdf:RDF><cc:Work
         rdf:about=""><dc:format>image/svg+xml</dc:format><dc:type
           rdf:resource="http://purl.org/dc/dcmitype/StillImage" /></cc:Work></rdf:RDF></metadata><defs
     id="defs6" /><g
     transform="matrix(1.3333333,0,0,-1.3333333,0,482.66667)"
     id="g10"><g
       transform="scale(0.1)"
       id="g12"><path
         id="path14"
         style="fill:#f4f4f4;fill-opacity:1;fill-rule:evenodd;stroke:none"
         d="m 2317.28,1947.19 c -62.36,225.99 -270,392.79 -515.36,392.79 -144.88,0 -272.32,-60.12 -368.76,-154.3 l 92.24,-93.64 c 72.17,72.05 171.69,116.71 281.3,116.71 184,0 339.55,-125.83 385.03,-295.82 l 125.55,34.26" /><path
         id="path16"
         style="fill:#f4f4f4;fill-opacity:1;fill-rule:evenodd;stroke:none"
         d="m 2644,2647.57 -91.93,-91.93 c -191.11,191.11 -454.84,309.59 -745.37,309.59 -290.52,0 -554.25,-118.48 -745.36,-309.59 l -91.93,91.93 c 214.68,214.68 510.94,347.77 837.29,347.77 326.36,0 622.62,-133.09 837.3,-347.77" /><path
         id="path18"
         style="fill:#292b2c;fill-opacity:1;fill-rule:evenodd;stroke:none"
         d="m 2327.32,2712.68 c 37.3,-21.53 85.28,-8.67 106.81,28.62 21.54,37.3 8.68,85.28 -28.61,106.82 -37.31,21.53 -85.28,8.67 -106.82,-28.62 -21.53,-37.3 -8.67,-85.28 28.62,-106.82 z m 5.34,9.25 c 32.21,-18.6 73.64,-7.5 92.23,24.71 18.6,32.21 7.5,73.64 -24.71,92.24 -32.21,18.59 -73.64,7.49 -92.23,-24.72 -18.6,-32.21 -7.5,-73.64 24.71,-92.23" /><path
         id="path20"
         style="fill:#292b2c;fill-opacity:1;fill-rule:evenodd;stroke:none"
         d="m 1781.05,2890.17 c 0,-0.42 -0.15,-0.81 -0.43,-1.13 -0.26,-0.35 -0.72,-0.63 -1.37,-0.83 -0.63,-0.22 -1.48,-0.39 -2.55,-0.52 -1.06,-0.13 -2.41,-0.19 -4.06,-0.19 -1.61,0 -2.96,0.06 -4.05,0.19 -1.08,0.13 -1.95,0.3 -2.58,0.52 -0.63,0.2 -1.09,0.48 -1.37,0.83 -0.28,0.32 -0.41,0.71 -0.41,1.13 v 77.84 c 0,0.42 0.13,0.81 0.41,1.13 0.28,0.35 0.74,0.63 1.41,0.83 0.65,0.21 1.5,0.39 2.57,0.52 1.06,0.13 2.41,0.19 4.02,0.19 1.65,0 3,-0.06 4.06,-0.19 1.07,-0.13 1.92,-0.31 2.55,-0.52 0.65,-0.2 1.11,-0.48 1.37,-0.83 0.28,-0.32 0.43,-0.71 0.43,-1.13 v -77.84" /><path
         id="path22"
         style="fill:#292b2c;fill-opacity:1;fill-rule:evenodd;stroke:none"
         d="m 1840.03,2890.82 c -0.22,-0.72 -0.51,-1.3 -0.83,-1.76 -0.35,-0.43 -0.89,-0.79 -1.65,-1.02 -0.78,-0.22 -1.81,-0.37 -3.13,-0.44 -1.33,-0.06 -3.05,-0.1 -5.15,-0.1 -1.7,0 -3.16,0.02 -4.38,0.04 -1.21,0.02 -2.23,0.06 -3.08,0.15 -0.85,0.09 -1.54,0.22 -2.07,0.39 -0.54,0.17 -0.97,0.37 -1.35,0.63 -0.34,0.26 -0.62,0.56 -0.82,0.93 -0.19,0.35 -0.37,0.81 -0.54,1.38 l -24.53,73.03 c -0.5,1.53 -0.8,2.74 -0.91,3.63 -0.11,0.89 0.11,1.57 0.63,2 0.53,0.46 1.44,0.72 2.72,0.83 1.26,0.11 3.04,0.17 5.35,0.17 1.96,0 3.48,-0.04 4.59,-0.13 1.08,-0.08 1.93,-0.23 2.54,-0.45 0.58,-0.22 1,-0.52 1.24,-0.96 0.23,-0.41 0.45,-0.95 0.67,-1.59 l 20.06,-63.56 h 0.05 l 19.69,63.24 c 0.18,0.74 0.37,1.3 0.64,1.76 0.25,0.44 0.69,0.8 1.3,1.04 0.61,0.26 1.5,0.44 2.65,0.52 1.13,0.09 2.72,0.13 4.69,0.13 1.97,0 3.48,-0.06 4.57,-0.19 1.09,-0.13 1.83,-0.44 2.24,-0.94 0.39,-0.47 0.52,-1.17 0.37,-2.06 -0.15,-0.89 -0.48,-2.09 -0.98,-3.57 l -24.58,-73.1" /><path
         id="path24"
         style="fill:#292b2c;fill-opacity:1;fill-rule:evenodd;stroke:none"
         d="m 2355.48,2740.89 c -0.2,-0.35 -0.53,-0.62 -0.93,-0.76 -0.4,-0.17 -0.94,-0.19 -1.6,-0.03 -0.66,0.12 -1.48,0.39 -2.47,0.81 -0.99,0.41 -2.19,1.03 -3.62,1.85 -1.4,0.8 -2.54,1.53 -3.41,2.19 -0.88,0.65 -1.55,1.23 -1.99,1.73 -0.44,0.49 -0.7,0.96 -0.77,1.4 -0.08,0.43 0,0.83 0.2,1.19 l 38.74,67.52 c 0.21,0.35 0.51,0.63 0.92,0.77 0.42,0.16 0.96,0.18 1.64,0.02 0.67,-0.14 1.49,-0.41 2.49,-0.83 0.98,-0.41 2.18,-1.03 3.58,-1.83 1.43,-0.82 2.57,-1.55 3.43,-2.19 0.86,-0.64 1.51,-1.22 1.95,-1.72 0.46,-0.49 0.72,-0.97 0.77,-1.4 0.08,-0.42 0.02,-0.84 -0.18,-1.2 l -38.75,-67.52" /><path
         id="path26"
         style="fill:#292b2c;fill-opacity:1;fill-rule:evenodd;stroke:none"
         d="m 1798.37,2233.36 c 0,-0.42 -0.15,-0.81 -0.43,-1.13 -0.26,-0.35 -0.72,-0.64 -1.37,-0.83 -0.63,-0.22 -1.48,-0.39 -2.54,-0.52 -1.07,-0.13 -2.42,-0.2 -4.07,-0.2 -1.61,0 -2.96,0.07 -4.04,0.2 -1.09,0.13 -1.96,0.3 -2.59,0.52 -0.63,0.19 -1.09,0.48 -1.37,0.83 -0.28,0.32 -0.41,0.71 -0.41,1.13 v 77.84 c 0,0.41 0.13,0.8 0.41,1.13 0.28,0.35 0.74,0.63 1.42,0.83 0.64,0.21 1.5,0.39 2.56,0.52 1.06,0.13 2.41,0.2 4.02,0.2 1.65,0 3,-0.07 4.07,-0.2 1.06,-0.13 1.91,-0.31 2.54,-0.52 0.65,-0.2 1.11,-0.48 1.37,-0.83 0.28,-0.33 0.43,-0.72 0.43,-1.13 v -77.84" /><path
         id="path28"
         style="fill:#292b2c;fill-opacity:1;fill-rule:evenodd;stroke:none"
         d="m 1833.15,2233.36 c 0,-0.42 -0.15,-0.81 -0.43,-1.13 -0.26,-0.35 -0.72,-0.64 -1.37,-0.83 -0.63,-0.22 -1.48,-0.39 -2.55,-0.52 -1.06,-0.13 -2.41,-0.2 -4.06,-0.2 -1.61,0 -2.95,0.07 -4.04,0.2 -1.09,0.13 -1.96,0.3 -2.59,0.52 -0.63,0.19 -1.09,0.48 -1.37,0.83 -0.28,0.32 -0.41,0.71 -0.41,1.13 v 77.84 c 0,0.41 0.13,0.8 0.41,1.13 0.28,0.35 0.74,0.63 1.41,0.83 0.65,0.21 1.5,0.39 2.57,0.52 1.07,0.13 2.41,0.2 4.02,0.2 1.65,0 3,-0.07 4.06,-0.2 1.07,-0.13 1.92,-0.31 2.55,-0.52 0.65,-0.2 1.11,-0.48 1.37,-0.83 0.28,-0.33 0.43,-0.72 0.43,-1.13 v -77.84" /><path
         id="path30"
         style="fill:#292b2c;fill-opacity:1;fill-rule:evenodd;stroke:none"
         d="m 1603.77,2182.59 c 0.18,-0.73 0.23,-1.38 0.18,-1.94 -0.07,-0.55 -0.36,-1.13 -0.89,-1.72 -0.56,-0.59 -1.36,-1.24 -2.47,-1.98 -1.11,-0.73 -2.56,-1.65 -4.37,-2.72 -1.46,-0.87 -2.72,-1.6 -3.78,-2.2 -1.06,-0.6 -1.96,-1.09 -2.73,-1.45 -0.77,-0.36 -1.44,-0.6 -1.98,-0.72 -0.55,-0.13 -1.03,-0.18 -1.48,-0.15 -0.43,0.05 -0.83,0.17 -1.18,0.38 -0.35,0.2 -0.73,0.51 -1.17,0.9 l -58.42,50.24 c -1.21,1.05 -2.09,1.94 -2.64,2.65 -0.55,0.71 -0.71,1.41 -0.48,2.05 0.21,0.65 0.86,1.34 1.91,2.09 1.03,0.74 2.53,1.71 4.51,2.89 1.68,1 3.01,1.74 4.01,2.23 0.98,0.48 1.78,0.79 2.42,0.91 0.61,0.11 1.12,0.06 1.55,-0.19 0.42,-0.23 0.88,-0.59 1.39,-1.02 l 49.74,-44.37 0.04,0.02 -15.41,64.42 c -0.22,0.73 -0.34,1.31 -0.35,1.84 0,0.5 0.19,1.05 0.58,1.56 0.39,0.53 1.07,1.14 2.02,1.8 0.92,0.66 2.27,1.51 3.96,2.52 1.69,1 3.03,1.72 4.03,2.17 1,0.44 1.79,0.56 2.4,0.34 0.58,-0.21 1.05,-0.75 1.38,-1.59 0.32,-0.84 0.65,-2.04 0.98,-3.57 l 16.25,-75.39" /><path
         id="path32"
         style="fill:#292b2c;fill-opacity:1;fill-rule:evenodd;stroke:none"
         d="m 2017.3,2177.97 c -0.55,-0.51 -1.09,-0.88 -1.6,-1.11 -0.52,-0.2 -1.16,-0.23 -1.94,-0.06 -0.79,0.2 -1.74,0.58 -2.93,1.19 -1.18,0.61 -2.69,1.43 -4.51,2.48 -1.47,0.85 -2.72,1.6 -3.77,2.23 -1.04,0.62 -1.9,1.17 -2.59,1.67 -0.69,0.5 -1.23,0.96 -1.6,1.37 -0.38,0.42 -0.66,0.81 -0.85,1.22 -0.17,0.4 -0.26,0.81 -0.24,1.22 0,0.4 0.08,0.88 0.21,1.46 l 15.28,75.52 c 0.33,1.56 0.68,2.77 1.03,3.59 0.35,0.83 0.87,1.3 1.55,1.42 0.68,0.13 1.59,-0.1 2.76,-0.64 1.15,-0.54 2.72,-1.37 4.72,-2.52 1.69,-0.98 2.99,-1.78 3.9,-2.41 0.91,-0.62 1.56,-1.17 1.98,-1.67 0.4,-0.48 0.6,-0.95 0.59,-1.45 0,-0.47 -0.08,-1.05 -0.2,-1.71 l -14.41,-65.07 0.04,-0.03 48.67,44.92 c 0.52,0.55 0.97,0.95 1.43,1.21 0.44,0.24 1,0.35 1.65,0.25 0.66,-0.08 1.51,-0.37 2.56,-0.87 1.02,-0.49 2.42,-1.25 4.13,-2.24 1.69,-0.98 2.98,-1.8 3.86,-2.45 0.87,-0.66 1.36,-1.29 1.47,-1.93 0.1,-0.61 -0.14,-1.28 -0.72,-1.97 -0.57,-0.7 -1.45,-1.57 -2.63,-2.6 l -57.84,-51.02" /><path
         id="path34"
         style="fill:#292b2c;fill-opacity:1;fill-rule:evenodd;stroke:none"
         d="m 2062.81,2150.94 c -0.2,-0.36 -0.53,-0.62 -0.94,-0.76 -0.4,-0.17 -0.94,-0.19 -1.6,-0.03 -0.65,0.12 -1.47,0.4 -2.46,0.82 -0.99,0.42 -2.19,1.03 -3.62,1.86 -1.39,0.81 -2.53,1.54 -3.4,2.19 -0.88,0.66 -1.54,1.24 -1.98,1.75 -0.45,0.48 -0.7,0.96 -0.77,1.4 -0.09,0.42 0,0.83 0.2,1.18 l 38.92,67.42 c 0.21,0.36 0.52,0.63 0.93,0.77 0.42,0.16 0.95,0.17 1.64,0.01 0.67,-0.14 1.49,-0.41 2.48,-0.83 0.99,-0.42 2.18,-1.04 3.58,-1.84 1.43,-0.83 2.56,-1.56 3.42,-2.2 0.86,-0.65 1.5,-1.23 1.94,-1.73 0.47,-0.49 0.73,-0.97 0.78,-1.4 0.08,-0.42 0.01,-0.84 -0.2,-1.19 l -38.92,-67.42" /><path
         id="path36"
         style="fill:#292b2c;fill-opacity:1;fill-rule:evenodd;stroke:none"
         d="m 2162.15,2040.77 c -0.35,-0.21 -0.77,-0.27 -1.19,-0.19 -0.43,0.05 -0.91,0.31 -1.4,0.77 -0.51,0.44 -1.08,1.09 -1.72,1.94 -0.65,0.86 -1.38,2 -2.21,3.42 -0.8,1.4 -1.42,2.6 -1.85,3.61 -0.43,1 -0.71,1.84 -0.84,2.5 -0.15,0.64 -0.13,1.18 0.03,1.59 0.14,0.41 0.41,0.72 0.77,0.93 l 67.42,38.92 c 0.35,0.2 0.76,0.29 1.18,0.21 0.45,-0.08 0.92,-0.33 1.43,-0.81 0.51,-0.46 1.08,-1.11 1.73,-1.96 0.64,-0.86 1.38,-1.99 2.18,-3.39 0.82,-1.43 1.44,-2.63 1.86,-3.62 0.42,-0.98 0.69,-1.81 0.82,-2.46 0.16,-0.66 0.14,-1.2 -0.03,-1.6 -0.14,-0.41 -0.4,-0.74 -0.76,-0.94 l -67.42,-38.92" /><path
         id="path38"
         style="fill:#292b2c;fill-opacity:1;fill-rule:evenodd;stroke:none"
         d="m 2179.54,2010.65 c -0.35,-0.21 -0.77,-0.27 -1.19,-0.19 -0.43,0.05 -0.91,0.31 -1.4,0.77 -0.5,0.44 -1.08,1.09 -1.72,1.94 -0.65,0.86 -1.38,1.99 -2.21,3.42 -0.8,1.4 -1.42,2.6 -1.85,3.61 -0.43,1 -0.71,1.84 -0.84,2.5 -0.15,0.64 -0.13,1.18 0.03,1.59 0.14,0.41 0.41,0.72 0.77,0.93 l 67.42,38.92 c 0.35,0.21 0.76,0.29 1.18,0.21 0.45,-0.07 0.92,-0.33 1.43,-0.81 0.51,-0.46 1.08,-1.11 1.73,-1.97 0.64,-0.85 1.37,-1.98 2.18,-3.38 0.82,-1.43 1.44,-2.63 1.86,-3.62 0.42,-0.98 0.7,-1.81 0.82,-2.46 0.16,-0.66 0.14,-1.2 -0.03,-1.6 -0.14,-0.4 -0.4,-0.73 -0.76,-0.94 l -67.42,-38.92" /><path
         id="path40"
         style="fill:#292b2c;fill-opacity:1;fill-rule:evenodd;stroke:none"
         d="m 2196.93,1980.53 c -0.35,-0.21 -0.77,-0.27 -1.19,-0.19 -0.43,0.05 -0.91,0.3 -1.4,0.77 -0.5,0.44 -1.08,1.09 -1.72,1.94 -0.65,0.86 -1.38,1.99 -2.21,3.42 -0.8,1.4 -1.42,2.6 -1.85,3.6 -0.43,1.01 -0.71,1.85 -0.84,2.5 -0.15,0.65 -0.13,1.18 0.03,1.61 0.14,0.4 0.41,0.71 0.77,0.92 l 67.42,38.92 c 0.35,0.21 0.76,0.29 1.18,0.21 0.45,-0.07 0.92,-0.33 1.42,-0.81 0.52,-0.46 1.09,-1.11 1.74,-1.96 0.64,-0.86 1.37,-2 2.18,-3.39 0.83,-1.43 1.44,-2.63 1.86,-3.62 0.42,-0.99 0.69,-1.81 0.82,-2.46 0.16,-0.66 0.14,-1.2 -0.03,-1.6 -0.14,-0.41 -0.4,-0.73 -0.76,-0.94 l -67.42,-38.92" /><path
         id="path42"
         style="fill:#292b2c;fill-opacity:1;fill-rule:evenodd;stroke:none"
         d="m 1249.91,2736.98 c 0.18,-0.73 0.22,-1.37 0.17,-1.94 -0.08,-0.54 -0.38,-1.12 -0.92,-1.7 -0.57,-0.59 -1.38,-1.23 -2.49,-1.95 -1.12,-0.71 -2.59,-1.61 -4.41,-2.67 -1.47,-0.84 -2.74,-1.56 -3.81,-2.14 -1.06,-0.6 -1.97,-1.07 -2.75,-1.42 -0.77,-0.34 -1.44,-0.58 -1.98,-0.69 -0.56,-0.12 -1.03,-0.17 -1.48,-0.13 -0.44,0.05 -0.83,0.18 -1.19,0.4 -0.34,0.21 -0.72,0.51 -1.15,0.91 l -57.76,51 c -1.19,1.06 -2.06,1.97 -2.6,2.69 -0.54,0.71 -0.69,1.41 -0.45,2.04 0.22,0.66 0.88,1.34 1.93,2.08 1.04,0.72 2.55,1.67 4.55,2.82 1.69,0.98 3.03,1.7 4.04,2.18 0.98,0.47 1.79,0.76 2.43,0.88 0.61,0.1 1.12,0.04 1.55,-0.21 0.41,-0.24 0.87,-0.6 1.37,-1.04 l 49.16,-45.01 0.04,0.02 -14.56,64.61 c -0.22,0.73 -0.33,1.31 -0.33,1.84 0,0.51 0.19,1.04 0.6,1.56 0.4,0.53 1.08,1.12 2.04,1.77 0.93,0.64 2.29,1.48 4,2.46 1.69,0.98 3.04,1.69 4.05,2.12 1,0.43 1.8,0.54 2.41,0.31 0.57,-0.22 1.04,-0.76 1.35,-1.61 0.31,-0.84 0.63,-2.04 0.93,-3.57 l 15.26,-75.61" /><path
         id="path44"
         style="fill:#292b2c;fill-opacity:1;fill-rule:evenodd;stroke:none"
         d="m 1296.08,2762.89 c 0.21,-0.36 0.27,-0.78 0.19,-1.2 -0.05,-0.43 -0.31,-0.9 -0.77,-1.4 -0.44,-0.5 -1.09,-1.08 -1.95,-1.72 -0.85,-0.65 -1.99,-1.38 -3.42,-2.21 -1.39,-0.8 -2.59,-1.42 -3.6,-1.85 -1,-0.43 -1.84,-0.71 -2.5,-0.84 -0.64,-0.15 -1.18,-0.13 -1.6,0.03 -0.41,0.14 -0.71,0.41 -0.92,0.77 l -38.92,67.42 c -0.21,0.36 -0.29,0.76 -0.21,1.18 0.07,0.45 0.33,0.92 0.81,1.43 0.46,0.51 1.1,1.08 1.96,1.73 0.86,0.65 1.99,1.38 3.39,2.18 1.43,0.82 2.63,1.44 3.62,1.86 0.98,0.42 1.8,0.69 2.46,0.82 0.66,0.16 1.2,0.14 1.6,-0.03 0.41,-0.14 0.73,-0.4 0.94,-0.76 l 38.92,-67.41" /><path
         id="path46"
         style="fill:#292b2c;fill-opacity:1;fill-rule:evenodd;stroke:none"
         d="m 1326.2,2780.27 c 0.21,-0.35 0.27,-0.77 0.19,-1.19 -0.05,-0.43 -0.31,-0.9 -0.77,-1.4 -0.44,-0.5 -1.09,-1.08 -1.94,-1.72 -0.86,-0.65 -2,-1.38 -3.43,-2.21 -1.39,-0.8 -2.59,-1.42 -3.6,-1.85 -1,-0.43 -1.84,-0.71 -2.5,-0.84 -0.64,-0.15 -1.18,-0.13 -1.6,0.03 -0.41,0.14 -0.71,0.41 -0.92,0.77 l -38.92,67.42 c -0.21,0.36 -0.29,0.76 -0.21,1.18 0.07,0.45 0.33,0.92 0.81,1.43 0.46,0.51 1.1,1.08 1.96,1.73 0.86,0.65 1.99,1.38 3.39,2.18 1.43,0.83 2.63,1.44 3.62,1.86 0.98,0.42 1.81,0.7 2.46,0.82 0.66,0.16 1.2,0.15 1.6,-0.03 0.41,-0.14 0.73,-0.4 0.94,-0.76 l 38.92,-67.42" /><path
         id="path48"
         style="fill:#292b2c;fill-opacity:1;fill-rule:evenodd;stroke:none"
         d="m 1188.13,2689.53 -49.85,72.77 3.15,2.16 29.03,-42.38 c 1.16,4.76 3.35,8.22 6.58,10.43 2.55,1.75 5.2,2.42 8,2.03 2.8,-0.4 5.25,-2.04 7.37,-4.9 1.37,-2.12 2.03,-4.64 1.99,-7.57 -0.04,-2.93 -0.54,-6.28 -1.5,-10.04 -0.94,-3.79 -1.94,-7.69 -2.95,-11.73 -1.02,-4.05 -1.63,-7.64 -1.82,-10.77 z m -14.31,27.64 12.47,-18.21 c 0.75,6.1 1.12,11.06 1.15,14.91 0.02,3.81 -0.95,7.17 -2.91,10.03 -1.3,1.66 -2.69,2.68 -4.11,3.01 -1.44,0.34 -2.78,0.09 -3.99,-0.74 -2.4,-1.65 -3.28,-4.64 -2.61,-9" /><path
         id="path50"
         style="fill:#292b2c;fill-opacity:1;fill-rule:evenodd;stroke:none"
         d="M 1.12109,3615.79 H 56.918 v -55.8 H 1.12109 v 55.8" /><path
         id="path52"
         style="fill:#292b2c;fill-opacity:1;fill-rule:evenodd;stroke:none"
         d="m 3556.5,3615.79 h 55.79 v -55.8 h -55.79 v 55.8" /><path
         id="path54"
         style="fill:#292b2c;fill-opacity:1;fill-rule:evenodd;stroke:none"
         d="M 1.12109,60.4102 H 56.918 V 4.61328 H 1.12109 V 60.4102" /><path
         id="path56"
         style="fill:#292b2c;fill-opacity:1;fill-rule:evenodd;stroke:none"
         d="m 3556.5,60.4102 h 55.79 V 4.61328 H 3556.5 V 60.4102" /></g></g></svg>