<?xml version="1.0" encoding="UTF-8" standalone="no"?>
<svg
   xmlns:dc="http://purl.org/dc/elements/1.1/"
   xmlns:cc="http://creativecommons.org/ns#"
   xmlns:rdf="http://www.w3.org/1999/02/22-rdf-syntax-ns#"
   xmlns:svg="http://www.w3.org/2000/svg"
   xmlns="http://www.w3.org/2000/svg"
   viewBox="0 0 482.66666 482.66666"
   height="482.66666"
   width="482.66666"
   xml:space="preserve"
   id="svg2"
   version="1.1"><metadata
     id="metadata8"><rdf:RDF><cc:Work
         rdf:about=""><dc:format>image/svg+xml</dc:format><dc:type
           rdf:resource="http://purl.org/dc/dcmitype/StillImage" /></cc:Work></rdf:RDF></metadata><defs
     id="defs6" /><g
     transform="matrix(1.3333333,0,0,-1.3333333,0,482.66667)"
     id="g10"><g
       transform="scale(0.1)"
       id="g12"><path
         id="path14"
         style="fill:#45494b;fill-opacity:1;fill-rule:evenodd;stroke:none"
         d="m 2825.46,1537.23 c 23.43,87.14 36.2,178.61 36.2,272.96 0,487.02 -332.94,898.78 -782.84,1019.28 l 193.52,719.48 c -148.31,39.76 -305.08,61.16 -465.63,61.16 -160.83,0 -317.12,-21.37 -465.65,-61.25 l 192.46,-719.67 c -181.38,-48.8 -342.84,-144.53 -471.94,-273.85 l 463.92,-464.06 c 72.05,71.81 171.87,116.84 281.21,116.84 219.17,0 397.92,-178.75 397.92,-397.92 0,-35.47 -5,-70.15 -13.78,-102.92 l 634.61,-170.05" /><path
         id="path16"
         style="fill:#45494b;fill-opacity:1;fill-rule:evenodd;stroke:none"
         d="m 2079.69,791.434 -170.05,634.636 c 68.29,18.39 129.63,54.26 178.28,102.93 l 463.95,-463.95 C 2422.83,936.047 2260.79,840.121 2079.69,791.434" /><path
         id="path18"
         style="fill:#292b2c;fill-opacity:1;fill-rule:evenodd;stroke:none"
         d="M 1.12109,3615.79 H 56.918 v -55.8 H 1.12109 v 55.8" /><path
         id="path20"
         style="fill:#292b2c;fill-opacity:1;fill-rule:evenodd;stroke:none"
         d="m 3556.5,3615.79 h 55.79 v -55.8 h -55.79 v 55.8" /><path
         id="path22"
         style="fill:#292b2c;fill-opacity:1;fill-rule:evenodd;stroke:none"
         d="M 1.12109,60.4102 H 56.918 V 4.61328 H 1.12109 V 60.4102" /><path
         id="path24"
         style="fill:#292b2c;fill-opacity:1;fill-rule:evenodd;stroke:none"
         d="m 3556.5,60.4102 h 55.79 V 4.61328 H 3556.5 V 60.4102" /></g></g></svg>