<?xml version="1.0" encoding="UTF-8" standalone="no"?>
<svg
   xmlns:dc="http://purl.org/dc/elements/1.1/"
   xmlns:cc="http://creativecommons.org/ns#"
   xmlns:rdf="http://www.w3.org/1999/02/22-rdf-syntax-ns#"
   xmlns:svg="http://www.w3.org/2000/svg"
   xmlns="http://www.w3.org/2000/svg"
   viewBox="0 0 482.66666 482.66666"
   height="482.66666"
   width="482.66666"
   xml:space="preserve"
   id="svg2"
   version="1.1"><metadata
     id="metadata8"><rdf:RDF><cc:Work
         rdf:about=""><dc:format>image/svg+xml</dc:format><dc:type
           rdf:resource="http://purl.org/dc/dcmitype/StillImage" /></cc:Work></rdf:RDF></metadata><defs
     id="defs6" /><g
     transform="matrix(1.3333333,0,0,-1.3333333,0,482.66667)"
     id="g10"><g
       transform="scale(0.1)"
       id="g12"><path
         id="path14"
         style="fill:#45494b;fill-opacity:1;fill-rule:evenodd;stroke:none"
         d="m 2190.96,1913.54 c -45.81,169.16 -200.93,294.58 -384.25,294.58 -109.7,0 -208.73,-44.37 -280.83,-116.6 l -990.302,991.04 c 326.035,325.89 775.602,527.55 1271.132,527.55 495.65,0 945.54,-202.05 1271.6,-528.08 l -526.32,-526.37 c 129.31,-129.19 224.83,-291.07 273.46,-472.48 l -634.49,-169.64" /><path
         id="path16"
         style="fill:#292b2c;fill-opacity:1;fill-rule:evenodd;stroke:none"
         d="M 1.12109,3615.79 H 56.918 v -55.8 H 1.12109 v 55.8" /><path
         id="path18"
         style="fill:#292b2c;fill-opacity:1;fill-rule:evenodd;stroke:none"
         d="m 3556.5,3615.79 h 55.79 v -55.8 h -55.79 v 55.8" /><path
         id="path20"
         style="fill:#292b2c;fill-opacity:1;fill-rule:evenodd;stroke:none"
         d="M 1.12109,60.4102 H 56.918 V 4.61328 H 1.12109 V 60.4102" /><path
         id="path22"
         style="fill:#292b2c;fill-opacity:1;fill-rule:evenodd;stroke:none"
         d="m 3556.5,60.4102 h 55.79 V 4.61328 H 3556.5 V 60.4102" /></g></g></svg>