<?xml version="1.0" encoding="UTF-8" standalone="no"?>
<!-- Created with Inkscape (http://www.inkscape.org/) -->

<svg
   version="1.1"
   id="svg2"
   width="482.66666"
   height="482.66666"
   viewBox="0 0 482.66666 482.66666"
   sodipodi:docname="LM_Aeolian.eps"
   xmlns:inkscape="http://www.inkscape.org/namespaces/inkscape"
   xmlns:sodipodi="http://sodipodi.sourceforge.net/DTD/sodipodi-0.dtd"
   xmlns="http://www.w3.org/2000/svg"
   xmlns:svg="http://www.w3.org/2000/svg">
  <defs
     id="defs6" />
  <sodipodi:namedview
     id="namedview4"
     pagecolor="#ffffff"
     bordercolor="#000000"
     borderopacity="0.25"
     inkscape:showpageshadow="2"
     inkscape:pageopacity="0.0"
     inkscape:pagecheckerboard="0"
     inkscape:deskcolor="#d1d1d1" />
  <g
     id="g8"
     inkscape:groupmode="layer"
     inkscape:label="ink_ext_XXXXXX"
     transform="matrix(1.3333333,0,0,-1.3333333,0,482.66667)">
    <g
       id="g10"
       transform="scale(0.1)">
      <path
         d="M 1.12109,3615.79 H 56.918 v -55.8 H 1.12109 v 55.8"
         style="fill:#ffffff;fill-opacity:1;fill-rule:evenodd;stroke:none"
         id="path12" />
      <path
         d="m 3556.5,3615.79 h 55.79 v -55.8 h -55.79 v 55.8"
         style="fill:#ffffff;fill-opacity:1;fill-rule:evenodd;stroke:none"
         id="path14" />
      <path
         d="M 1.12109,60.4102 H 56.918 V 4.61328 H 1.12109 V 60.4102"
         style="fill:#ffffff;fill-opacity:1;fill-rule:evenodd;stroke:none"
         id="path16" />
      <path
         d="m 3556.5,60.4102 h 55.79 V 4.61328 H 3556.5 V 60.4102"
         style="fill:#ffffff;fill-opacity:1;fill-rule:evenodd;stroke:none"
         id="path18" />
      <path
         d="m 2317.28,1947.19 c -62.36,225.99 -270,392.79 -515.36,392.79 -144.88,0 -273.4,-61.1 -369.84,-155.28 l 93.32,-92.66 c 72.17,72.05 171.69,116.71 281.3,116.71 184,0 339.55,-125.83 385.03,-295.82 l 125.55,34.26"
         style="fill:#1a1f20;fill-opacity:1;fill-rule:evenodd;stroke:none"
         id="path20" />
      <path
         d="m 2644,2647.57 -91.93,-91.93 c -191.11,191.11 -454.84,309.59 -745.37,309.59 -290.52,0 -554.25,-118.48 -745.36,-309.59 l -91.93,91.93 c 214.68,214.68 510.94,347.77 837.29,347.77 326.36,0 622.62,-133.09 837.3,-347.77"
         style="fill:#1a1f20;fill-opacity:1;fill-rule:evenodd;stroke:none"
         id="path22" />
      <path
         d="m 1815.3,2233.36 c 0,-0.42 -0.15,-0.81 -0.43,-1.13 -0.26,-0.35 -0.72,-0.64 -1.37,-0.83 -0.63,-0.22 -1.48,-0.39 -2.54,-0.52 -1.07,-0.13 -2.42,-0.2 -4.07,-0.2 -1.61,0 -2.96,0.07 -4.04,0.2 -1.09,0.13 -1.96,0.3 -2.59,0.52 -0.63,0.19 -1.08,0.48 -1.37,0.83 -0.28,0.32 -0.41,0.71 -0.41,1.13 v 77.84 c 0,0.41 0.13,0.8 0.41,1.13 0.29,0.35 0.74,0.63 1.41,0.83 0.65,0.21 1.5,0.39 2.57,0.52 1.06,0.13 2.41,0.2 4.02,0.2 1.65,0 3,-0.07 4.07,-0.2 1.06,-0.13 1.91,-0.31 2.54,-0.52 0.65,-0.2 1.11,-0.48 1.37,-0.83 0.28,-0.33 0.43,-0.72 0.43,-1.13 v -77.84"
         style="fill:#ffffff;fill-opacity:1;fill-rule:evenodd;stroke:none"
         id="path24" />
      <path
         d="m 1572.96,2163.85 c 0.2,-0.36 0.27,-0.78 0.18,-1.2 -0.05,-0.43 -0.3,-0.9 -0.77,-1.4 -0.44,-0.5 -1.08,-1.08 -1.94,-1.72 -0.86,-0.65 -1.99,-1.38 -3.42,-2.21 -1.4,-0.8 -2.6,-1.42 -3.6,-1.85 -1.01,-0.43 -1.85,-0.71 -2.5,-0.84 -0.64,-0.15 -1.18,-0.13 -1.6,0.03 -0.41,0.14 -0.72,0.41 -0.92,0.77 l -38.93,67.42 c -0.2,0.36 -0.29,0.76 -0.2,1.18 0.07,0.45 0.32,0.92 0.81,1.43 0.45,0.51 1.1,1.08 1.96,1.73 0.85,0.65 1.99,1.38 3.38,2.18 1.43,0.83 2.63,1.44 3.62,1.86 0.99,0.42 1.81,0.7 2.46,0.82 0.67,0.16 1.21,0.15 1.6,-0.03 0.41,-0.14 0.74,-0.4 0.95,-0.76 l 38.92,-67.41"
         style="fill:#ffffff;fill-opacity:1;fill-rule:evenodd;stroke:none"
         id="path26" />
      <path
         d="m 1623.7,2193.9 c 0.18,-0.73 0.22,-1.38 0.17,-1.94 -0.08,-0.55 -0.38,-1.12 -0.92,-1.71 -0.57,-0.58 -1.38,-1.22 -2.49,-1.94 -1.12,-0.72 -2.58,-1.62 -4.41,-2.67 -1.47,-0.85 -2.74,-1.56 -3.81,-2.15 -1.06,-0.59 -1.97,-1.06 -2.75,-1.41 -0.78,-0.35 -1.44,-0.58 -1.98,-0.69 -0.56,-0.12 -1.03,-0.18 -1.48,-0.13 -0.44,0.05 -0.83,0.17 -1.19,0.39 -0.34,0.21 -0.72,0.52 -1.15,0.92 l -57.76,50.99 c -1.19,1.07 -2.06,1.97 -2.6,2.69 -0.54,0.71 -0.69,1.41 -0.45,2.05 0.22,0.65 0.88,1.33 1.93,2.07 1.04,0.73 2.55,1.67 4.55,2.83 1.69,0.98 3.03,1.7 4.03,2.18 0.99,0.46 1.8,0.76 2.44,0.87 0.61,0.11 1.12,0.05 1.55,-0.21 0.41,-0.24 0.87,-0.59 1.37,-1.03 l 49.16,-45.02 0.04,0.03 -14.56,64.61 c -0.22,0.72 -0.34,1.31 -0.34,1.83 0.01,0.51 0.2,1.05 0.61,1.56 0.4,0.53 1.08,1.13 2.04,1.78 0.93,0.64 2.28,1.47 4,2.46 1.69,0.98 3.04,1.68 4.05,2.12 1,0.42 1.8,0.53 2.41,0.3 0.57,-0.22 1.04,-0.75 1.35,-1.6 0.31,-0.85 0.63,-2.05 0.93,-3.58 l 15.26,-75.6"
         style="fill:#ffffff;fill-opacity:1;fill-rule:evenodd;stroke:none"
         id="path28" />
      <path
         d="m 2032.36,2169.28 c -0.55,-0.52 -1.09,-0.88 -1.6,-1.12 -0.51,-0.2 -1.16,-0.23 -1.94,-0.05 -0.78,0.2 -1.75,0.58 -2.93,1.18 -1.18,0.61 -2.69,1.43 -4.51,2.49 -1.47,0.85 -2.72,1.59 -3.76,2.22 -1.05,0.63 -1.91,1.17 -2.6,1.67 -0.69,0.5 -1.23,0.96 -1.59,1.37 -0.39,0.42 -0.67,0.82 -0.86,1.23 -0.17,0.39 -0.26,0.8 -0.25,1.22 0.01,0.4 0.09,0.88 0.22,1.46 l 15.28,75.51 c 0.33,1.57 0.68,2.77 1.03,3.6 0.35,0.83 0.88,1.3 1.54,1.42 0.68,0.13 1.61,-0.1 2.77,-0.65 1.15,-0.53 2.72,-1.37 4.72,-2.52 1.69,-0.98 2.99,-1.78 3.91,-2.41 0.89,-0.61 1.55,-1.17 1.97,-1.67 0.4,-0.48 0.6,-0.94 0.6,-1.44 0,-0.48 -0.09,-1.06 -0.22,-1.71 l -14.4,-65.08 0.04,-0.02 48.67,44.91 c 0.52,0.56 0.98,0.95 1.43,1.21 0.44,0.25 1,0.35 1.65,0.26 0.66,-0.08 1.52,-0.38 2.56,-0.88 1.02,-0.49 2.42,-1.25 4.13,-2.23 1.69,-0.98 2.98,-1.8 3.85,-2.46 0.88,-0.65 1.37,-1.29 1.48,-1.92 0.09,-0.62 -0.14,-1.28 -0.71,-1.98 -0.58,-0.69 -1.46,-1.57 -2.64,-2.6 l -57.84,-51.01"
         style="fill:#ffffff;fill-opacity:1;fill-rule:evenodd;stroke:none"
         id="path30" />
      <path
         d="m 2170.85,2025.71 c -0.36,-0.21 -0.77,-0.27 -1.2,-0.19 -0.43,0.05 -0.9,0.3 -1.4,0.77 -0.5,0.44 -1.07,1.09 -1.72,1.94 -0.65,0.86 -1.37,1.99 -2.2,3.42 -0.81,1.4 -1.42,2.6 -1.85,3.6 -0.44,1.01 -0.72,1.85 -0.84,2.5 -0.15,0.65 -0.13,1.18 0.02,1.61 0.14,0.4 0.42,0.71 0.78,0.92 l 67.41,38.92 c 0.36,0.21 0.76,0.29 1.19,0.21 0.44,-0.07 0.91,-0.33 1.42,-0.81 0.51,-0.46 1.09,-1.11 1.74,-1.96 0.64,-0.86 1.37,-2 2.18,-3.39 0.82,-1.43 1.44,-2.63 1.86,-3.62 0.42,-0.99 0.69,-1.81 0.82,-2.46 0.15,-0.66 0.14,-1.2 -0.04,-1.6 -0.13,-0.41 -0.4,-0.73 -0.75,-0.94 l -67.42,-38.92"
         style="fill:#ffffff;fill-opacity:1;fill-rule:evenodd;stroke:none"
         id="path32" />
      <path
         d="m 2188.24,1995.59 c -0.36,-0.21 -0.77,-0.27 -1.2,-0.2 -0.43,0.06 -0.9,0.31 -1.4,0.78 -0.5,0.44 -1.07,1.08 -1.72,1.94 -0.65,0.86 -1.37,2 -2.2,3.43 -0.81,1.39 -1.42,2.59 -1.85,3.59 -0.44,1.01 -0.72,1.85 -0.85,2.5 -0.14,0.65 -0.13,1.19 0.03,1.6 0.15,0.41 0.42,0.72 0.78,0.93 l 67.41,38.92 c 0.36,0.21 0.76,0.29 1.19,0.21 0.44,-0.08 0.91,-0.33 1.42,-0.81 0.51,-0.46 1.09,-1.11 1.74,-1.96 0.64,-0.86 1.37,-2 2.18,-3.39 0.82,-1.43 1.44,-2.63 1.86,-3.62 0.42,-0.99 0.69,-1.81 0.82,-2.46 0.15,-0.66 0.14,-1.2 -0.04,-1.6 -0.14,-0.41 -0.4,-0.74 -0.76,-0.94 l -67.41,-38.92"
         style="fill:#ffffff;fill-opacity:1;fill-rule:evenodd;stroke:none"
         id="path34" />
      <path
         d="m 1264.97,2745.68 c 0.17,-0.73 0.22,-1.38 0.17,-1.94 -0.09,-0.55 -0.38,-1.12 -0.92,-1.71 -0.57,-0.58 -1.38,-1.22 -2.49,-1.94 -1.12,-0.72 -2.59,-1.62 -4.41,-2.67 -1.47,-0.85 -2.74,-1.56 -3.81,-2.15 -1.06,-0.59 -1.97,-1.06 -2.75,-1.41 -0.78,-0.35 -1.44,-0.58 -1.98,-0.7 -0.56,-0.12 -1.03,-0.16 -1.48,-0.12 -0.43,0.05 -0.83,0.17 -1.19,0.39 -0.34,0.21 -0.72,0.52 -1.15,0.92 l -57.76,50.99 c -1.19,1.07 -2.06,1.97 -2.6,2.69 -0.54,0.72 -0.69,1.41 -0.46,2.05 0.23,0.65 0.89,1.33 1.95,2.07 1.03,0.73 2.54,1.67 4.54,2.83 1.69,0.97 3.03,1.7 4.03,2.18 0.99,0.47 1.8,0.75 2.44,0.87 0.61,0.11 1.12,0.05 1.55,-0.21 0.41,-0.24 0.87,-0.6 1.37,-1.03 l 49.16,-45.02 0.04,0.02 -14.56,64.62 c -0.22,0.72 -0.34,1.31 -0.34,1.84 0.01,0.5 0.2,1.04 0.61,1.55 0.4,0.53 1.08,1.13 2.03,1.78 0.94,0.64 2.29,1.47 4.01,2.46 1.69,0.98 3.04,1.68 4.05,2.11 1.01,0.43 1.8,0.54 2.41,0.31 0.57,-0.22 1.03,-0.75 1.35,-1.6 0.31,-0.85 0.63,-2.05 0.93,-3.58 l 15.26,-75.6"
         style="fill:#ffffff;fill-opacity:1;fill-rule:evenodd;stroke:none"
         id="path36" />
      <path
         d="m 1311.14,2771.58 c 0.21,-0.36 0.27,-0.77 0.19,-1.2 -0.05,-0.43 -0.31,-0.9 -0.78,-1.4 -0.43,-0.5 -1.08,-1.07 -1.94,-1.72 -0.85,-0.65 -1.99,-1.37 -3.42,-2.2 -1.39,-0.81 -2.59,-1.42 -3.6,-1.85 -1,-0.44 -1.84,-0.72 -2.5,-0.85 -0.64,-0.14 -1.18,-0.12 -1.6,0.03 -0.41,0.15 -0.71,0.42 -0.92,0.78 l -38.92,67.41 c -0.21,0.36 -0.29,0.76 -0.21,1.19 0.07,0.44 0.33,0.91 0.81,1.42 0.46,0.51 1.11,1.09 1.96,1.74 0.86,0.64 1.99,1.37 3.39,2.18 1.43,0.82 2.63,1.44 3.61,1.86 0.99,0.42 1.81,0.69 2.47,0.82 0.66,0.15 1.2,0.14 1.6,-0.03 0.4,-0.14 0.73,-0.41 0.94,-0.76 l 38.92,-67.42"
         style="fill:#ffffff;fill-opacity:1;fill-rule:evenodd;stroke:none"
         id="path38" />
      <path
         d="m 1202.94,2699.45 -48.66,73.57 3.18,2.1 28.34,-42.84 c 1.24,4.74 3.49,8.17 6.74,10.33 2.59,1.7 5.25,2.34 8.04,1.89 2.79,-0.44 5.22,-2.12 7.29,-5.02 1.34,-2.14 1.96,-4.67 1.87,-7.6 -0.09,-2.92 -0.65,-6.26 -1.66,-10.02 -1.01,-3.76 -2.07,-7.65 -3.14,-11.68 -1.09,-4.03 -1.76,-7.6 -2,-10.73 z m -13.86,27.87 12.18,-18.41 c 0.84,6.08 1.29,11.04 1.38,14.89 0.09,3.81 -0.83,7.18 -2.74,10.07 -1.27,1.68 -2.65,2.72 -4.06,3.08 -1.43,0.37 -2.77,0.14 -4,-0.68 -2.43,-1.61 -3.36,-4.59 -2.76,-8.95"
         style="fill:#ffffff;fill-opacity:1;fill-rule:evenodd;stroke:none"
         id="path40" />
      <path
         d="m 1784.83,2890.17 c 0,-0.42 -0.15,-0.81 -0.43,-1.13 -0.26,-0.35 -0.72,-0.63 -1.37,-0.83 -0.63,-0.22 -1.48,-0.39 -2.54,-0.52 -1.07,-0.13 -2.42,-0.19 -4.07,-0.19 -1.61,0 -2.96,0.06 -4.04,0.19 -1.09,0.13 -1.96,0.3 -2.59,0.52 -0.63,0.2 -1.08,0.48 -1.37,0.83 -0.28,0.32 -0.41,0.71 -0.41,1.13 v 77.84 c 0,0.42 0.13,0.81 0.41,1.13 0.29,0.35 0.74,0.63 1.42,0.83 0.64,0.21 1.5,0.39 2.56,0.52 1.06,0.13 2.41,0.19 4.02,0.19 1.65,0 3,-0.06 4.07,-0.19 1.06,-0.13 1.91,-0.31 2.54,-0.52 0.65,-0.2 1.11,-0.48 1.37,-0.83 0.28,-0.32 0.43,-0.71 0.43,-1.13 v -77.84"
         style="fill:#ffffff;fill-opacity:1;fill-rule:evenodd;stroke:none"
         id="path42" />
      <path
         d="m 1819.61,2890.17 c 0,-0.42 -0.15,-0.81 -0.43,-1.13 -0.26,-0.35 -0.72,-0.63 -1.37,-0.83 -0.63,-0.22 -1.48,-0.39 -2.54,-0.52 -1.07,-0.13 -2.41,-0.19 -4.07,-0.19 -1.61,0 -2.95,0.06 -4.04,0.19 -1.09,0.13 -1.96,0.3 -2.59,0.52 -0.63,0.2 -1.09,0.48 -1.37,0.83 -0.28,0.32 -0.41,0.71 -0.41,1.13 v 77.84 c 0,0.42 0.13,0.81 0.41,1.13 0.28,0.35 0.74,0.63 1.42,0.83 0.65,0.21 1.49,0.39 2.56,0.52 1.07,0.13 2.41,0.19 4.02,0.19 1.66,0 3,-0.06 4.07,-0.19 1.06,-0.13 1.91,-0.31 2.54,-0.52 0.65,-0.2 1.11,-0.48 1.37,-0.83 0.28,-0.32 0.43,-0.71 0.43,-1.13 v -77.84"
         style="fill:#ffffff;fill-opacity:1;fill-rule:evenodd;stroke:none"
         id="path44" />
      <path
         d="m 1854.39,2890.17 c 0,-0.42 -0.15,-0.81 -0.43,-1.13 -0.26,-0.35 -0.72,-0.63 -1.37,-0.83 -0.63,-0.22 -1.48,-0.39 -2.54,-0.52 -1.07,-0.13 -2.42,-0.19 -4.07,-0.19 -1.61,0 -2.96,0.06 -4.04,0.19 -1.09,0.13 -1.96,0.3 -2.59,0.52 -0.63,0.2 -1.08,0.48 -1.37,0.83 -0.28,0.32 -0.41,0.71 -0.41,1.13 v 77.84 c 0,0.42 0.13,0.81 0.41,1.13 0.29,0.35 0.74,0.63 1.41,0.83 0.66,0.21 1.5,0.39 2.57,0.52 1.06,0.13 2.41,0.19 4.02,0.19 1.65,0 3,-0.06 4.07,-0.19 1.06,-0.13 1.91,-0.31 2.54,-0.52 0.65,-0.2 1.11,-0.48 1.37,-0.83 0.28,-0.32 0.43,-0.71 0.43,-1.13 v -77.84"
         style="fill:#ffffff;fill-opacity:1;fill-rule:evenodd;stroke:none"
         id="path46" />
      <path
         d="m 1727.93,2882.21 -5.36,88.04 3.81,0.23 3.12,-51.27 c 3.44,3.49 7.11,5.34 11.01,5.57 3.08,0.19 5.7,-0.59 7.9,-2.37 2.2,-1.78 3.46,-4.45 3.8,-8 0.09,-2.52 -0.64,-5.02 -2.17,-7.51 -1.54,-2.49 -3.69,-5.11 -6.45,-7.85 -2.76,-2.76 -5.62,-5.59 -8.56,-8.54 -2.96,-2.95 -5.33,-5.71 -7.1,-8.3 z m 1.93,31.07 1.34,-22.03 c 3.78,4.84 6.65,8.9 8.65,12.19 1.97,3.26 2.87,6.64 2.66,10.1 -0.26,2.09 -0.93,3.68 -1.98,4.69 -1.05,1.04 -2.33,1.51 -3.8,1.42 -2.91,-0.17 -5.2,-2.29 -6.87,-6.37"
         style="fill:#ffffff;fill-opacity:1;fill-rule:evenodd;stroke:none"
         id="path48" />
      <path
         d="m 2330.85,2755.84 c -0.55,-0.52 -1.08,-0.88 -1.6,-1.12 -0.52,-0.2 -1.16,-0.23 -1.94,-0.06 -0.79,0.21 -1.74,0.59 -2.93,1.19 -1.18,0.61 -2.69,1.43 -4.51,2.49 -1.47,0.84 -2.72,1.59 -3.76,2.22 -1.05,0.62 -1.91,1.17 -2.6,1.67 -0.69,0.5 -1.23,0.97 -1.6,1.38 -0.38,0.42 -0.66,0.8 -0.85,1.21 -0.17,0.4 -0.26,0.81 -0.24,1.23 0,0.4 0.08,0.88 0.21,1.45 l 15.28,75.52 c 0.33,1.57 0.68,2.77 1.03,3.6 0.35,0.83 0.87,1.3 1.54,1.42 0.68,0.13 1.6,-0.1 2.77,-0.65 1.15,-0.53 2.72,-1.37 4.72,-2.52 1.69,-0.98 2.99,-1.78 3.9,-2.41 0.91,-0.62 1.56,-1.17 1.98,-1.66 0.4,-0.48 0.61,-0.96 0.59,-1.45 0,-0.48 -0.08,-1.06 -0.2,-1.71 l -14.41,-65.08 0.04,-0.02 48.67,44.91 c 0.52,0.56 0.97,0.95 1.43,1.21 0.44,0.25 1.01,0.35 1.65,0.25 0.66,-0.07 1.52,-0.37 2.55,-0.87 1.03,-0.49 2.43,-1.24 4.14,-2.24 1.69,-0.97 2.98,-1.79 3.86,-2.44 0.87,-0.66 1.36,-1.3 1.47,-1.93 0.1,-0.61 -0.14,-1.28 -0.72,-1.98 -0.57,-0.7 -1.45,-1.57 -2.63,-2.6 l -57.84,-51.01"
         style="fill:#ffffff;fill-opacity:1;fill-rule:evenodd;stroke:none"
         id="path50" />
      <path
         d="m 2376.36,2728.8 c -0.2,-0.35 -0.53,-0.62 -0.94,-0.76 -0.4,-0.17 -0.94,-0.18 -1.6,-0.03 -0.65,0.13 -1.47,0.4 -2.46,0.82 -0.99,0.42 -2.19,1.04 -3.62,1.87 -1.39,0.8 -2.53,1.53 -3.4,2.19 -0.88,0.65 -1.54,1.24 -1.98,1.74 -0.45,0.49 -0.7,0.96 -0.77,1.4 -0.09,0.43 0,0.83 0.2,1.18 l 38.92,67.42 c 0.21,0.36 0.52,0.64 0.93,0.77 0.42,0.16 0.95,0.18 1.63,0.01 0.68,-0.14 1.5,-0.41 2.49,-0.83 0.98,-0.42 2.19,-1.03 3.58,-1.84 1.43,-0.83 2.56,-1.56 3.42,-2.2 0.86,-0.65 1.51,-1.22 1.94,-1.72 0.47,-0.5 0.72,-0.97 0.78,-1.41 0.07,-0.42 0.01,-0.83 -0.19,-1.19 l -38.93,-67.42"
         style="fill:#ffffff;fill-opacity:1;fill-rule:evenodd;stroke:none"
         id="path52" />
      <path
         d="m 2406.48,2711.41 c -0.2,-0.35 -0.53,-0.62 -0.94,-0.76 -0.4,-0.17 -0.93,-0.19 -1.59,-0.03 -0.66,0.13 -1.48,0.4 -2.47,0.82 -0.99,0.42 -2.19,1.04 -3.62,1.86 -1.39,0.81 -2.53,1.54 -3.4,2.2 -0.88,0.65 -1.54,1.24 -1.98,1.74 -0.45,0.49 -0.7,0.96 -0.77,1.4 -0.08,0.43 0,0.83 0.2,1.19 l 38.93,67.41 c 0.2,0.36 0.51,0.64 0.92,0.77 0.42,0.16 0.95,0.18 1.63,0.01 0.68,-0.14 1.5,-0.41 2.49,-0.83 0.98,-0.42 2.18,-1.03 3.58,-1.84 1.43,-0.83 2.56,-1.56 3.42,-2.2 0.86,-0.65 1.5,-1.22 1.94,-1.72 0.47,-0.5 0.72,-0.97 0.77,-1.41 0.09,-0.42 0.02,-0.83 -0.18,-1.19 l -38.93,-67.42"
         style="fill:#ffffff;fill-opacity:1;fill-rule:evenodd;stroke:none"
         id="path54" />
      <path
         d="m 2259.84,2784.66 38.2,79.51 3.44,-1.65 -22.25,-46.3 c 4.7,1.37 8.81,1.2 12.33,-0.5 2.79,-1.34 4.69,-3.3 5.74,-5.92 1.06,-2.62 0.86,-5.57 -0.56,-8.83 -1.15,-2.25 -3.01,-4.08 -5.57,-5.51 -2.56,-1.42 -5.71,-2.66 -9.45,-3.71 -3.75,-1.07 -7.63,-2.15 -11.64,-3.3 -4.02,-1.13 -7.43,-2.39 -10.24,-3.79 z m 16.82,26.2 -9.56,-19.9 c 5.66,2.4 10.15,4.55 13.49,6.44 3.32,1.89 5.74,4.4 7.25,7.53 0.79,1.96 0.98,3.66 0.55,5.06 -0.41,1.42 -1.3,2.46 -2.63,3.09 -2.63,1.26 -5.66,0.53 -9.1,-2.22"
         style="fill:#ffffff;fill-opacity:1;fill-rule:evenodd;stroke:none"
         id="path56" />
      <path
         d="m 1807.02,2186.97 c 46.33,0 84.11,37.78 84.11,84.1 0,46.34 -37.78,84.11 -84.11,84.11 -46.33,0 -84.11,-37.77 -84.11,-84.11 0,-46.32 37.78,-84.1 84.11,-84.1 z m 0,11.48 c 40,0 72.63,32.62 72.63,72.62 0,40.01 -32.63,72.64 -72.63,72.64 -40,0 -72.63,-32.63 -72.63,-72.64 0,-40 32.63,-72.62 72.63,-72.62"
         style="fill:#ffffff;fill-opacity:1;fill-rule:evenodd;stroke:none"
         id="path58" />
    </g>
  </g>
</svg>
