<?xml version="1.0" encoding="UTF-8" standalone="no"?>
<!-- Created with Inkscape (http://www.inkscape.org/) -->

<svg
   version="1.1"
   id="svg2"
   width="482.66666"
   height="482.66666"
   viewBox="0 0 482.66666 482.66666"
   sodipodi:docname="LM_Dorian.eps"
   xmlns:inkscape="http://www.inkscape.org/namespaces/inkscape"
   xmlns:sodipodi="http://sodipodi.sourceforge.net/DTD/sodipodi-0.dtd"
   xmlns="http://www.w3.org/2000/svg"
   xmlns:svg="http://www.w3.org/2000/svg">
  <defs
     id="defs6" />
  <sodipodi:namedview
     id="namedview4"
     pagecolor="#ffffff"
     bordercolor="#000000"
     borderopacity="0.25"
     inkscape:showpageshadow="2"
     inkscape:pageopacity="0.0"
     inkscape:pagecheckerboard="0"
     inkscape:deskcolor="#d1d1d1" />
  <g
     id="g8"
     inkscape:groupmode="layer"
     inkscape:label="ink_ext_XXXXXX"
     transform="matrix(1.3333333,0,0,-1.3333333,0,482.66667)">
    <g
       id="g10"
       transform="scale(0.1)">
      <path
         d="M 1.12109,3615.79 H 56.918 v -55.8 H 1.12109 v 55.8"
         style="fill:#ffffff;fill-opacity:1;fill-rule:evenodd;stroke:none"
         id="path12" />
      <path
         d="m 3556.5,3615.79 h 55.79 v -55.8 h -55.79 v 55.8"
         style="fill:#ffffff;fill-opacity:1;fill-rule:evenodd;stroke:none"
         id="path14" />
      <path
         d="M 1.12109,60.4102 H 56.918 V 4.61328 H 1.12109 V 60.4102"
         style="fill:#ffffff;fill-opacity:1;fill-rule:evenodd;stroke:none"
         id="path16" />
      <path
         d="m 3556.5,60.4102 h 55.79 V 4.61328 H 3556.5 V 60.4102"
         style="fill:#ffffff;fill-opacity:1;fill-rule:evenodd;stroke:none"
         id="path18" />
      <path
         d="m 2317.28,1947.19 c -62.36,225.99 -270,392.79 -515.36,392.79 -144.88,0 -272.32,-60.12 -368.76,-154.3 l 92.24,-93.64 c 72.17,72.05 171.69,116.71 281.3,116.71 184,0 339.55,-125.83 385.03,-295.82 l 125.55,34.26"
         style="fill:#1a1f20;fill-opacity:1;fill-rule:evenodd;stroke:none"
         id="path20" />
      <path
         d="m 2644,2647.57 -91.93,-91.93 c -191.11,191.11 -454.84,309.59 -745.37,309.59 -290.52,0 -554.25,-118.48 -745.36,-309.59 l -91.93,91.93 c 214.68,214.68 510.94,347.77 837.29,347.77 326.36,0 622.62,-133.09 837.3,-347.77"
         style="fill:#1a1f20;fill-opacity:1;fill-rule:evenodd;stroke:none"
         id="path22" />
      <path
         d="m 2324.63,2758.67 c -0.21,-0.35 -0.54,-0.62 -0.94,-0.76 -0.4,-0.17 -0.94,-0.18 -1.6,-0.03 -0.66,0.13 -1.48,0.4 -2.46,0.82 -0.99,0.42 -2.19,1.04 -3.62,1.87 -1.4,0.8 -2.53,1.53 -3.41,2.19 -0.87,0.65 -1.54,1.24 -1.97,1.74 -0.45,0.48 -0.71,0.96 -0.78,1.4 -0.08,0.42 0,0.83 0.21,1.19 l 38.92,67.41 c 0.21,0.36 0.52,0.63 0.92,0.77 0.42,0.16 0.96,0.18 1.64,0.01 0.67,-0.14 1.5,-0.41 2.48,-0.83 0.99,-0.42 2.19,-1.04 3.59,-1.84 1.43,-0.82 2.56,-1.56 3.42,-2.2 0.85,-0.65 1.5,-1.22 1.94,-1.73 0.46,-0.49 0.72,-0.97 0.77,-1.39 0.08,-0.43 0.02,-0.84 -0.19,-1.2 l -38.92,-67.42"
         style="fill:#ffffff;fill-opacity:1;fill-rule:evenodd;stroke:none"
         id="path24" />
      <path
         d="m 2376.03,2729.75 c -0.55,-0.51 -1.08,-0.88 -1.6,-1.11 -0.52,-0.2 -1.16,-0.23 -1.94,-0.06 -0.79,0.2 -1.74,0.58 -2.93,1.19 -1.18,0.61 -2.69,1.43 -4.51,2.48 -1.47,0.85 -2.72,1.6 -3.76,2.22 -1.05,0.63 -1.91,1.18 -2.6,1.68 -0.69,0.5 -1.23,0.96 -1.6,1.37 -0.38,0.42 -0.66,0.81 -0.85,1.22 -0.17,0.4 -0.26,0.8 -0.24,1.22 0,0.4 0.08,0.88 0.21,1.46 l 15.28,75.51 c 0.33,1.57 0.68,2.78 1.03,3.61 0.35,0.82 0.87,1.3 1.54,1.41 0.68,0.14 1.6,-0.09 2.77,-0.64 1.15,-0.54 2.72,-1.37 4.72,-2.52 1.69,-0.98 2.99,-1.78 3.9,-2.41 0.91,-0.62 1.56,-1.18 1.98,-1.67 0.4,-0.48 0.61,-0.95 0.59,-1.45 0,-0.47 -0.08,-1.05 -0.2,-1.71 l -14.41,-65.08 0.04,-0.02 48.67,44.92 c 0.52,0.55 0.97,0.94 1.43,1.21 0.44,0.24 1,0.35 1.65,0.25 0.66,-0.08 1.51,-0.37 2.55,-0.87 1.03,-0.49 2.43,-1.25 4.14,-2.24 1.69,-0.98 2.98,-1.79 3.86,-2.45 0.87,-0.66 1.36,-1.29 1.46,-1.93 0.11,-0.61 -0.13,-1.28 -0.71,-1.97 -0.57,-0.7 -1.45,-1.57 -2.63,-2.6 l -57.84,-51.02"
         style="fill:#ffffff;fill-opacity:1;fill-rule:evenodd;stroke:none"
         id="path26" />
      <path
         d="m 1818.79,2234.01 c -0.22,-0.72 -0.5,-1.31 -0.83,-1.76 -0.35,-0.44 -0.89,-0.79 -1.66,-1.03 -0.78,-0.21 -1.8,-0.36 -3.12,-0.43 -1.33,-0.06 -3.05,-0.11 -5.16,-0.11 -1.69,0 -3.15,0.02 -4.36,0.05 -1.22,0.02 -2.24,0.06 -3.09,0.15 -0.85,0.08 -1.55,0.21 -2.07,0.39 -0.54,0.17 -0.98,0.37 -1.35,0.63 -0.34,0.26 -0.63,0.56 -0.82,0.93 -0.2,0.35 -0.37,0.81 -0.54,1.37 l -24.53,73.04 c -0.49,1.53 -0.8,2.74 -0.91,3.63 -0.11,0.9 0.11,1.57 0.63,2 0.52,0.46 1.43,0.72 2.72,0.83 1.26,0.11 3.04,0.18 5.35,0.18 1.95,0 3.48,-0.05 4.58,-0.14 1.09,-0.08 1.94,-0.24 2.55,-0.45 0.58,-0.22 1,-0.52 1.24,-0.96 0.24,-0.42 0.45,-0.95 0.67,-1.59 l 20.06,-63.56 h 0.05 l 19.69,63.24 c 0.18,0.74 0.37,1.3 0.63,1.76 0.27,0.43 0.7,0.8 1.31,1.04 0.6,0.26 1.5,0.44 2.65,0.52 1.13,0.09 2.72,0.14 4.7,0.14 1.95,0 3.47,-0.07 4.56,-0.2 1.09,-0.13 1.83,-0.44 2.24,-0.94 0.39,-0.47 0.52,-1.17 0.37,-2.06 -0.15,-0.89 -0.48,-2.09 -0.98,-3.57 l -24.58,-73.1"
         style="fill:#ffffff;fill-opacity:1;fill-rule:evenodd;stroke:none"
         id="path28" />
      <path
         d="m 1601.5,2180.48 c 0.21,-0.35 0.28,-0.77 0.21,-1.19 -0.05,-0.43 -0.3,-0.91 -0.76,-1.41 -0.43,-0.51 -1.07,-1.1 -1.92,-1.75 -0.85,-0.66 -1.97,-1.4 -3.39,-2.25 -1.39,-0.82 -2.58,-1.46 -3.58,-1.9 -1,-0.44 -1.83,-0.74 -2.49,-0.87 -0.64,-0.16 -1.18,-0.15 -1.6,0.01 -0.41,0.13 -0.72,0.4 -0.93,0.76 l -39.8,66.9 c -0.21,0.35 -0.3,0.76 -0.22,1.18 0.06,0.45 0.31,0.92 0.79,1.43 0.45,0.52 1.09,1.11 1.94,1.77 0.84,0.65 1.97,1.39 3.35,2.22 1.42,0.84 2.61,1.48 3.6,1.91 0.98,0.43 1.8,0.71 2.45,0.85 0.66,0.16 1.2,0.16 1.6,-0.01 0.41,-0.13 0.74,-0.39 0.95,-0.75 l 39.8,-66.9"
         style="fill:#ffffff;fill-opacity:1;fill-rule:evenodd;stroke:none"
         id="path30" />
      <path
         d="m 2014.36,2178.92 c -0.21,-0.36 -0.54,-0.62 -0.94,-0.76 -0.4,-0.18 -0.94,-0.19 -1.6,-0.03 -0.66,0.12 -1.48,0.39 -2.46,0.82 -1,0.41 -2.19,1.03 -3.63,1.86 -1.39,0.8 -2.52,1.53 -3.4,2.19 -0.88,0.66 -1.54,1.24 -1.98,1.74 -0.45,0.49 -0.7,0.96 -0.77,1.4 -0.08,0.43 0,0.83 0.21,1.19 l 38.92,67.41 c 0.2,0.36 0.51,0.64 0.92,0.78 0.42,0.16 0.96,0.17 1.64,0.01 0.67,-0.14 1.49,-0.42 2.48,-0.83 0.99,-0.43 2.19,-1.04 3.58,-1.85 1.43,-0.82 2.56,-1.55 3.42,-2.2 0.86,-0.65 1.51,-1.22 1.95,-1.72 0.46,-0.5 0.72,-0.97 0.77,-1.4 0.08,-0.42 0.01,-0.84 -0.19,-1.2 l -38.92,-67.41"
         style="fill:#ffffff;fill-opacity:1;fill-rule:evenodd;stroke:none"
         id="path32" />
      <path
         d="m 2044.48,2161.53 c -0.21,-0.36 -0.53,-0.62 -0.94,-0.76 -0.4,-0.18 -0.94,-0.19 -1.6,-0.04 -0.66,0.13 -1.48,0.4 -2.47,0.82 -0.99,0.42 -2.18,1.04 -3.61,1.87 -1.4,0.8 -2.53,1.53 -3.41,2.19 -0.88,0.66 -1.54,1.24 -1.98,1.74 -0.45,0.49 -0.7,0.96 -0.77,1.4 -0.08,0.43 0,0.83 0.21,1.19 l 38.92,67.41 c 0.21,0.36 0.51,0.63 0.92,0.78 0.42,0.16 0.96,0.17 1.64,0.01 0.67,-0.14 1.49,-0.42 2.48,-0.84 0.99,-0.42 2.19,-1.03 3.58,-1.84 1.43,-0.82 2.57,-1.55 3.43,-2.2 0.85,-0.65 1.5,-1.22 1.94,-1.72 0.46,-0.5 0.72,-0.97 0.77,-1.4 0.08,-0.43 0.02,-0.84 -0.19,-1.2 l -38.92,-67.41"
         style="fill:#ffffff;fill-opacity:1;fill-rule:evenodd;stroke:none"
         id="path34" />
      <path
         d="m 2172.93,2023.42 c -0.73,-0.17 -1.38,-0.22 -1.95,-0.17 -0.54,0.09 -1.12,0.38 -1.7,0.92 -0.58,0.57 -1.23,1.38 -1.95,2.49 -0.71,1.12 -1.61,2.59 -2.67,4.41 -0.84,1.47 -1.55,2.74 -2.14,3.81 -0.59,1.06 -1.07,1.97 -1.41,2.75 -0.35,0.78 -0.59,1.44 -0.7,1.98 -0.12,0.56 -0.17,1.03 -0.13,1.48 0.06,0.43 0.18,0.83 0.4,1.19 0.2,0.34 0.51,0.72 0.91,1.15 l 51,57.76 c 1.07,1.19 1.97,2.06 2.68,2.6 0.72,0.54 1.41,0.69 2.05,0.46 0.66,-0.23 1.34,-0.89 2.08,-1.95 0.72,-1.03 1.67,-2.54 2.82,-4.54 0.98,-1.69 1.7,-3.03 2.18,-4.03 0.47,-0.99 0.76,-1.8 0.88,-2.44 0.1,-0.61 0.04,-1.12 -0.21,-1.55 -0.24,-0.41 -0.6,-0.87 -1.04,-1.37 l -45.01,-49.16 0.02,-0.04 64.61,14.56 c 0.73,0.22 1.31,0.34 1.84,0.34 0.51,-0.01 1.05,-0.2 1.56,-0.61 0.52,-0.4 1.12,-1.08 1.77,-2.03 0.64,-0.94 1.48,-2.29 2.47,-4.01 0.98,-1.69 1.68,-3.04 2.11,-4.05 0.43,-1.01 0.53,-1.8 0.31,-2.41 -0.22,-0.57 -0.76,-1.03 -1.6,-1.35 -0.85,-0.31 -2.05,-0.63 -3.58,-0.93 l -75.6,-15.26"
         style="fill:#ffffff;fill-opacity:1;fill-rule:evenodd;stroke:none"
         id="path36" />
      <path
         d="m 2198.82,1977.25 c -0.35,-0.21 -0.77,-0.27 -1.19,-0.19 -0.43,0.05 -0.9,0.31 -1.4,0.78 -0.5,0.43 -1.08,1.08 -1.72,1.94 -0.65,0.85 -1.38,1.99 -2.21,3.42 -0.8,1.39 -1.42,2.59 -1.85,3.6 -0.43,1 -0.71,1.84 -0.84,2.5 -0.15,0.64 -0.13,1.18 0.03,1.6 0.14,0.4 0.41,0.71 0.77,0.92 l 67.42,38.92 c 0.36,0.21 0.76,0.29 1.18,0.21 0.45,-0.07 0.92,-0.32 1.43,-0.81 0.51,-0.46 1.08,-1.1 1.73,-1.96 0.65,-0.86 1.38,-1.99 2.18,-3.39 0.83,-1.43 1.44,-2.63 1.86,-3.61 0.42,-0.99 0.7,-1.81 0.83,-2.47 0.15,-0.66 0.14,-1.2 -0.04,-1.6 -0.14,-0.4 -0.4,-0.73 -0.76,-0.94 l -67.42,-38.92"
         style="fill:#ffffff;fill-opacity:1;fill-rule:evenodd;stroke:none"
         id="path38" />
      <path
         d="m 1247.63,2734.91 c 0.2,-0.36 0.26,-0.77 0.18,-1.2 -0.05,-0.43 -0.31,-0.9 -0.77,-1.4 -0.44,-0.5 -1.09,-1.08 -1.94,-1.72 -0.86,-0.65 -1.99,-1.38 -3.42,-2.2 -1.4,-0.81 -2.6,-1.43 -3.61,-1.85 -1,-0.44 -1.84,-0.72 -2.5,-0.85 -0.64,-0.14 -1.18,-0.13 -1.59,0.03 -0.41,0.14 -0.72,0.42 -0.93,0.78 l -38.92,67.41 c -0.2,0.36 -0.29,0.76 -0.21,1.18 0.08,0.45 0.33,0.92 0.81,1.43 0.46,0.51 1.11,1.09 1.97,1.73 0.85,0.65 1.98,1.38 3.38,2.18 1.43,0.83 2.63,1.45 3.62,1.87 0.98,0.41 1.81,0.69 2.46,0.82 0.66,0.15 1.2,0.13 1.6,-0.04 0.41,-0.13 0.74,-0.4 0.94,-0.76 l 38.93,-67.41"
         style="fill:#ffffff;fill-opacity:1;fill-rule:evenodd;stroke:none"
         id="path40" />
      <path
         d="m 1277.74,2752.3 c 0.21,-0.36 0.27,-0.77 0.19,-1.2 -0.05,-0.43 -0.3,-0.9 -0.77,-1.4 -0.44,-0.5 -1.09,-1.07 -1.94,-1.72 -0.86,-0.65 -1.99,-1.37 -3.42,-2.2 -1.4,-0.81 -2.6,-1.42 -3.6,-1.85 -1.01,-0.44 -1.85,-0.72 -2.5,-0.85 -0.65,-0.14 -1.18,-0.13 -1.6,0.03 -0.41,0.14 -0.72,0.42 -0.93,0.78 l -38.92,67.41 c -0.21,0.36 -0.29,0.76 -0.21,1.18 0.07,0.45 0.33,0.92 0.82,1.43 0.45,0.51 1.1,1.09 1.96,1.73 0.85,0.65 1.98,1.38 3.38,2.18 1.43,0.83 2.63,1.45 3.62,1.87 0.98,0.42 1.81,0.69 2.46,0.81 0.66,0.16 1.2,0.14 1.6,-0.03 0.41,-0.14 0.73,-0.4 0.94,-0.76 l 38.92,-67.41"
         style="fill:#ffffff;fill-opacity:1;fill-rule:evenodd;stroke:none"
         id="path42" />
      <path
         d="m 1307.86,2769.69 c 0.21,-0.36 0.27,-0.77 0.19,-1.2 -0.05,-0.43 -0.3,-0.9 -0.77,-1.4 -0.44,-0.5 -1.08,-1.08 -1.94,-1.72 -0.86,-0.65 -1.99,-1.38 -3.43,-2.2 -1.39,-0.81 -2.59,-1.42 -3.59,-1.85 -1.01,-0.44 -1.85,-0.72 -2.5,-0.85 -0.65,-0.14 -1.18,-0.13 -1.61,0.03 -0.4,0.14 -0.71,0.42 -0.92,0.78 l -38.92,67.41 c -0.21,0.36 -0.29,0.76 -0.21,1.19 0.07,0.44 0.33,0.91 0.81,1.42 0.46,0.51 1.11,1.09 1.96,1.73 0.86,0.65 2,1.38 3.39,2.18 1.43,0.83 2.63,1.45 3.62,1.87 0.99,0.42 1.81,0.69 2.46,0.81 0.66,0.16 1.2,0.15 1.6,-0.03 0.41,-0.14 0.73,-0.4 0.94,-0.76 l 38.92,-67.41"
         style="fill:#ffffff;fill-opacity:1;fill-rule:evenodd;stroke:none"
         id="path44" />
      <path
         d="m 1198.52,2696.74 -48.98,73.35 3.17,2.12 28.53,-42.71 c 1.21,4.74 3.45,8.19 6.69,10.36 2.58,1.71 5.24,2.35 8.03,1.93 2.79,-0.43 5.23,-2.11 7.31,-4.99 1.35,-2.13 1.98,-4.66 1.91,-7.59 -0.08,-2.93 -0.62,-6.27 -1.62,-10.03 -0.99,-3.77 -2.03,-7.66 -3.09,-11.69 -1.07,-4.04 -1.72,-7.61 -1.95,-10.75 z m -13.98,27.81 12.26,-18.35 c 0.81,6.09 1.25,11.05 1.32,14.89 0.06,3.82 -0.87,7.18 -2.79,10.07 -1.28,1.67 -2.65,2.71 -4.07,3.05 -1.44,0.37 -2.78,0.13 -4,-0.69 -2.43,-1.62 -3.34,-4.6 -2.72,-8.97"
         style="fill:#ffffff;fill-opacity:1;fill-rule:evenodd;stroke:none"
         id="path46" />
      <path
         d="m 1787.86,2890.82 c -0.22,-0.72 -0.5,-1.3 -0.83,-1.76 -0.35,-0.43 -0.89,-0.79 -1.65,-1.02 -0.79,-0.22 -1.81,-0.37 -3.13,-0.44 -1.33,-0.06 -3.05,-0.1 -5.15,-0.1 -1.7,0 -3.16,0.02 -4.37,0.04 -1.22,0.02 -2.24,0.06 -3.09,0.15 -0.85,0.09 -1.55,0.22 -2.07,0.39 -0.54,0.17 -0.97,0.37 -1.34,0.63 -0.35,0.26 -0.64,0.56 -0.83,0.93 -0.19,0.35 -0.37,0.81 -0.54,1.38 l -24.52,73.03 c -0.5,1.53 -0.81,2.74 -0.92,3.63 -0.1,0.89 0.11,1.57 0.63,2 0.52,0.46 1.44,0.72 2.72,0.83 1.26,0.11 3.04,0.17 5.35,0.17 1.95,0 3.48,-0.04 4.58,-0.13 1.09,-0.08 1.94,-0.23 2.55,-0.45 0.59,-0.22 1,-0.52 1.24,-0.96 0.24,-0.41 0.46,-0.95 0.67,-1.59 l 20.07,-63.56 h 0.04 l 19.69,63.24 c 0.18,0.74 0.37,1.3 0.63,1.76 0.27,0.44 0.7,0.8 1.31,1.04 0.61,0.26 1.5,0.44 2.65,0.52 1.13,0.09 2.72,0.13 4.7,0.13 1.95,0 3.47,-0.06 4.56,-0.19 1.09,-0.13 1.83,-0.44 2.24,-0.94 0.39,-0.47 0.52,-1.17 0.37,-2.06 -0.15,-0.89 -0.48,-2.09 -0.98,-3.57 l -24.58,-73.1"
         style="fill:#ffffff;fill-opacity:1;fill-rule:evenodd;stroke:none"
         id="path48" />
      <path
         d="m 1840.79,2890.17 c 0,-0.42 -0.15,-0.81 -0.43,-1.13 -0.27,-0.35 -0.72,-0.63 -1.38,-0.83 -0.62,-0.22 -1.47,-0.39 -2.54,-0.52 -1.06,-0.13 -2.41,-0.19 -4.06,-0.19 -1.61,0 -2.96,0.06 -4.05,0.19 -1.08,0.13 -1.95,0.3 -2.58,0.52 -0.63,0.2 -1.09,0.48 -1.37,0.83 -0.29,0.32 -0.42,0.71 -0.42,1.13 v 77.84 c 0,0.42 0.13,0.81 0.42,1.13 0.28,0.35 0.74,0.63 1.41,0.83 0.65,0.21 1.5,0.39 2.57,0.52 1.06,0.13 2.41,0.19 4.02,0.19 1.65,0 3,-0.06 4.06,-0.19 1.07,-0.13 1.92,-0.31 2.54,-0.52 0.66,-0.2 1.11,-0.48 1.38,-0.83 0.28,-0.32 0.43,-0.71 0.43,-1.13 v -77.84"
         style="fill:#ffffff;fill-opacity:1;fill-rule:evenodd;stroke:none"
         id="path50" />
      <path
         d="m 1875.57,2890.17 c 0,-0.42 -0.15,-0.81 -0.43,-1.13 -0.26,-0.35 -0.72,-0.63 -1.37,-0.83 -0.64,-0.22 -1.48,-0.39 -2.55,-0.52 -1.06,-0.13 -2.41,-0.19 -4.06,-0.19 -1.61,0 -2.96,0.06 -4.05,0.19 -1.08,0.13 -1.95,0.3 -2.58,0.52 -0.63,0.2 -1.09,0.48 -1.37,0.83 -0.28,0.32 -0.41,0.71 -0.41,1.13 v 77.84 c 0,0.42 0.13,0.81 0.41,1.13 0.28,0.35 0.74,0.63 1.41,0.83 0.65,0.21 1.5,0.39 2.57,0.52 1.06,0.13 2.41,0.19 4.02,0.19 1.65,0 3,-0.06 4.06,-0.19 1.07,-0.13 1.91,-0.31 2.55,-0.52 0.65,-0.2 1.11,-0.48 1.37,-0.83 0.28,-0.32 0.43,-0.71 0.43,-1.13 v -77.84"
         style="fill:#ffffff;fill-opacity:1;fill-rule:evenodd;stroke:none"
         id="path52" />
      <path
         d="m 1705,2880.29 -7.24,87.91 3.81,0.31 4.22,-51.19 c 3.36,3.55 6.98,5.48 10.88,5.8 3.08,0.26 5.72,-0.48 7.95,-2.21 2.24,-1.73 3.55,-4.37 3.97,-7.9 0.15,-2.52 -0.52,-5.05 -2.01,-7.56 -1.49,-2.53 -3.58,-5.19 -6.28,-7.99 -2.7,-2.82 -5.5,-5.71 -8.37,-8.73 -2.91,-3 -5.21,-5.81 -6.93,-8.44 z m 1.27,31.1 1.81,-22 c 3.67,4.93 6.46,9.05 8.38,12.38 1.92,3.3 2.74,6.7 2.45,10.15 -0.3,2.09 -1.01,3.66 -2.08,4.65 -1.07,1.02 -2.36,1.46 -3.83,1.34 -2.91,-0.24 -5.15,-2.41 -6.73,-6.52"
         style="fill:#ffffff;fill-opacity:1;fill-rule:evenodd;stroke:none"
         id="path54" />
      <path
         d="m 1618.64,2136.66 c 40.12,23.16 53.95,74.77 30.79,114.89 -23.17,40.12 -74.77,53.95 -114.9,30.79 -40.12,-23.17 -53.95,-74.78 -30.78,-114.89 23.16,-40.13 74.77,-53.95 114.89,-30.79 z m -5.74,9.94 c 34.65,20 46.59,64.57 26.58,99.21 -20,34.65 -64.56,46.59 -99.21,26.59 -34.64,-20.01 -46.59,-64.57 -26.58,-99.22 20,-34.64 64.57,-46.58 99.21,-26.58"
         style="fill:#ffffff;fill-opacity:1;fill-rule:evenodd;stroke:none"
         id="path56" />
    </g>
  </g>
</svg>
