<?xml version="1.0" encoding="UTF-8" standalone="no"?>
<svg
   xmlns:dc="http://purl.org/dc/elements/1.1/"
   xmlns:cc="http://creativecommons.org/ns#"
   xmlns:rdf="http://www.w3.org/1999/02/22-rdf-syntax-ns#"
   xmlns:svg="http://www.w3.org/2000/svg"
   xmlns="http://www.w3.org/2000/svg"
   viewBox="0 0 482.66666 482.66666"
   height="482.66666"
   width="482.66666"
   xml:space="preserve"
   id="svg2"
   version="1.1"><metadata
     id="metadata8"><rdf:RDF><cc:Work
         rdf:about=""><dc:format>image/svg+xml</dc:format><dc:type
           rdf:resource="http://purl.org/dc/dcmitype/StillImage" /></cc:Work></rdf:RDF></metadata><defs
     id="defs6" /><g
     transform="matrix(1.3333333,0,0,-1.3333333,0,482.66667)"
     id="g10"><g
       transform="scale(0.1)"
       id="g12"><path
         id="path14"
         style="fill:#ffffff;fill-opacity:1;fill-rule:evenodd;stroke:none"
         d="M 1.12109,3615.79 H 56.918 v -55.8 H 1.12109 v 55.8" /><path
         id="path16"
         style="fill:#ffffff;fill-opacity:1;fill-rule:evenodd;stroke:none"
         d="m 3556.5,3615.79 h 55.79 v -55.8 h -55.79 v 55.8" /><path
         id="path18"
         style="fill:#ffffff;fill-opacity:1;fill-rule:evenodd;stroke:none"
         d="M 1.12109,60.4102 H 56.918 V 4.61328 H 1.12109 V 60.4102" /><path
         id="path20"
         style="fill:#ffffff;fill-opacity:1;fill-rule:evenodd;stroke:none"
         d="m 3556.5,60.4102 h 55.79 V 4.61328 H 3556.5 V 60.4102" /><path
         id="path22"
         style="fill:#1a1f20;fill-opacity:1;fill-rule:evenodd;stroke:none"
         d="m 2317.28,1947.19 c -62.36,225.99 -270,392.79 -515.36,392.79 -144.88,0 -274.51,-60.29 -370.95,-154.46 l 94.43,-93.48 c 72.17,72.05 171.69,116.71 281.3,116.71 184,0 339.55,-125.83 385.03,-295.82 l 125.55,34.26" /><path
         id="path24"
         style="fill:#1a1f20;fill-opacity:1;fill-rule:evenodd;stroke:none"
         d="m 2079.51,2829.37 c -87.07,23.38 -178.53,35.86 -272.81,35.86 -290.52,0 -554.25,-118.48 -745.36,-309.59 l -91.93,91.93 c 214.68,214.68 510.94,347.77 837.29,347.77 105.9,0 208.63,-14.01 306.44,-40.28 -9.09,-33.99 -26.17,-101.42 -33.63,-125.69" /><path
         id="path26"
         style="fill:#ffffff;fill-opacity:1;fill-rule:evenodd;stroke:none"
         d="m 1815.75,2233.36 c 0,-0.42 -0.14,-0.81 -0.43,-1.13 -0.26,-0.35 -0.72,-0.64 -1.37,-0.83 -0.63,-0.22 -1.48,-0.39 -2.54,-0.52 -1.07,-0.13 -2.41,-0.2 -4.07,-0.2 -1.61,0 -2.95,0.07 -4.04,0.2 -1.09,0.13 -1.96,0.3 -2.59,0.52 -0.63,0.19 -1.08,0.48 -1.37,0.83 -0.28,0.32 -0.41,0.71 -0.41,1.13 v 77.84 c 0,0.41 0.13,0.8 0.41,1.13 0.29,0.35 0.74,0.63 1.42,0.83 0.65,0.21 1.5,0.39 2.56,0.52 1.07,0.13 2.41,0.2 4.02,0.2 1.66,0 3,-0.07 4.07,-0.2 1.06,-0.13 1.91,-0.31 2.54,-0.52 0.65,-0.2 1.11,-0.48 1.37,-0.83 0.29,-0.33 0.43,-0.72 0.43,-1.13 v -77.84" /><path
         id="path28"
         style="fill:#ffffff;fill-opacity:1;fill-rule:evenodd;stroke:none"
         d="m 1572.96,2163.85 c 0.2,-0.36 0.27,-0.78 0.18,-1.2 -0.05,-0.43 -0.3,-0.9 -0.77,-1.4 -0.44,-0.5 -1.08,-1.08 -1.94,-1.72 -0.86,-0.65 -1.99,-1.38 -3.42,-2.21 -1.4,-0.8 -2.6,-1.42 -3.6,-1.85 -1.01,-0.43 -1.85,-0.71 -2.5,-0.84 -0.64,-0.15 -1.18,-0.13 -1.6,0.03 -0.41,0.14 -0.72,0.41 -0.92,0.77 l -38.93,67.42 c -0.2,0.36 -0.29,0.76 -0.2,1.18 0.07,0.45 0.32,0.92 0.81,1.43 0.45,0.51 1.1,1.08 1.96,1.73 0.85,0.65 1.99,1.38 3.38,2.18 1.43,0.83 2.63,1.44 3.62,1.86 0.99,0.42 1.81,0.7 2.46,0.82 0.67,0.16 1.21,0.15 1.6,-0.03 0.41,-0.14 0.74,-0.4 0.95,-0.76 l 38.92,-67.41" /><path
         id="path30"
         style="fill:#ffffff;fill-opacity:1;fill-rule:evenodd;stroke:none"
         d="m 1623.7,2193.9 c 0.18,-0.73 0.22,-1.38 0.17,-1.94 -0.08,-0.55 -0.38,-1.12 -0.92,-1.71 -0.57,-0.58 -1.38,-1.22 -2.49,-1.94 -1.12,-0.72 -2.58,-1.62 -4.41,-2.67 -1.47,-0.85 -2.74,-1.56 -3.81,-2.15 -1.06,-0.59 -1.97,-1.06 -2.75,-1.41 -0.78,-0.35 -1.44,-0.58 -1.98,-0.69 -0.56,-0.12 -1.03,-0.18 -1.48,-0.13 -0.44,0.05 -0.83,0.17 -1.19,0.39 -0.34,0.21 -0.72,0.52 -1.15,0.92 l -57.76,50.99 c -1.19,1.07 -2.06,1.97 -2.6,2.69 -0.54,0.71 -0.69,1.41 -0.45,2.05 0.22,0.65 0.88,1.33 1.93,2.07 1.04,0.73 2.55,1.67 4.55,2.83 1.69,0.98 3.03,1.7 4.03,2.18 0.99,0.46 1.8,0.76 2.44,0.87 0.61,0.11 1.12,0.05 1.55,-0.21 0.41,-0.24 0.87,-0.59 1.37,-1.03 l 49.16,-45.02 0.04,0.03 -14.56,64.61 c -0.22,0.72 -0.34,1.31 -0.34,1.83 0.01,0.51 0.2,1.05 0.61,1.56 0.4,0.53 1.08,1.13 2.04,1.78 0.93,0.64 2.28,1.47 4,2.46 1.69,0.98 3.04,1.68 4.05,2.12 1,0.42 1.8,0.53 2.41,0.3 0.57,-0.22 1.04,-0.75 1.35,-1.6 0.31,-0.85 0.63,-2.05 0.93,-3.58 l 15.26,-75.6" /><path
         id="path32"
         style="fill:#ffffff;fill-opacity:1;fill-rule:evenodd;stroke:none"
         d="m 2032.36,2169.28 c -0.55,-0.52 -1.09,-0.88 -1.6,-1.12 -0.51,-0.2 -1.16,-0.23 -1.94,-0.05 -0.78,0.2 -1.75,0.58 -2.93,1.18 -1.18,0.61 -2.69,1.43 -4.51,2.49 -1.47,0.85 -2.72,1.59 -3.76,2.22 -1.05,0.63 -1.91,1.17 -2.6,1.67 -0.69,0.5 -1.23,0.96 -1.59,1.37 -0.39,0.42 -0.67,0.82 -0.86,1.23 -0.17,0.39 -0.26,0.8 -0.25,1.22 0.01,0.4 0.09,0.88 0.22,1.46 l 15.28,75.51 c 0.33,1.57 0.68,2.77 1.03,3.6 0.35,0.83 0.88,1.3 1.54,1.42 0.68,0.13 1.61,-0.1 2.77,-0.65 1.15,-0.53 2.72,-1.37 4.72,-2.52 1.69,-0.98 2.99,-1.78 3.91,-2.41 0.89,-0.61 1.55,-1.17 1.97,-1.67 0.4,-0.48 0.6,-0.94 0.6,-1.44 0,-0.48 -0.09,-1.06 -0.22,-1.71 l -14.4,-65.08 0.04,-0.02 48.67,44.91 c 0.52,0.56 0.98,0.95 1.43,1.21 0.44,0.25 1,0.35 1.65,0.26 0.66,-0.08 1.52,-0.38 2.56,-0.88 1.02,-0.49 2.42,-1.25 4.13,-2.23 1.69,-0.98 2.98,-1.8 3.85,-2.46 0.88,-0.65 1.37,-1.29 1.48,-1.92 0.09,-0.62 -0.14,-1.28 -0.71,-1.98 -0.58,-0.69 -1.46,-1.57 -2.64,-2.6 l -57.84,-51.01" /><path
         id="path34"
         style="fill:#ffffff;fill-opacity:1;fill-rule:evenodd;stroke:none"
         d="m 2170.85,2025.71 c -0.36,-0.21 -0.77,-0.27 -1.2,-0.19 -0.43,0.05 -0.9,0.3 -1.4,0.77 -0.5,0.44 -1.07,1.09 -1.72,1.94 -0.65,0.86 -1.37,1.99 -2.2,3.42 -0.81,1.4 -1.42,2.6 -1.85,3.6 -0.44,1.01 -0.72,1.85 -0.84,2.5 -0.15,0.65 -0.13,1.18 0.02,1.61 0.14,0.4 0.42,0.71 0.78,0.92 l 67.41,38.92 c 0.36,0.21 0.76,0.29 1.19,0.21 0.44,-0.07 0.91,-0.33 1.42,-0.81 0.51,-0.46 1.09,-1.11 1.74,-1.96 0.64,-0.86 1.37,-2 2.18,-3.39 0.82,-1.43 1.44,-2.63 1.86,-3.62 0.42,-0.99 0.69,-1.81 0.82,-2.46 0.15,-0.66 0.14,-1.2 -0.04,-1.6 -0.13,-0.41 -0.4,-0.73 -0.75,-0.94 l -67.42,-38.92" /><path
         id="path36"
         style="fill:#ffffff;fill-opacity:1;fill-rule:evenodd;stroke:none"
         d="m 2188.24,1995.59 c -0.36,-0.21 -0.77,-0.27 -1.2,-0.2 -0.43,0.06 -0.9,0.31 -1.4,0.78 -0.5,0.44 -1.07,1.08 -1.72,1.94 -0.65,0.86 -1.37,2 -2.2,3.43 -0.81,1.39 -1.42,2.59 -1.85,3.59 -0.44,1.01 -0.72,1.85 -0.85,2.5 -0.14,0.65 -0.13,1.19 0.03,1.6 0.15,0.41 0.42,0.72 0.78,0.93 l 67.41,38.92 c 0.36,0.21 0.76,0.29 1.19,0.21 0.44,-0.08 0.91,-0.33 1.42,-0.81 0.51,-0.46 1.09,-1.11 1.74,-1.96 0.64,-0.86 1.37,-2 2.18,-3.39 0.82,-1.43 1.44,-2.63 1.86,-3.62 0.42,-0.99 0.69,-1.81 0.82,-2.46 0.15,-0.66 0.14,-1.2 -0.04,-1.6 -0.14,-0.41 -0.4,-0.74 -0.76,-0.94 l -67.41,-38.92" /><path
         id="path38"
         style="fill:#ffffff;fill-opacity:1;fill-rule:evenodd;stroke:none"
         d="m 1264.97,2745.68 c 0.17,-0.73 0.22,-1.38 0.17,-1.94 -0.09,-0.55 -0.38,-1.12 -0.92,-1.71 -0.57,-0.58 -1.38,-1.22 -2.49,-1.94 -1.12,-0.72 -2.59,-1.62 -4.41,-2.67 -1.47,-0.85 -2.74,-1.56 -3.81,-2.15 -1.06,-0.59 -1.97,-1.06 -2.75,-1.41 -0.78,-0.35 -1.44,-0.58 -1.98,-0.7 -0.56,-0.12 -1.03,-0.16 -1.48,-0.12 -0.43,0.05 -0.83,0.17 -1.19,0.39 -0.34,0.21 -0.72,0.52 -1.15,0.92 l -57.76,50.99 c -1.19,1.07 -2.06,1.97 -2.6,2.69 -0.54,0.72 -0.69,1.41 -0.46,2.05 0.23,0.65 0.89,1.33 1.95,2.07 1.03,0.73 2.54,1.67 4.54,2.83 1.69,0.97 3.03,1.7 4.03,2.18 0.99,0.47 1.8,0.75 2.44,0.87 0.61,0.11 1.12,0.05 1.55,-0.21 0.41,-0.24 0.87,-0.6 1.37,-1.03 l 49.16,-45.02 0.04,0.02 -14.56,64.62 c -0.22,0.72 -0.34,1.31 -0.34,1.84 0.01,0.5 0.2,1.04 0.61,1.55 0.4,0.53 1.08,1.13 2.03,1.78 0.94,0.64 2.29,1.47 4.01,2.46 1.69,0.98 3.04,1.68 4.05,2.11 1.01,0.43 1.8,0.54 2.41,0.31 0.57,-0.22 1.03,-0.75 1.35,-1.6 0.31,-0.85 0.63,-2.05 0.93,-3.58 l 15.26,-75.6" /><path
         id="path40"
         style="fill:#ffffff;fill-opacity:1;fill-rule:evenodd;stroke:none"
         d="m 1311.14,2771.58 c 0.21,-0.36 0.27,-0.77 0.19,-1.2 -0.05,-0.43 -0.31,-0.9 -0.78,-1.4 -0.43,-0.5 -1.08,-1.07 -1.94,-1.72 -0.85,-0.65 -1.99,-1.37 -3.42,-2.2 -1.39,-0.81 -2.59,-1.42 -3.6,-1.85 -1,-0.44 -1.84,-0.72 -2.5,-0.85 -0.64,-0.14 -1.18,-0.12 -1.6,0.03 -0.41,0.15 -0.71,0.42 -0.92,0.78 l -38.92,67.41 c -0.21,0.36 -0.29,0.76 -0.21,1.19 0.07,0.44 0.33,0.91 0.81,1.42 0.46,0.51 1.11,1.09 1.96,1.74 0.86,0.64 1.99,1.37 3.39,2.18 1.43,0.82 2.63,1.44 3.61,1.86 0.99,0.42 1.81,0.69 2.47,0.82 0.66,0.15 1.2,0.14 1.6,-0.03 0.4,-0.14 0.73,-0.41 0.94,-0.76 l 38.92,-67.42" /><path
         id="path42"
         style="fill:#ffffff;fill-opacity:1;fill-rule:evenodd;stroke:none"
         d="m 1202.94,2699.45 -48.66,73.57 3.18,2.1 28.34,-42.84 c 1.24,4.74 3.49,8.17 6.74,10.33 2.59,1.7 5.25,2.34 8.04,1.89 2.79,-0.44 5.22,-2.12 7.29,-5.02 1.34,-2.14 1.96,-4.67 1.87,-7.6 -0.09,-2.92 -0.65,-6.26 -1.66,-10.02 -1.01,-3.76 -2.07,-7.65 -3.14,-11.68 -1.09,-4.03 -1.76,-7.6 -2,-10.73 z m -13.86,27.87 12.18,-18.41 c 0.84,6.08 1.29,11.04 1.38,14.89 0.09,3.81 -0.83,7.18 -2.74,10.07 -1.27,1.68 -2.65,2.72 -4.06,3.08 -1.43,0.37 -2.77,0.14 -4,-0.68 -2.43,-1.61 -3.36,-4.59 -2.76,-8.95" /><path
         id="path44"
         style="fill:#ffffff;fill-opacity:1;fill-rule:evenodd;stroke:none"
         d="m 1807.02,2186.97 c 46.33,0 84.11,37.78 84.11,84.1 0,46.34 -37.78,84.11 -84.11,84.11 -46.33,0 -84.11,-37.77 -84.11,-84.11 0,-46.32 37.78,-84.1 84.11,-84.1 z m 0,11.48 c 40,0 72.63,32.62 72.63,72.62 0,40.01 -32.63,72.64 -72.63,72.64 -40,0 -72.63,-32.63 -72.63,-72.64 0,-40 32.63,-72.62 72.63,-72.62" /><path
         id="path46"
         style="fill:#1a1f20;fill-opacity:1;fill-rule:evenodd;stroke:none"
         d="m 1943.97,1297.91 c 91.18,24.27 172.58,72.8 238.48,137.15 l -94.43,93.49 c -48.68,-48.6 -109.81,-84.74 -178.08,-103.12 12.71,-48.2 21.8,-82.09 34.03,-127.52" /><path
         id="path48"
         style="fill:#ffffff;fill-opacity:1;fill-rule:evenodd;stroke:none"
         d="m 2034.89,1452.77 c -0.17,0.73 -0.21,1.38 -0.16,1.94 0.08,0.55 0.38,1.12 0.92,1.71 0.57,0.58 1.38,1.22 2.49,1.94 1.12,0.72 2.59,1.62 4.41,2.67 1.47,0.85 2.74,1.56 3.81,2.15 1.06,0.59 1.97,1.06 2.75,1.41 0.77,0.35 1.44,0.58 1.98,0.7 0.56,0.12 1.03,0.16 1.48,0.12 0.43,-0.05 0.83,-0.17 1.18,-0.39 0.35,-0.21 0.73,-0.52 1.16,-0.92 l 57.76,-50.99 c 1.19,-1.07 2.06,-1.97 2.6,-2.69 0.54,-0.72 0.69,-1.41 0.46,-2.04 -0.23,-0.66 -0.89,-1.34 -1.94,-2.08 -1.04,-0.73 -2.55,-1.67 -4.55,-2.82 -1.69,-0.98 -3.03,-1.71 -4.04,-2.18 -0.98,-0.48 -1.79,-0.76 -2.43,-0.88 -0.61,-0.11 -1.13,-0.05 -1.55,0.21 -0.41,0.24 -0.87,0.6 -1.38,1.03 l -49.15,45.02 -0.04,-0.02 14.56,-64.61 c 0.22,-0.73 0.33,-1.32 0.34,-1.84 -0.01,-0.51 -0.21,-1.05 -0.61,-1.56 -0.4,-0.53 -1.08,-1.13 -2.04,-1.78 -0.93,-0.64 -2.29,-1.47 -4,-2.46 -1.69,-0.98 -3.04,-1.68 -4.05,-2.11 -1.01,-0.43 -1.8,-0.54 -2.41,-0.31 -0.57,0.22 -1.04,0.75 -1.35,1.6 -0.31,0.85 -0.63,2.05 -0.93,3.58 l -15.27,75.6" /><path
         id="path50"
         style="fill:#ffffff;fill-opacity:1;fill-rule:evenodd;stroke:none"
         d="m 1988.73,1426.87 c -0.21,0.36 -0.27,0.77 -0.19,1.2 0.05,0.43 0.3,0.9 0.77,1.39 0.44,0.51 1.08,1.08 1.94,1.73 0.86,0.65 2,1.38 3.43,2.2 1.39,0.81 2.59,1.42 3.6,1.85 1,0.44 1.84,0.72 2.5,0.85 0.64,0.14 1.18,0.12 1.6,-0.04 0.41,-0.14 0.71,-0.41 0.92,-0.77 l 38.92,-67.41 c 0.21,-0.36 0.29,-0.76 0.21,-1.19 -0.07,-0.44 -0.33,-0.91 -0.81,-1.42 -0.46,-0.51 -1.1,-1.09 -1.96,-1.74 -0.86,-0.64 -2,-1.37 -3.39,-2.18 -1.43,-0.82 -2.63,-1.44 -3.62,-1.86 -0.98,-0.42 -1.81,-0.69 -2.46,-0.82 -0.66,-0.15 -1.2,-0.14 -1.6,0.04 -0.41,0.14 -0.73,0.4 -0.94,0.76 l -38.92,67.41" /><path
         id="path52"
         style="fill:#ffffff;fill-opacity:1;fill-rule:evenodd;stroke:none"
         d="m 1958.61,1409.48 c -0.21,0.36 -0.27,0.77 -0.19,1.2 0.05,0.43 0.31,0.9 0.77,1.39 0.44,0.51 1.09,1.09 1.94,1.73 0.86,0.65 2,1.38 3.42,2.2 1.4,0.8 2.6,1.42 3.61,1.85 1,0.44 1.84,0.72 2.5,0.85 0.64,0.14 1.18,0.12 1.59,-0.04 0.41,-0.14 0.72,-0.41 0.93,-0.77 l 38.92,-67.41 c 0.2,-0.36 0.29,-0.77 0.21,-1.19 -0.08,-0.44 -0.33,-0.91 -0.81,-1.42 -0.46,-0.51 -1.11,-1.09 -1.96,-1.73 -0.86,-0.65 -1.99,-1.38 -3.39,-2.19 -1.43,-0.82 -2.63,-1.44 -3.61,-1.86 -0.99,-0.42 -1.82,-0.69 -2.47,-0.82 -0.66,-0.15 -1.2,-0.14 -1.6,0.03 -0.41,0.15 -0.74,0.41 -0.94,0.77 l -38.92,67.41" /><path
         id="path54"
         style="fill:#ffffff;fill-opacity:1;fill-rule:evenodd;stroke:none"
         d="m 1803.23,2890.19 c 0,-0.42 -0.14,-0.81 -0.42,-1.14 -0.26,-0.35 -0.71,-0.64 -1.36,-0.84 -0.63,-0.22 -1.48,-0.41 -2.54,-0.54 -1.07,-0.15 -2.41,-0.22 -4.06,-0.24 -1.61,-0.02 -2.96,0.03 -4.05,0.15 -1.09,0.12 -1.96,0.29 -2.59,0.5 -0.63,0.19 -1.09,0.47 -1.38,0.81 -0.29,0.32 -0.42,0.71 -0.42,1.13 l -0.8,77.84 c -0.01,0.41 0.12,0.8 0.4,1.13 0.28,0.35 0.73,0.64 1.4,0.84 0.65,0.22 1.5,0.41 2.56,0.55 1.07,0.14 2.41,0.22 4.02,0.24 1.65,0.01 3,-0.04 4.07,-0.16 1.07,-0.12 1.92,-0.28 2.55,-0.49 0.65,-0.19 1.11,-0.47 1.37,-0.82 0.29,-0.32 0.45,-0.71 0.45,-1.12 l 0.8,-77.84" /><path
         id="path56"
         style="fill:#ffffff;fill-opacity:1;fill-rule:evenodd;stroke:none"
         d="m 1838.01,2890.55 c 0,-0.42 -0.14,-0.81 -0.42,-1.14 -0.26,-0.35 -0.71,-0.64 -1.36,-0.84 -0.63,-0.22 -1.48,-0.41 -2.54,-0.55 -1.06,-0.14 -2.41,-0.22 -4.06,-0.23 -1.61,-0.02 -2.96,0.03 -4.05,0.15 -1.09,0.12 -1.96,0.28 -2.59,0.49 -0.63,0.2 -1.09,0.47 -1.38,0.82 -0.29,0.32 -0.42,0.71 -0.42,1.12 l -0.8,77.84 c -0.01,0.42 0.12,0.81 0.4,1.14 0.28,0.35 0.73,0.63 1.4,0.84 0.65,0.22 1.5,0.4 2.56,0.55 1.07,0.14 2.41,0.22 4.02,0.23 1.65,0.02 3,-0.03 4.07,-0.15 1.06,-0.12 1.91,-0.28 2.55,-0.5 0.65,-0.19 1.11,-0.46 1.38,-0.81 0.28,-0.32 0.44,-0.71 0.44,-1.12 l 0.8,-77.84" /><path
         id="path58"
         style="fill:#ffffff;fill-opacity:1;fill-rule:evenodd;stroke:none"
         d="m 1872.79,2890.9 c 0,-0.41 -0.15,-0.8 -0.42,-1.13 -0.26,-0.35 -0.72,-0.64 -1.37,-0.84 -0.62,-0.23 -1.47,-0.41 -2.53,-0.55 -1.07,-0.14 -2.42,-0.22 -4.06,-0.24 -1.62,-0.01 -2.96,0.04 -4.05,0.16 -1.09,0.11 -1.96,0.28 -2.59,0.49 -0.63,0.19 -1.09,0.47 -1.38,0.82 -0.29,0.32 -0.42,0.71 -0.43,1.12 l -0.8,77.84 c 0,0.41 0.13,0.81 0.41,1.13 0.28,0.35 0.73,0.64 1.4,0.85 0.65,0.22 1.49,0.4 2.56,0.54 1.06,0.14 2.41,0.22 4.02,0.24 1.65,0.02 3,-0.03 4.07,-0.15 1.06,-0.12 1.91,-0.29 2.54,-0.5 0.66,-0.19 1.12,-0.47 1.38,-0.81 0.29,-0.32 0.44,-0.71 0.45,-1.13 l 0.8,-77.84" /><path
         id="path60"
         style="fill:#ffffff;fill-opacity:1;fill-rule:evenodd;stroke:none"
         d="m 1740.76,2883.07 -4.3,88.11 3.81,0.18 2.51,-51.3 c 3.47,3.44 7.17,5.24 11.07,5.44 3.09,0.15 5.7,-0.67 7.87,-2.47 2.18,-1.81 3.41,-4.49 3.71,-8.04 0.06,-2.52 -0.7,-5.02 -2.27,-7.49 -1.57,-2.47 -3.75,-5.06 -6.54,-7.77 -2.79,-2.73 -5.68,-5.53 -8.66,-8.44 -3,-2.91 -5.39,-5.64 -7.2,-8.22 z m 2.31,31.05 1.07,-22.05 c 3.83,4.8 6.75,8.83 8.79,12.09 2.02,3.25 2.95,6.61 2.79,10.07 -0.24,2.1 -0.89,3.69 -1.92,4.72 -1.05,1.05 -2.32,1.53 -3.79,1.46 -2.92,-0.14 -5.23,-2.23 -6.94,-6.29" /></g></g></svg>