<?xml version="1.0" encoding="UTF-8" standalone="no"?>
<svg
   xmlns:dc="http://purl.org/dc/elements/1.1/"
   xmlns:cc="http://creativecommons.org/ns#"
   xmlns:rdf="http://www.w3.org/1999/02/22-rdf-syntax-ns#"
   xmlns:svg="http://www.w3.org/2000/svg"
   xmlns="http://www.w3.org/2000/svg"
   viewBox="0 0 482.66666 482.66666"
   height="482.66666"
   width="482.66666"
   xml:space="preserve"
   id="svg2"
   version="1.1"><metadata
     id="metadata8"><rdf:RDF><cc:Work
         rdf:about=""><dc:format>image/svg+xml</dc:format><dc:type
           rdf:resource="http://purl.org/dc/dcmitype/StillImage" /></cc:Work></rdf:RDF></metadata><defs
     id="defs6" /><g
     transform="matrix(1.3333333,0,0,-1.3333333,0,482.66667)"
     id="g10"><g
       transform="scale(0.1)"
       id="g12"><path
         id="path14"
         style="fill:#ffffff;fill-opacity:1;fill-rule:evenodd;stroke:none"
         d="M 1.12109,3615.79 H 56.918 v -55.8 H 1.12109 v 55.8" /><path
         id="path16"
         style="fill:#ffffff;fill-opacity:1;fill-rule:evenodd;stroke:none"
         d="m 3556.5,3615.79 h 55.79 v -55.8 h -55.79 v 55.8" /><path
         id="path18"
         style="fill:#ffffff;fill-opacity:1;fill-rule:evenodd;stroke:none"
         d="M 1.12109,60.4102 H 56.918 V 4.61328 H 1.12109 V 60.4102" /><path
         id="path20"
         style="fill:#ffffff;fill-opacity:1;fill-rule:evenodd;stroke:none"
         d="m 3556.5,60.4102 h 55.79 V 4.61328 H 3556.5 V 60.4102" /><path
         id="path22"
         style="fill:#eff0f0;fill-opacity:1;fill-rule:evenodd;stroke:none"
         d="M 2552.24,1064.99 C 2423.14,935.844 2260.89,839.844 2079.61,791.137 l -171.32,634.323 c 69.09,18.29 130.92,54.8 179.99,104.02 l 463.96,-464.49" /><path
         id="path24"
         style="fill:#eff0f0;fill-opacity:1;fill-rule:evenodd;stroke:none"
         d="m 2272.81,3548.52 c -148.68,39.98 -305.09,61.59 -466.1,61.59 -495.68,0 -945.577,-202.22 -1271.64,-528.28 l 988.43,-992.56 c 72.25,73.3 172.58,118.85 283.21,118.85 184.63,0 340.59,-126.86 385.15,-297.87 l 633.57,174.11 c -97.7,361.84 -383.87,647.68 -745.89,744.93 l 193.27,719.23" /></g></g></svg>