<?xml version="1.0" encoding="UTF-8" standalone="no"?>
<svg
   xmlns:dc="http://purl.org/dc/elements/1.1/"
   xmlns:cc="http://creativecommons.org/ns#"
   xmlns:rdf="http://www.w3.org/1999/02/22-rdf-syntax-ns#"
   xmlns:svg="http://www.w3.org/2000/svg"
   xmlns="http://www.w3.org/2000/svg"
   viewBox="0 0 482.66666 482.66666"
   height="482.66666"
   width="482.66666"
   xml:space="preserve"
   id="svg2"
   version="1.1"><metadata
     id="metadata8"><rdf:RDF><cc:Work
         rdf:about=""><dc:format>image/svg+xml</dc:format><dc:type
           rdf:resource="http://purl.org/dc/dcmitype/StillImage" /></cc:Work></rdf:RDF></metadata><defs
     id="defs6" /><g
     transform="matrix(1.3333333,0,0,-1.3333333,0,482.66667)"
     id="g10"><g
       transform="scale(0.1)"
       id="g12"><path
         id="path14"
         style="fill:#ffffff;fill-opacity:1;fill-rule:evenodd;stroke:none"
         d="M 1.12109,3615.79 H 56.918 v -55.8 H 1.12109 v 55.8" /><path
         id="path16"
         style="fill:#ffffff;fill-opacity:1;fill-rule:evenodd;stroke:none"
         d="m 3556.5,3615.79 h 55.79 v -55.8 h -55.79 v 55.8" /><path
         id="path18"
         style="fill:#ffffff;fill-opacity:1;fill-rule:evenodd;stroke:none"
         d="M 1.12109,60.4102 H 56.918 V 4.61328 H 1.12109 V 60.4102" /><path
         id="path20"
         style="fill:#ffffff;fill-opacity:1;fill-rule:evenodd;stroke:none"
         d="m 3556.5,60.4102 h 55.79 V 4.61328 H 3556.5 V 60.4102" /><path
         id="path22"
         style="fill:#1a1f20;fill-opacity:1;fill-rule:evenodd;stroke:none"
         d="m 1502.52,2402.21 c 0.44,-0.76 0.8,-1.48 1.09,-2.12 0.28,-0.64 0.55,-1.3 0.79,-1.91 0.22,-0.63 0.39,-1.27 0.5,-1.9 0.12,-0.66 0.22,-1.33 0.31,-2.08 l 9.97,-85.15 c 0.09,-0.65 0.07,-1.21 -0.08,-1.7 -0.12,-0.5 -0.38,-1 -0.74,-1.47 -0.4,-0.46 -0.93,-0.94 -1.67,-1.46 -0.72,-0.51 -1.62,-1.09 -2.73,-1.72 -1.42,-0.83 -2.58,-1.42 -3.46,-1.76 -0.87,-0.33 -1.57,-0.48 -2.08,-0.4 -0.53,0.07 -0.87,0.31 -1.06,0.74 -0.19,0.42 -0.33,0.97 -0.4,1.68 l -9.33,87.58 -39.35,-22.84 c -0.8,-0.47 -1.64,-0.41 -2.52,0.21 -0.9,0.61 -1.79,1.68 -2.67,3.2 -0.46,0.8 -0.83,1.53 -1.06,2.18 -0.23,0.65 -0.35,1.25 -0.39,1.77 -0.01,0.51 0.07,0.96 0.24,1.32 0.19,0.37 0.48,0.66 0.85,0.87 l 47.76,27.73 c 0.61,0.35 1.17,0.59 1.67,0.71 0.53,0.13 0.99,0.08 1.46,-0.17 0.46,-0.25 0.91,-0.62 1.38,-1.13 0.48,-0.53 0.98,-1.25 1.52,-2.18" /><path
         id="path24"
         style="fill:#1a1f20;fill-opacity:1;fill-rule:evenodd;stroke:none"
         d="m 1203.51,2886.44 c 0.19,-0.33 0.28,-0.68 0.25,-1.04 -0.02,-0.36 -0.19,-0.72 -0.54,-1.12 -0.32,-0.39 -0.8,-0.81 -1.38,-1.29 -0.61,-0.5 -1.42,-1.05 -2.48,-1.67 -0.97,-0.56 -1.86,-0.98 -2.61,-1.27 -0.75,-0.3 -1.36,-0.5 -1.86,-0.59 -0.5,-0.08 -0.89,-0.05 -1.21,0.11 -0.3,0.17 -0.57,0.42 -0.76,0.75 l -41.32,71.46 -0.13,-0.08 12.26,-88.66 c 0.05,-0.38 0.02,-0.75 -0.09,-1.1 -0.1,-0.32 -0.34,-0.71 -0.68,-1.12 -0.38,-0.39 -0.84,-0.8 -1.43,-1.23 -0.57,-0.41 -1.28,-0.88 -2.12,-1.37 -0.89,-0.51 -1.67,-0.9 -2.35,-1.18 -0.7,-0.29 -1.29,-0.46 -1.8,-0.58 -0.5,-0.08 -0.94,-0.08 -1.29,-0.02 -0.36,0.08 -0.65,0.23 -0.89,0.44 l -69.45,55.59 -0.07,-0.04 41.32,-71.46 c 0.19,-0.33 0.28,-0.68 0.25,-1.04 0,-0.34 -0.18,-0.72 -0.53,-1.11 -0.33,-0.39 -0.8,-0.82 -1.43,-1.32 -0.61,-0.5 -1.44,-1.07 -2.5,-1.68 -1.02,-0.59 -1.9,-1.01 -2.63,-1.29 -0.74,-0.28 -1.34,-0.48 -1.84,-0.57 -0.47,-0.07 -0.87,-0.04 -1.17,0.13 -0.3,0.17 -0.55,0.44 -0.73,0.76 l -43.64,75.47 c -1.03,1.77 -1.3,3.29 -0.8,4.59 0.49,1.29 1.3,2.28 2.45,2.95 l 6.6,3.81 c 1.34,0.78 2.61,1.34 3.77,1.67 1.16,0.35 2.28,0.45 3.36,0.35 1.08,-0.13 2.1,-0.46 3.11,-1 0.99,-0.56 2.02,-1.29 3.05,-2.23 l 58.14,-45.65 0.3,0.17 -9.51,73.54 c -0.28,1.52 -0.38,2.9 -0.36,4.11 0.05,1.21 0.25,2.27 0.6,3.17 0.33,0.91 0.85,1.71 1.52,2.41 0.66,0.7 1.53,1.34 2.59,1.96 l 6.9,3.99 c 0.63,0.36 1.29,0.63 1.98,0.77 0.68,0.13 1.33,0.1 1.97,-0.05 0.65,-0.17 1.26,-0.48 1.85,-0.95 0.62,-0.48 1.18,-1.14 1.69,-2.03 l 43.64,-75.46" /><path
         id="path26"
         style="fill:#1a1f20;fill-opacity:1;fill-rule:evenodd;stroke:none"
         d="m 1230.44,3003.03 c 0.44,-0.76 0.79,-1.48 1.08,-2.12 0.28,-0.64 0.55,-1.3 0.78,-1.91 0.22,-0.63 0.4,-1.28 0.5,-1.91 0.12,-0.66 0.22,-1.32 0.31,-2.08 l 9.83,-85.17 c 0.08,-0.64 0.06,-1.2 -0.09,-1.69 -0.12,-0.5 -0.38,-1 -0.74,-1.47 -0.4,-0.46 -0.93,-0.94 -1.67,-1.46 -0.72,-0.5 -1.63,-1.08 -2.73,-1.72 -1.43,-0.82 -2.59,-1.41 -3.47,-1.75 -0.87,-0.33 -1.57,-0.47 -2.08,-0.39 -0.53,0.07 -0.87,0.31 -1.06,0.74 -0.18,0.42 -0.33,0.97 -0.4,1.68 l -9.18,87.6 -39.39,-22.78 c -0.8,-0.47 -1.64,-0.4 -2.52,0.22 -0.9,0.6 -1.78,1.68 -2.66,3.2 -0.46,0.8 -0.83,1.53 -1.06,2.18 -0.23,0.65 -0.34,1.25 -0.39,1.77 -0.01,0.51 0.08,0.97 0.25,1.33 0.19,0.36 0.48,0.65 0.85,0.86 l 47.81,27.65 c 0.61,0.35 1.16,0.58 1.67,0.71 0.53,0.13 0.99,0.08 1.46,-0.17 0.46,-0.26 0.91,-0.63 1.37,-1.14 0.48,-0.53 0.99,-1.25 1.53,-2.18" /><path
         id="path28"
         style="fill:#1a1f20;fill-opacity:1;fill-rule:evenodd;stroke:none"
         d="m 1817.96,3043.91 c 0,-0.37 -0.1,-0.72 -0.3,-1.02 -0.19,-0.3 -0.52,-0.53 -1.02,-0.71 -0.47,-0.18 -1.09,-0.3 -1.84,-0.43 -0.78,-0.13 -1.75,-0.21 -2.98,-0.21 -1.12,-0.01 -2.1,0.06 -2.9,0.18 -0.8,0.12 -1.42,0.25 -1.9,0.42 -0.48,0.17 -0.8,0.4 -1,0.7 -0.18,0.3 -0.28,0.64 -0.29,1.02 l -0.35,82.55 h -0.15 l -33.42,-83.04 c -0.15,-0.36 -0.35,-0.66 -0.62,-0.91 -0.25,-0.23 -0.65,-0.45 -1.15,-0.63 -0.52,-0.15 -1.12,-0.28 -1.84,-0.36 -0.7,-0.08 -1.56,-0.13 -2.53,-0.13 -1.02,0 -1.9,0.04 -2.62,0.14 -0.76,0.09 -1.36,0.24 -1.85,0.39 -0.48,0.17 -0.86,0.4 -1.13,0.62 -0.28,0.25 -0.46,0.52 -0.56,0.82 l -32.65,82.76 h -0.08 l 0.35,-82.55 c 0.01,-0.37 -0.09,-0.72 -0.29,-1.02 -0.18,-0.3 -0.52,-0.53 -1.02,-0.71 -0.48,-0.17 -1.1,-0.3 -1.9,-0.43 -0.78,-0.13 -1.78,-0.21 -3,-0.21 -1.17,-0.01 -2.15,0.06 -2.92,0.18 -0.78,0.13 -1.41,0.25 -1.88,0.42 -0.45,0.17 -0.78,0.4 -0.96,0.7 -0.17,0.3 -0.25,0.64 -0.25,1.02 l -0.37,87.18 c -0.01,2.05 0.51,3.5 1.58,4.38 1.07,0.88 2.27,1.33 3.59,1.34 l 7.63,0.03 c 1.55,0.01 2.92,-0.13 4.1,-0.43 1.18,-0.27 2.2,-0.74 3.08,-1.36 0.88,-0.65 1.61,-1.45 2.21,-2.42 0.58,-0.97 1.11,-2.12 1.54,-3.44 l 27.77,-68.51 h 0.35 l 28.28,68.55 c 0.52,1.45 1.12,2.7 1.74,3.73 0.64,1.03 1.34,1.86 2.09,2.46 0.74,0.63 1.59,1.06 2.52,1.34 0.92,0.27 2,0.41 3.22,0.41 l 7.97,0.04 c 0.73,0 1.43,-0.1 2.11,-0.32 0.64,-0.22 1.2,-0.57 1.68,-1.02 0.47,-0.47 0.85,-1.04 1.13,-1.74 0.3,-0.73 0.45,-1.58 0.46,-2.6 l 0.37,-87.18" /><path
         id="path30"
         style="fill:#1a1f20;fill-opacity:1;fill-rule:evenodd;stroke:none"
         d="m 1899.26,3131.71 c 0.01,-0.87 -0.04,-1.67 -0.11,-2.37 -0.08,-0.7 -0.17,-1.4 -0.27,-2.05 -0.12,-0.65 -0.29,-1.31 -0.51,-1.9 -0.23,-0.63 -0.48,-1.26 -0.77,-1.96 l -33.79,-78.8 c -0.25,-0.59 -0.54,-1.08 -0.92,-1.43 -0.35,-0.37 -0.82,-0.67 -1.37,-0.9 -0.57,-0.2 -1.27,-0.36 -2.17,-0.44 -0.88,-0.07 -1.95,-0.13 -3.23,-0.13 -1.65,-0.01 -2.95,0.06 -3.87,0.2 -0.93,0.15 -1.61,0.37 -2.01,0.7 -0.42,0.32 -0.6,0.69 -0.55,1.17 0.05,0.45 0.19,1 0.49,1.65 l 35.56,80.58 -45.5,-0.19 c -0.93,-0.01 -1.63,0.46 -2.08,1.44 -0.48,0.97 -0.71,2.34 -0.72,4.09 -0.01,0.93 0.04,1.75 0.16,2.43 0.12,0.68 0.32,1.25 0.54,1.73 0.25,0.45 0.55,0.8 0.88,1.02 0.34,0.23 0.75,0.33 1.17,0.34 l 55.22,0.23 c 0.7,0.01 1.3,-0.07 1.8,-0.21 0.53,-0.15 0.91,-0.43 1.18,-0.87 0.28,-0.45 0.48,-1 0.64,-1.68 0.15,-0.7 0.23,-1.57 0.23,-2.65" /><path
         id="path32"
         style="fill:#1a1f20;fill-opacity:1;fill-rule:evenodd;stroke:none"
         d="m 1820.29,2387.55 c 0,-0.38 -0.09,-0.73 -0.29,-1.03 -0.2,-0.3 -0.52,-0.53 -1.02,-0.7 -0.48,-0.18 -1.1,-0.31 -1.85,-0.44 -0.78,-0.13 -1.75,-0.21 -2.98,-0.21 -1.12,-0.01 -2.1,0.06 -2.9,0.18 -0.8,0.12 -1.42,0.24 -1.9,0.42 -0.47,0.17 -0.8,0.39 -1,0.69 -0.18,0.3 -0.28,0.65 -0.28,1.02 l -0.43,82.56 h -0.15 l -33.35,-83.08 c -0.14,-0.35 -0.34,-0.65 -0.62,-0.9 -0.25,-0.23 -0.64,-0.45 -1.14,-0.63 -0.53,-0.16 -1.13,-0.28 -1.85,-0.36 -0.7,-0.08 -1.55,-0.13 -2.53,-0.14 -1.02,0 -1.89,0.04 -2.62,0.14 -0.75,0.09 -1.36,0.24 -1.86,0.39 -0.47,0.17 -0.85,0.39 -1.12,0.62 -0.28,0.25 -0.45,0.52 -0.56,0.82 l -32.72,82.73 h -0.08 l 0.42,-82.55 c 0.01,-0.37 -0.09,-0.72 -0.29,-1.02 -0.17,-0.3 -0.52,-0.53 -1.02,-0.71 -0.47,-0.17 -1.1,-0.3 -1.9,-0.43 -0.77,-0.13 -1.77,-0.21 -3,-0.22 -1.17,0 -2.15,0.07 -2.92,0.19 -0.78,0.12 -1.4,0.24 -1.88,0.41 -0.45,0.17 -0.78,0.4 -0.95,0.7 -0.18,0.3 -0.26,0.64 -0.26,1.02 l -0.45,87.18 c 0,2.05 0.51,3.5 1.58,4.38 1.08,0.88 2.27,1.34 3.59,1.34 l 7.63,0.04 c 1.55,0.01 2.93,-0.13 4.11,-0.42 1.17,-0.27 2.2,-0.74 3.08,-1.36 0.87,-0.65 1.6,-1.45 2.21,-2.42 0.58,-0.97 1.11,-2.12 1.54,-3.44 l 27.83,-68.48 h 0.35 l 28.22,68.57 c 0.52,1.45 1.11,2.7 1.73,3.73 0.65,1.03 1.34,1.86 2.09,2.46 0.75,0.63 1.59,1.06 2.52,1.34 0.92,0.28 2,0.41 3.22,0.42 l 7.98,0.03 c 0.72,0.01 1.42,-0.09 2.1,-0.31 0.65,-0.22 1.2,-0.57 1.68,-1.01 0.48,-0.48 0.85,-1.05 1.13,-1.75 0.31,-0.72 0.46,-1.57 0.46,-2.6 l 0.45,-87.17" /><path
         id="path34"
         style="fill:#1a1f20;fill-opacity:1;fill-rule:evenodd;stroke:none"
         d="m 1901.52,2475.42 c 0.01,-0.88 -0.04,-1.68 -0.11,-2.38 -0.07,-0.7 -0.17,-1.4 -0.27,-2.05 -0.12,-0.65 -0.29,-1.3 -0.51,-1.9 -0.22,-0.63 -0.47,-1.25 -0.77,-1.96 l -33.72,-78.82 c -0.25,-0.6 -0.55,-1.08 -0.92,-1.43 -0.34,-0.38 -0.82,-0.68 -1.37,-0.91 -0.57,-0.2 -1.27,-0.36 -2.17,-0.43 -0.88,-0.09 -1.95,-0.14 -3.23,-0.15 -1.65,0 -2.95,0.06 -3.87,0.21 -0.93,0.14 -1.6,0.36 -2.01,0.69 -0.42,0.32 -0.6,0.69 -0.55,1.17 0.05,0.45 0.19,1 0.49,1.65 l 35.49,80.61 -45.5,-0.23 c -0.93,-0.01 -1.63,0.47 -2.08,1.44 -0.48,0.97 -0.72,2.34 -0.72,4.09 -0.01,0.93 0.04,1.75 0.16,2.43 0.12,0.68 0.32,1.25 0.54,1.73 0.24,0.45 0.55,0.8 0.87,1.03 0.35,0.22 0.75,0.33 1.17,0.33 l 55.23,0.28 c 0.7,0 1.3,-0.07 1.8,-0.21 0.53,-0.15 0.9,-0.42 1.18,-0.87 0.28,-0.45 0.48,-1 0.63,-1.67 0.15,-0.7 0.24,-1.58 0.24,-2.65" /><path
         id="path36"
         style="fill:#1a1f20;fill-opacity:1;fill-rule:evenodd;stroke:none"
         d="m 2165.73,2370.65 c -0.43,-0.76 -0.87,-1.43 -1.28,-2 -0.41,-0.57 -0.85,-1.13 -1.26,-1.64 -0.43,-0.51 -0.9,-0.98 -1.39,-1.39 -0.51,-0.43 -1.04,-0.85 -1.65,-1.31 l -68.62,-51.4 c -0.51,-0.4 -1.01,-0.66 -1.51,-0.78 -0.49,-0.15 -1.05,-0.18 -1.64,-0.1 -0.6,0.11 -1.28,0.33 -2.1,0.71 -0.8,0.37 -1.76,0.86 -2.86,1.49 -1.44,0.82 -2.53,1.52 -3.26,2.11 -0.73,0.59 -1.2,1.12 -1.39,1.6 -0.21,0.5 -0.17,0.91 0.11,1.3 0.26,0.36 0.67,0.76 1.25,1.18 l 71.05,52.06 -39.52,22.55 c -0.81,0.46 -1.18,1.22 -1.09,2.29 0.07,1.09 0.56,2.39 1.43,3.91 0.46,0.81 0.91,1.49 1.35,2.02 0.44,0.52 0.9,0.93 1.33,1.23 0.44,0.26 0.87,0.42 1.27,0.45 0.42,0.02 0.82,-0.09 1.18,-0.3 l 47.97,-27.37 c 0.61,-0.35 1.09,-0.71 1.45,-1.09 0.38,-0.39 0.57,-0.81 0.59,-1.34 0.02,-0.53 -0.09,-1.1 -0.29,-1.76 -0.22,-0.69 -0.58,-1.48 -1.12,-2.42" /><path
         id="path38"
         style="fill:#1a1f20;fill-opacity:1;fill-rule:evenodd;stroke:none"
         d="m 2397.52,2116.64 c -0.76,-0.44 -1.47,-0.8 -2.11,-1.09 -0.65,-0.29 -1.3,-0.56 -1.91,-0.8 -0.63,-0.22 -1.28,-0.39 -1.91,-0.51 -0.65,-0.12 -1.32,-0.22 -2.07,-0.31 l -85.12,-10.29 c -0.65,-0.08 -1.21,-0.07 -1.7,0.08 -0.5,0.12 -1,0.37 -1.47,0.73 -0.46,0.4 -0.95,0.93 -1.47,1.67 -0.51,0.71 -1.09,1.61 -1.73,2.72 -0.84,1.42 -1.43,2.58 -1.77,3.45 -0.34,0.88 -0.48,1.57 -0.4,2.09 0.06,0.52 0.3,0.87 0.73,1.06 0.41,0.19 0.97,0.33 1.68,0.4 l 87.55,9.65 -22.99,39.27 c -0.47,0.8 -0.41,1.64 0.21,2.52 0.6,0.91 1.67,1.79 3.18,2.68 0.8,0.47 1.53,0.84 2.18,1.08 0.65,0.23 1.24,0.35 1.77,0.39 0.51,0.01 0.96,-0.07 1.32,-0.24 0.37,-0.19 0.66,-0.48 0.88,-0.85 l 27.9,-47.66 c 0.35,-0.6 0.59,-1.16 0.71,-1.66 0.14,-0.53 0.09,-0.99 -0.16,-1.46 -0.25,-0.46 -0.62,-0.92 -1.13,-1.38 -0.53,-0.49 -1.24,-1 -2.17,-1.54" /><path
         id="path40"
         style="fill:#1a1f20;fill-opacity:1;fill-rule:evenodd;stroke:none"
         d="m 2155.45,1345 c -0.19,0.33 -0.3,0.67 -0.3,1.02 0.02,0.32 0.15,0.69 0.41,1.04 0.3,0.34 0.7,0.74 1.24,1.17 0.55,0.43 1.24,0.88 2.09,1.37 0.89,0.51 1.65,0.89 2.29,1.14 0.65,0.26 1.21,0.4 1.67,0.49 0.45,0.07 0.86,0.01 1.17,-0.13 0.32,-0.16 0.59,-0.41 0.77,-0.74 l 4.34,-7.57 c 1.12,5 2.78,9.32 5,13.01 2.18,3.67 5.22,6.62 9.06,8.83 4.2,2.41 8.26,3.63 12.16,3.71 3.88,0.06 7.56,-0.77 10.99,-2.48 3.44,-1.73 6.65,-4.21 9.64,-7.47 3,-3.27 5.7,-6.97 8.07,-11.11 2.83,-4.93 4.83,-9.69 6.06,-14.23 1.21,-4.58 1.57,-8.87 1.09,-12.83 -0.47,-3.99 -1.82,-7.62 -4.01,-10.89 -2.22,-3.26 -5.32,-6.04 -9.36,-8.36 -3.34,-1.91 -6.82,-2.93 -10.43,-3.07 -3.62,-0.11 -7.6,0.46 -11.95,1.74 l 19.07,-33.25 c 0.16,-0.28 0.25,-0.6 0.27,-0.97 0,-0.37 -0.15,-0.75 -0.51,-1.13 -0.33,-0.38 -0.8,-0.83 -1.38,-1.31 -0.59,-0.48 -1.41,-1.01 -2.43,-1.59 -1.06,-0.61 -1.96,-1.06 -2.69,-1.34 -0.74,-0.28 -1.35,-0.46 -1.81,-0.52 -0.46,-0.09 -0.87,-0.04 -1.23,0.13 -0.36,0.17 -0.6,0.41 -0.76,0.69 z m 33.6,-34.19 c 4.86,-1.88 9.14,-2.97 12.84,-3.3 3.71,-0.33 7,0.32 9.88,1.97 2.67,1.54 4.57,3.49 5.69,5.81 1.14,2.34 1.7,4.89 1.67,7.64 0,2.73 -0.52,5.58 -1.5,8.5 -0.96,2.94 -2.23,5.75 -3.78,8.46 -1.66,2.89 -3.49,5.59 -5.53,8.08 -2,2.48 -4.18,4.49 -6.52,6 -2.34,1.51 -4.77,2.39 -7.33,2.63 -2.57,0.26 -5.24,-0.41 -7.97,-1.98 -1.41,-0.81 -2.64,-1.77 -3.72,-2.91 -1.07,-1.1 -2.02,-2.51 -2.87,-4.18 -0.84,-1.66 -1.61,-3.64 -2.28,-5.89 -0.65,-2.28 -1.24,-4.92 -1.7,-7.95 l 13.12,-22.88" /><path
         id="path42"
         style="fill:#1a1f20;fill-opacity:1;fill-rule:evenodd;stroke:none"
         d="m 2132.93,1332.09 c -0.19,0.33 -0.27,0.68 -0.23,1 0.04,0.34 0.21,0.7 0.48,1.08 0.29,0.4 0.74,0.83 1.36,1.3 0.64,0.48 1.49,1.02 2.55,1.63 1,0.58 1.87,1.02 2.61,1.33 0.73,0.3 1.34,0.48 1.83,0.53 0.51,0.06 0.91,0.02 1.17,-0.14 0.28,-0.13 0.54,-0.38 0.73,-0.71 l 32.78,-57.19 c 0.18,-0.31 0.24,-0.62 0.24,-0.96 0.02,-0.34 -0.14,-0.72 -0.46,-1.1 -0.29,-0.4 -0.76,-0.84 -1.38,-1.31 -0.65,-0.49 -1.47,-1.02 -2.47,-1.59 -1.06,-0.61 -1.95,-1.07 -2.7,-1.37 -0.72,-0.3 -1.31,-0.47 -1.8,-0.52 -0.46,-0.06 -0.87,0 -1.19,0.15 -0.32,0.17 -0.56,0.38 -0.73,0.68 z m 42.68,-77.2 c -1.42,2.47 -1.93,4.4 -1.5,5.83 0.42,1.42 1.89,2.84 4.38,4.27 2.47,1.42 4.39,1.94 5.8,1.59 1.41,-0.34 2.8,-1.7 4.19,-4.14 1.4,-2.45 1.91,-4.38 1.48,-5.8 -0.42,-1.43 -1.87,-2.87 -4.37,-4.3 -2.47,-1.41 -4.39,-1.93 -5.79,-1.59 -1.41,0.34 -2.82,1.73 -4.19,4.14" /><path
         id="path44"
         style="fill:#1a1f20;fill-opacity:1;fill-rule:evenodd;stroke:none"
         d="m 2036.09,1276.57 c -0.19,0.33 -0.28,0.68 -0.25,0.99 0.04,0.33 0.21,0.69 0.48,1.08 0.29,0.4 0.73,0.82 1.38,1.31 0.62,0.47 1.44,1 2.46,1.59 1.06,0.6 1.95,1.06 2.68,1.35 0.72,0.3 1.34,0.49 1.85,0.55 0.49,0.05 0.88,0.01 1.19,-0.12 0.3,-0.12 0.56,-0.37 0.75,-0.7 l 19.93,-34.77 c 1.38,-2.41 2.86,-4.49 4.41,-6.23 1.57,-1.75 3.23,-3.08 4.99,-3.99 1.76,-0.9 3.59,-1.33 5.45,-1.26 1.87,0.06 3.81,0.65 5.74,1.76 2.43,1.39 4.32,3.71 5.68,6.97 1.36,3.26 2.48,7.53 3.33,12.8 l -22.92,39.98 c -0.19,0.32 -0.28,0.67 -0.22,0.99 0.03,0.34 0.2,0.7 0.52,1.11 0.28,0.39 0.75,0.83 1.37,1.31 0.65,0.48 1.47,1.01 2.49,1.59 0.98,0.56 1.82,0.99 2.57,1.3 0.76,0.32 1.38,0.51 1.89,0.57 0.49,0.05 0.89,0.02 1.18,-0.14 0.25,-0.14 0.51,-0.39 0.7,-0.72 l 19.93,-34.76 c 1.38,-2.41 2.88,-4.49 4.47,-6.2 1.62,-1.72 3.3,-3.04 5.07,-3.96 1.75,-0.89 3.56,-1.33 5.4,-1.28 1.87,0.06 3.76,0.63 5.71,1.75 2.43,1.39 4.32,3.72 5.71,6.99 1.38,3.27 2.51,7.54 3.3,12.78 l -22.92,39.98 c -0.18,0.32 -0.27,0.68 -0.22,0.99 0.04,0.34 0.21,0.7 0.48,1.08 0.29,0.4 0.73,0.83 1.36,1.3 0.64,0.49 1.49,1.03 2.54,1.64 1,0.57 1.88,1.01 2.62,1.32 0.72,0.3 1.34,0.48 1.83,0.53 0.51,0.06 0.9,0.03 1.17,-0.14 0.27,-0.12 0.54,-0.38 0.72,-0.71 l 32.79,-57.19 c 0.2,-0.35 0.3,-0.67 0.3,-0.98 0,-0.29 -0.14,-0.65 -0.39,-1.07 -0.28,-0.41 -0.7,-0.79 -1.27,-1.21 -0.55,-0.4 -1.3,-0.89 -2.28,-1.45 -0.93,-0.53 -1.74,-0.94 -2.38,-1.22 -0.64,-0.28 -1.18,-0.45 -1.64,-0.45 -0.44,0.01 -0.83,0.07 -1.1,0.2 -0.27,0.17 -0.52,0.4 -0.72,0.74 l -4.34,7.57 c -1.14,-5.43 -2.75,-9.87 -4.83,-13.28 -2.08,-3.41 -4.65,-6.01 -7.73,-7.78 -2.39,-1.37 -4.67,-2.3 -6.87,-2.84 -2.21,-0.52 -4.29,-0.7 -6.32,-0.54 -2,0.18 -3.92,0.66 -5.73,1.44 -1.79,0.82 -3.54,1.86 -5.18,3.17 -0.72,-3.18 -1.51,-5.97 -2.4,-8.38 -0.88,-2.44 -1.88,-4.57 -2.96,-6.36 -1.07,-1.8 -2.25,-3.31 -3.53,-4.6 -1.26,-1.26 -2.67,-2.33 -4.19,-3.2 -3.68,-2.11 -7.16,-3.24 -10.4,-3.37 -3.22,-0.15 -6.24,0.43 -9.03,1.68 -2.78,1.29 -5.34,3.19 -7.65,5.7 -2.31,2.54 -4.4,5.41 -6.25,8.64 l -20.72,36.15" /><path
         id="path46"
         style="fill:#1a1f20;fill-opacity:1;fill-rule:evenodd;stroke:none"
         d="m 2017.63,1165.1 c -0.44,0.76 -0.79,1.48 -1.08,2.12 -0.28,0.65 -0.54,1.31 -0.77,1.92 -0.22,0.63 -0.39,1.28 -0.49,1.91 -0.12,0.65 -0.22,1.32 -0.3,2.08 l -9.51,85.21 c -0.09,0.64 -0.06,1.2 0.09,1.69 0.12,0.5 0.38,1 0.75,1.47 0.39,0.46 0.93,0.93 1.67,1.45 0.72,0.5 1.63,1.07 2.74,1.71 1.43,0.82 2.59,1.4 3.47,1.73 0.88,0.33 1.57,0.47 2.08,0.39 0.53,-0.07 0.87,-0.31 1.06,-0.74 0.18,-0.42 0.33,-0.97 0.39,-1.69 l 8.86,-87.63 39.47,22.63 c 0.8,0.46 1.65,0.4 2.52,-0.22 0.9,-0.61 1.78,-1.69 2.65,-3.21 0.46,-0.81 0.82,-1.54 1.06,-2.19 0.22,-0.65 0.34,-1.25 0.37,-1.77 0.01,-0.52 -0.07,-0.97 -0.25,-1.33 -0.19,-0.37 -0.48,-0.65 -0.85,-0.86 l -47.92,-27.47 c -0.6,-0.35 -1.16,-0.59 -1.67,-0.7 -0.53,-0.14 -0.99,-0.08 -1.45,0.17 -0.47,0.25 -0.91,0.63 -1.38,1.14 -0.48,0.54 -0.98,1.26 -1.51,2.19" /></g></g></svg>