<?xml version="1.0" encoding="UTF-8" standalone="no"?>
<svg
   xmlns:dc="http://purl.org/dc/elements/1.1/"
   xmlns:cc="http://creativecommons.org/ns#"
   xmlns:rdf="http://www.w3.org/1999/02/22-rdf-syntax-ns#"
   xmlns:svg="http://www.w3.org/2000/svg"
   xmlns="http://www.w3.org/2000/svg"
   viewBox="0 0 482.66666 482.66666"
   height="482.66666"
   width="482.66666"
   xml:space="preserve"
   id="svg2"
   version="1.1"><metadata
     id="metadata8"><rdf:RDF><cc:Work
         rdf:about=""><dc:format>image/svg+xml</dc:format><dc:type
           rdf:resource="http://purl.org/dc/dcmitype/StillImage" /></cc:Work></rdf:RDF></metadata><defs
     id="defs6" /><g
     transform="matrix(1.3333333,0,0,-1.3333333,0,482.66667)"
     id="g10"><g
       transform="scale(0.1)"
       id="g12"><path
         id="path14"
         style="fill:#ffffff;fill-opacity:1;fill-rule:evenodd;stroke:none"
         d="M 1.12109,3615.79 H 56.918 v -55.8 H 1.12109 v 55.8" /><path
         id="path16"
         style="fill:#ffffff;fill-opacity:1;fill-rule:evenodd;stroke:none"
         d="m 3556.5,3615.79 h 55.79 v -55.8 h -55.79 v 55.8" /><path
         id="path18"
         style="fill:#ffffff;fill-opacity:1;fill-rule:evenodd;stroke:none"
         d="M 1.12109,60.4102 H 56.918 V 4.61328 H 1.12109 V 60.4102" /><path
         id="path20"
         style="fill:#ffffff;fill-opacity:1;fill-rule:evenodd;stroke:none"
         d="m 3556.5,60.4102 h 55.79 V 4.61328 H 3556.5 V 60.4102" /><path
         id="path22"
         style="fill:#231f20;fill-opacity:1;fill-rule:evenodd;stroke:none"
         d="m 1851.96,3220.17 c 0,-1.14 -0.09,-2.07 -0.27,-2.88 -0.15,-0.78 -0.39,-1.44 -0.69,-1.99 -0.3,-0.5 -0.66,-0.9 -1.05,-1.14 -0.42,-0.24 -0.84,-0.32 -1.32,-0.32 h -28.88 v -32.07 c 0,-0.45 -0.12,-0.87 -0.36,-1.17 -0.24,-0.33 -0.6,-0.6 -1.08,-0.84 -0.51,-0.24 -1.17,-0.42 -1.98,-0.57 -0.85,-0.15 -1.87,-0.24 -3.1,-0.24 -1.17,0 -2.19,0.09 -3.03,0.24 -0.84,0.15 -1.54,0.33 -2.02,0.57 -0.51,0.24 -0.87,0.51 -1.11,0.84 -0.24,0.3 -0.36,0.72 -0.36,1.17 v 32.07 h -28.87 c -0.51,0 -0.96,0.08 -1.36,0.32 -0.39,0.24 -0.71,0.64 -1.02,1.14 -0.26,0.55 -0.51,1.21 -0.69,1.99 -0.18,0.81 -0.27,1.74 -0.27,2.88 0,1.06 0.09,1.96 0.27,2.77 0.18,0.78 0.43,1.44 0.69,1.98 0.31,0.51 0.63,0.9 1.02,1.14 0.4,0.24 0.82,0.36 1.27,0.36 h 28.96 v 32.03 c 0,0.48 0.12,0.9 0.36,1.26 0.24,0.4 0.6,0.73 1.11,0.99 0.48,0.25 1.18,0.46 2.02,0.6 0.84,0.16 1.86,0.22 3.03,0.22 1.23,0 2.25,-0.06 3.1,-0.22 0.81,-0.14 1.47,-0.35 1.98,-0.6 0.48,-0.26 0.84,-0.59 1.08,-0.99 0.24,-0.36 0.36,-0.78 0.36,-1.26 v -32.03 h 28.96 c 0.46,0 0.91,-0.12 1.27,-0.36 0.39,-0.24 0.75,-0.63 1.05,-1.14 0.33,-0.54 0.57,-1.2 0.72,-1.98 0.15,-0.81 0.21,-1.71 0.21,-2.77" /><path
         id="path24"
         style="fill:#1a1f20;fill-opacity:1;fill-rule:evenodd;stroke:none"
         d="m 2568.71,1783.01 c -3.49,0.01 -6.78,0.67 -9.86,2 -3.08,1.32 -5.79,3.2 -8.09,5.59 -2.35,2.42 -4.13,5.25 -5.41,8.51 -1.28,3.23 -1.93,6.79 -1.92,10.57 0,3.81 0.6,7.26 1.78,10.37 1.18,3.12 2.87,5.83 5.04,8.09 2.13,2.31 4.7,4.06 7.71,5.34 3.01,1.31 6.34,1.93 10.01,1.93 3.67,-0.01 7.04,-0.68 10.16,-2.04 3.11,-1.4 5.75,-3.28 7.98,-5.67 2.23,-2.42 3.95,-5.21 5.26,-8.44 1.27,-3.23 1.89,-6.75 1.88,-10.53 0,-3.74 -0.6,-7.18 -1.81,-10.34 -1.26,-3.14 -2.91,-5.85 -5.05,-8.12 -2.09,-2.31 -4.66,-4.1 -7.67,-5.38 -3.01,-1.28 -6.34,-1.89 -10.01,-1.88 z m -0.38,13.53 c 1.91,0 3.74,0.28 5.43,0.94 1.65,0.66 3.12,1.53 4.33,2.67 1.21,1.17 2.17,2.52 2.87,4.1 0.67,1.57 1.04,3.26 1.04,5.13 0,1.8 -0.36,3.44 -1.02,4.99 -0.69,1.54 -1.64,2.9 -2.85,4.04 -1.21,1.17 -2.63,2.05 -4.28,2.72 -1.65,0.62 -3.41,0.96 -5.28,0.96 -2.05,0.01 -3.96,-0.32 -5.69,-0.94 -1.72,-0.65 -3.19,-1.57 -4.4,-2.74 -1.21,-1.17 -2.17,-2.56 -2.87,-4.17 -0.66,-1.61 -1,-3.37 -1,-5.21 0,-1.72 0.32,-3.37 1.05,-4.91 0.7,-1.55 1.68,-2.87 2.93,-3.97 1.28,-1.1 2.7,-1.99 4.36,-2.65 1.64,-0.66 3.44,-0.96 5.38,-0.96" /><path
         id="path26"
         style="fill:#1a1f20;fill-opacity:1;fill-rule:evenodd;stroke:none"
         d="m 1866.18,2530.73 c 0.01,-0.44 -0.11,-0.86 -0.32,-1.17 -0.23,-0.33 -0.62,-0.6 -1.13,-0.85 -0.53,-0.24 -1.26,-0.42 -2.21,-0.55 -0.93,-0.13 -2.1,-0.2 -3.51,-0.21 -1.47,-0.02 -2.67,0.03 -3.6,0.15 -0.94,0.11 -1.69,0.28 -2.26,0.52 -0.54,0.23 -0.93,0.5 -1.18,0.83 -0.24,0.3 -0.36,0.71 -0.36,1.17 l -0.4,48.09 c -0.03,3.33 -0.35,6.38 -0.95,9.11 -0.62,2.75 -1.57,5.12 -2.88,7.11 -1.3,1.97 -2.96,3.49 -4.95,4.52 -1.99,1.04 -4.37,1.56 -7.04,1.54 -3.35,-0.03 -6.7,-1.35 -10.04,-3.95 -3.34,-2.61 -7.03,-6.42 -11.01,-11.44 l 0.46,-55.29 c 0,-0.45 -0.12,-0.87 -0.35,-1.17 -0.24,-0.33 -0.63,-0.6 -1.2,-0.85 -0.54,-0.24 -1.29,-0.43 -2.21,-0.56 -0.96,-0.13 -2.13,-0.19 -3.54,-0.21 -1.35,-0.01 -2.49,0.04 -3.45,0.16 -1,0.11 -1.75,0.28 -2.32,0.52 -0.54,0.23 -0.93,0.5 -1.14,0.83 -0.19,0.29 -0.31,0.71 -0.32,1.16 l -0.39,48.1 c -0.03,3.32 -0.38,6.38 -1.04,9.1 -0.68,2.76 -1.66,5.12 -2.96,7.12 -1.31,1.97 -2.94,3.49 -4.9,4.52 -1.99,1.04 -4.3,1.56 -7.01,1.54 -3.36,-0.03 -6.7,-1.35 -10.08,-3.96 -3.36,-2.61 -7.05,-6.42 -10.97,-11.43 l 0.46,-55.29 c 0,-0.45 -0.12,-0.87 -0.36,-1.17 -0.23,-0.33 -0.62,-0.61 -1.13,-0.85 -0.54,-0.24 -1.25,-0.43 -2.18,-0.56 -0.96,-0.13 -2.16,-0.2 -3.63,-0.21 -1.38,-0.01 -2.55,0.04 -3.51,0.15 -0.94,0.11 -1.69,0.29 -2.23,0.52 -0.57,0.24 -0.96,0.5 -1.14,0.84 -0.22,0.29 -0.34,0.71 -0.34,1.16 l -0.66,79.11 c 0,0.48 0.09,0.87 0.26,1.2 0.18,0.31 0.54,0.61 1.05,0.88 0.53,0.28 1.19,0.43 2.03,0.53 0.81,0.1 1.89,0.16 3.24,0.17 1.29,0.02 2.37,-0.03 3.21,-0.12 0.84,-0.08 1.51,-0.22 1.99,-0.49 0.45,-0.27 0.81,-0.57 1.02,-0.86 0.19,-0.33 0.31,-0.72 0.31,-1.2 l 0.09,-10.47 c 4.4,5.02 8.69,8.71 12.87,11.05 4.18,2.35 8.4,3.56 12.66,3.59 3.3,0.03 6.25,-0.34 8.86,-1.07 2.62,-0.75 4.91,-1.79 6.93,-3.15 1.99,-1.37 3.71,-3 5.14,-4.88 1.39,-1.91 2.61,-4.03 3.56,-6.36 2.62,2.9 5.08,5.35 7.44,7.35 2.35,2.03 4.65,3.67 6.83,4.92 2.18,1.24 4.3,2.14 6.4,2.72 2.06,0.59 4.16,0.88 6.26,0.89 5.1,0.05 9.4,-0.82 12.86,-2.59 3.47,-1.74 6.28,-4.12 8.46,-7.07 2.16,-2.99 3.72,-6.48 4.65,-10.46 0.93,-4.02 1.41,-8.25 1.45,-12.71 l 0.41,-50.02" /><path
         id="path28"
         style="fill:#1a1f20;fill-opacity:1;fill-rule:evenodd;stroke:none"
         d="m 2459.94,2119.91 c -0.39,-0.23 -0.81,-0.34 -1.17,-0.3 -0.41,0.03 -0.84,0.23 -1.31,0.55 -0.48,0.34 -1,0.87 -1.59,1.64 -0.57,0.74 -1.22,1.71 -1.94,2.93 -0.75,1.26 -1.3,2.32 -1.67,3.19 -0.37,0.86 -0.6,1.6 -0.68,2.21 -0.07,0.59 -0.03,1.06 0.13,1.44 0.13,0.36 0.43,0.67 0.82,0.9 l 41.42,24.44 c 2.87,1.7 5.35,3.51 7.41,5.39 2.07,1.92 3.64,3.93 4.71,6.06 1.06,2.12 1.53,4.32 1.43,6.55 -0.1,2.24 -0.84,4.56 -2.2,6.86 -1.71,2.89 -4.53,5.13 -8.46,6.71 -3.93,1.58 -9.07,2.86 -15.4,3.79 l -47.62,-28.1 c -0.39,-0.23 -0.81,-0.34 -1.19,-0.28 -0.41,0.04 -0.84,0.23 -1.33,0.6 -0.48,0.35 -1.02,0.9 -1.6,1.64 -0.59,0.76 -1.24,1.75 -1.95,2.96 -0.69,1.16 -1.21,2.17 -1.6,3.06 -0.4,0.91 -0.63,1.65 -0.71,2.26 -0.07,0.59 -0.03,1.06 0.15,1.41 0.16,0.31 0.46,0.63 0.85,0.86 l 41.42,24.44 c 2.86,1.69 5.33,3.53 7.36,5.46 2.04,1.97 3.6,4.01 4.67,6.14 1.05,2.12 1.54,4.29 1.46,6.5 -0.1,2.24 -0.81,4.51 -2.19,6.83 -1.7,2.9 -4.52,5.13 -8.47,6.74 -3.94,1.61 -9.09,2.89 -15.39,3.77 l -47.62,-28.11 c -0.39,-0.22 -0.81,-0.33 -1.19,-0.28 -0.4,0.04 -0.84,0.24 -1.3,0.56 -0.48,0.34 -1,0.86 -1.58,1.61 -0.59,0.76 -1.25,1.77 -2,3.03 -0.7,1.19 -1.25,2.23 -1.63,3.11 -0.37,0.87 -0.59,1.61 -0.66,2.19 -0.09,0.61 -0.05,1.09 0.14,1.41 0.15,0.33 0.45,0.65 0.84,0.88 l 68.13,40.21 c 0.41,0.25 0.8,0.37 1.17,0.38 0.35,0 0.79,-0.16 1.28,-0.46 0.51,-0.33 0.98,-0.82 1.48,-1.5 0.49,-0.65 1.09,-1.55 1.78,-2.71 0.65,-1.11 1.15,-2.08 1.5,-2.84 0.35,-0.77 0.56,-1.42 0.57,-1.97 -0.01,-0.52 -0.08,-0.99 -0.23,-1.32 -0.19,-0.32 -0.47,-0.62 -0.89,-0.87 l -9.01,-5.32 c 6.55,-1.29 11.89,-3.15 16.02,-5.6 4.12,-2.44 7.28,-5.49 9.44,-9.16 1.68,-2.84 2.84,-5.57 3.52,-8.2 0.65,-2.64 0.91,-5.14 0.74,-7.57 -0.18,-2.4 -0.73,-4.72 -1.64,-6.89 -0.95,-2.17 -2.18,-4.28 -3.72,-6.27 3.82,-0.82 7.18,-1.72 10.09,-2.76 2.94,-1.02 5.51,-2.18 7.68,-3.45 2.17,-1.25 4,-2.64 5.56,-4.16 1.55,-1.5 2.84,-3.17 3.91,-4.98 2.59,-4.39 4,-8.54 4.2,-12.43 0.23,-3.87 -0.42,-7.49 -1.88,-10.86 -1.5,-3.36 -3.74,-6.46 -6.72,-9.27 -3,-2.82 -6.42,-5.35 -10.27,-7.62 l -43.07,-25.43" /><path
         id="path30"
         style="fill:#1a1f20;fill-opacity:1;fill-rule:evenodd;stroke:none"
         d="m 2166.48,1138.02 c -1.74,3.02 -2.83,6.2 -3.23,9.53 -0.4,3.33 -0.14,6.61 0.76,9.81 0.92,3.24 2.46,6.21 4.64,8.96 2.15,2.72 4.9,5.08 8.17,6.97 3.3,1.91 6.57,3.13 9.86,3.68 3.28,0.55 6.48,0.45 9.53,-0.28 3.06,-0.69 5.87,-2.03 8.49,-3.98 2.65,-1.94 4.86,-4.52 6.7,-7.69 1.83,-3.18 2.96,-6.42 3.34,-9.8 0.36,-3.4 0.06,-6.62 -0.88,-9.75 -0.97,-3.15 -2.52,-6.04 -4.65,-8.79 -2.14,-2.73 -4.88,-5.04 -8.14,-6.93 -3.24,-1.87 -6.52,-3.09 -9.86,-3.63 -3.35,-0.5 -6.52,-0.43 -9.55,0.27 -3.05,0.65 -5.89,1.97 -8.51,3.93 -2.62,1.96 -4.83,4.53 -6.67,7.7 z m 11.51,7.14 c 0.96,-1.66 2.13,-3.09 3.55,-4.22 1.39,-1.1 2.89,-1.93 4.48,-2.4 1.62,-0.46 3.27,-0.61 4.98,-0.42 1.7,0.22 3.34,0.75 4.96,1.68 1.56,0.9 2.8,2.05 3.8,3.39 0.99,1.38 1.68,2.88 2.06,4.5 0.41,1.63 0.45,3.31 0.2,5.07 -0.29,1.74 -0.89,3.43 -1.83,5.05 -1.03,1.78 -2.27,3.26 -3.67,4.44 -1.43,1.16 -2.97,1.96 -4.59,2.43 -1.62,0.45 -3.3,0.58 -5.05,0.37 -1.72,-0.23 -3.41,-0.83 -5,-1.75 -1.49,-0.86 -2.75,-1.98 -3.72,-3.38 -0.98,-1.38 -1.62,-2.89 -1.95,-4.53 -0.31,-1.66 -0.35,-3.34 -0.1,-5.09 0.26,-1.76 0.91,-3.46 1.88,-5.14" /></g></g></svg>