<?xml version="1.0" encoding="UTF-8" standalone="no"?>
<!-- Created with Inkscape (http://www.inkscape.org/) -->

<svg
   version="1.1"
   id="svg2"
   width="482.66666"
   height="482.66666"
   viewBox="0 0 482.66666 482.66666"
   sodipodi:docname="LM_Modes_7ths.eps"
   xmlns:inkscape="http://www.inkscape.org/namespaces/inkscape"
   xmlns:sodipodi="http://sodipodi.sourceforge.net/DTD/sodipodi-0.dtd"
   xmlns="http://www.w3.org/2000/svg"
   xmlns:svg="http://www.w3.org/2000/svg">
  <defs
     id="defs6" />
  <sodipodi:namedview
     id="namedview4"
     pagecolor="#ffffff"
     bordercolor="#000000"
     borderopacity="0.25"
     inkscape:showpageshadow="2"
     inkscape:pageopacity="0.0"
     inkscape:pagecheckerboard="0"
     inkscape:deskcolor="#d1d1d1" />
  <g
     id="g8"
     inkscape:groupmode="layer"
     inkscape:label="ink_ext_XXXXXX"
     transform="matrix(1.3333333,0,0,-1.3333333,0,482.66667)">
    <g
       id="g10"
       transform="scale(0.1)">
      <path
         d="M 1.12109,3615.79 H 56.918 v -55.8 H 1.12109 v 55.8"
         style="fill:#ffffff;fill-opacity:1;fill-rule:evenodd;stroke:none"
         id="path12" />
      <path
         d="m 3556.5,3615.79 h 55.79 v -55.8 h -55.79 v 55.8"
         style="fill:#ffffff;fill-opacity:1;fill-rule:evenodd;stroke:none"
         id="path14" />
      <path
         d="M 1.12109,60.4102 H 56.918 V 4.61328 H 1.12109 V 60.4102"
         style="fill:#ffffff;fill-opacity:1;fill-rule:evenodd;stroke:none"
         id="path16" />
      <path
         d="m 3556.5,60.4102 h 55.79 V 4.61328 H 3556.5 V 60.4102"
         style="fill:#ffffff;fill-opacity:1;fill-rule:evenodd;stroke:none"
         id="path18" />
      <path
         d="m 1823.25,3043.85 c 0,-0.37 -0.1,-0.72 -0.3,-1.02 -0.2,-0.3 -0.53,-0.53 -1.03,-0.7 -0.47,-0.18 -1.1,-0.3 -1.85,-0.43 -0.77,-0.12 -1.75,-0.2 -2.97,-0.2 -1.13,0 -2.1,0.08 -2.9,0.2 -0.8,0.13 -1.43,0.25 -1.9,0.43 -0.48,0.17 -0.8,0.4 -1,0.7 -0.18,0.3 -0.28,0.65 -0.28,1.02 v 82.55 h -0.15 l -33.77,-82.9 c -0.15,-0.35 -0.35,-0.65 -0.63,-0.9 -0.25,-0.22 -0.65,-0.45 -1.15,-0.62 -0.52,-0.15 -1.12,-0.28 -1.85,-0.35 -0.7,-0.08 -1.55,-0.13 -2.52,-0.13 -1.03,0 -1.9,0.05 -2.63,0.15 -0.75,0.1 -1.35,0.25 -1.85,0.4 -0.47,0.18 -0.85,0.4 -1.12,0.63 -0.28,0.25 -0.45,0.52 -0.55,0.82 l -32.3,82.9 h -0.08 v -82.55 c 0,-0.37 -0.1,-0.72 -0.3,-1.02 -0.17,-0.3 -0.52,-0.53 -1.02,-0.7 -0.48,-0.18 -1.1,-0.3 -1.9,-0.43 -0.78,-0.12 -1.78,-0.2 -3,-0.2 -1.18,0 -2.15,0.08 -2.93,0.2 -0.77,0.13 -1.4,0.25 -1.87,0.43 -0.45,0.17 -0.78,0.4 -0.95,0.7 -0.18,0.3 -0.25,0.65 -0.25,1.02 v 87.18 c 0,2.05 0.52,3.5 1.6,4.37 1.07,0.88 2.27,1.33 3.6,1.33 h 7.62 c 1.55,0 2.93,-0.15 4.1,-0.45 1.18,-0.28 2.2,-0.75 3.08,-1.37 0.87,-0.66 1.6,-1.46 2.2,-2.43 0.57,-0.98 1.1,-2.13 1.52,-3.45 l 27.48,-68.62 h 0.35 l 28.57,68.42 c 0.53,1.45 1.13,2.7 1.75,3.72 0.65,1.03 1.35,1.85 2.1,2.45 0.75,0.63 1.6,1.05 2.53,1.33 0.92,0.28 2,0.4 3.22,0.4 h 7.98 c 0.73,0 1.42,-0.1 2.1,-0.32 0.65,-0.23 1.2,-0.58 1.67,-1.03 0.48,-0.47 0.85,-1.05 1.13,-1.75 0.3,-0.72 0.45,-1.58 0.45,-2.6 v -87.18"
         style="fill:#1a1f20;fill-opacity:1;fill-rule:evenodd;stroke:none"
         id="path20" />
      <path
         d="m 1904.93,3131.3 c 0,-0.87 -0.05,-1.67 -0.13,-2.37 -0.08,-0.7 -0.17,-1.4 -0.28,-2.05 -0.12,-0.65 -0.3,-1.3 -0.52,-1.9 -0.23,-0.62 -0.48,-1.25 -0.78,-1.95 l -34.12,-78.65 c -0.25,-0.6 -0.55,-1.08 -0.92,-1.43 -0.36,-0.37 -0.83,-0.67 -1.38,-0.9 -0.58,-0.2 -1.28,-0.35 -2.18,-0.42 -0.87,-0.08 -1.95,-0.13 -3.22,-0.13 -1.65,0 -2.95,0.08 -3.88,0.23 -0.92,0.15 -1.59,0.37 -2,0.7 -0.42,0.32 -0.6,0.7 -0.55,1.17 0.05,0.45 0.21,1 0.5,1.65 l 35.91,80.43 h -45.5 c -0.93,0 -1.63,0.48 -2.08,1.45 -0.48,0.98 -0.7,2.35 -0.7,4.1 0,0.93 0.05,1.75 0.17,2.42 0.13,0.68 0.33,1.26 0.55,1.73 0.25,0.45 0.55,0.8 0.88,1.03 0.35,0.22 0.75,0.32 1.18,0.32 h 55.22 c 0.7,0 1.3,-0.07 1.8,-0.23 0.53,-0.14 0.9,-0.42 1.17,-0.87 0.28,-0.45 0.48,-1 0.63,-1.68 0.15,-0.7 0.23,-1.57 0.23,-2.65"
         style="fill:#1a1f20;fill-opacity:1;fill-rule:evenodd;stroke:none"
         id="path22" />
      <path
         d="m 1840.8,2474.92 c 0,-0.87 -0.05,-1.67 -0.13,-2.37 -0.08,-0.7 -0.17,-1.4 -0.28,-2.05 -0.12,-0.65 -0.29,-1.3 -0.52,-1.9 -0.23,-0.63 -0.48,-1.25 -0.77,-1.95 L 1804.97,2388 c -0.25,-0.6 -0.55,-1.08 -0.92,-1.43 -0.35,-0.37 -0.83,-0.68 -1.38,-0.9 -0.58,-0.2 -1.27,-0.35 -2.17,-0.42 -0.88,-0.08 -1.95,-0.13 -3.23,-0.13 -1.65,0 -2.95,0.08 -3.88,0.22 -0.92,0.16 -1.59,0.38 -2,0.71 -0.42,0.32 -0.59,0.7 -0.55,1.17 0.06,0.45 0.21,1 0.51,1.65 l 35.9,80.43 h -45.5 c -0.93,0 -1.63,0.47 -2.08,1.45 -0.47,0.97 -0.7,2.35 -0.7,4.1 0,0.92 0.05,1.75 0.17,2.42 0.13,0.68 0.33,1.25 0.56,1.73 0.25,0.45 0.55,0.8 0.87,1.02 0.35,0.23 0.75,0.33 1.18,0.33 h 55.22 c 0.7,0 1.3,-0.08 1.8,-0.22 0.53,-0.16 0.9,-0.43 1.18,-0.88 0.27,-0.45 0.47,-1 0.62,-1.68 0.15,-0.7 0.23,-1.57 0.23,-2.65"
         style="fill:#1a1f20;fill-opacity:1;fill-rule:evenodd;stroke:none"
         id="path24" />
      <path
         d="m 1502.52,2402.21 c 0.44,-0.76 0.8,-1.48 1.09,-2.12 0.28,-0.64 0.55,-1.3 0.79,-1.91 0.22,-0.63 0.39,-1.27 0.5,-1.9 0.12,-0.66 0.22,-1.33 0.31,-2.08 l 9.97,-85.15 c 0.09,-0.65 0.07,-1.21 -0.08,-1.7 -0.12,-0.5 -0.38,-1 -0.74,-1.47 -0.4,-0.46 -0.93,-0.94 -1.67,-1.46 -0.72,-0.51 -1.62,-1.09 -2.73,-1.72 -1.42,-0.83 -2.58,-1.42 -3.46,-1.76 -0.87,-0.33 -1.57,-0.48 -2.08,-0.4 -0.53,0.07 -0.87,0.31 -1.06,0.74 -0.19,0.42 -0.33,0.97 -0.4,1.68 l -9.33,87.58 -39.35,-22.84 c -0.8,-0.47 -1.64,-0.41 -2.52,0.21 -0.9,0.61 -1.79,1.68 -2.67,3.2 -0.46,0.8 -0.83,1.53 -1.06,2.18 -0.23,0.65 -0.35,1.25 -0.39,1.77 -0.01,0.51 0.07,0.96 0.24,1.32 0.19,0.37 0.48,0.66 0.85,0.87 l 47.76,27.73 c 0.61,0.35 1.17,0.59 1.67,0.71 0.53,0.13 0.99,0.08 1.46,-0.17 0.46,-0.25 0.91,-0.62 1.38,-1.13 0.48,-0.53 0.98,-1.25 1.52,-2.18"
         style="fill:#1a1f20;fill-opacity:1;fill-rule:evenodd;stroke:none"
         id="path26" />
      <path
         d="m 2164.35,2371.54 c -0.43,-0.77 -0.87,-1.44 -1.28,-2.01 -0.41,-0.57 -0.84,-1.13 -1.25,-1.65 -0.43,-0.5 -0.9,-0.98 -1.39,-1.39 -0.51,-0.44 -1.04,-0.85 -1.64,-1.31 l -68.5,-51.57 c -0.51,-0.4 -1.01,-0.66 -1.5,-0.78 -0.5,-0.16 -1.06,-0.19 -1.65,-0.11 -0.6,0.11 -1.28,0.33 -2.1,0.71 -0.79,0.36 -1.75,0.85 -2.86,1.48 -1.44,0.81 -2.53,1.52 -3.26,2.11 -0.74,0.58 -1.21,1.11 -1.4,1.59 -0.21,0.5 -0.17,0.91 0.11,1.3 0.26,0.36 0.66,0.77 1.25,1.18 l 70.91,52.24 -39.58,22.45 c -0.8,0.46 -1.17,1.22 -1.08,2.29 0.07,1.08 0.55,2.39 1.41,3.91 0.46,0.81 0.91,1.5 1.35,2.02 0.44,0.53 0.9,0.93 1.33,1.23 0.44,0.27 0.87,0.43 1.27,0.46 0.41,0.02 0.81,-0.08 1.18,-0.3 l 48.03,-27.25 c 0.61,-0.35 1.1,-0.71 1.46,-1.09 0.38,-0.38 0.57,-0.81 0.59,-1.34 0.02,-0.52 -0.08,-1.1 -0.29,-1.76 -0.21,-0.68 -0.58,-1.48 -1.11,-2.41"
         style="fill:#1a1f20;fill-opacity:1;fill-rule:evenodd;stroke:none"
         id="path28" />
      <path
         d="m 2397.99,2115.72 c -0.75,-0.44 -1.47,-0.8 -2.11,-1.09 -0.65,-0.29 -1.3,-0.55 -1.91,-0.79 -0.63,-0.22 -1.27,-0.4 -1.91,-0.51 -0.65,-0.12 -1.32,-0.22 -2.07,-0.31 l -85.14,-10.15 c -0.64,-0.08 -1.21,-0.07 -1.69,0.08 -0.5,0.11 -1,0.37 -1.47,0.74 -0.47,0.39 -0.95,0.92 -1.47,1.66 -0.51,0.72 -1.09,1.62 -1.73,2.72 -0.83,1.43 -1.42,2.59 -1.76,3.46 -0.34,0.88 -0.48,1.57 -0.4,2.08 0.06,0.53 0.3,0.87 0.74,1.07 0.41,0.18 0.96,0.33 1.68,0.4 l 87.55,9.51 -22.92,39.3 c -0.47,0.81 -0.41,1.65 0.21,2.53 0.6,0.9 1.68,1.79 3.19,2.67 0.8,0.46 1.53,0.84 2.18,1.07 0.65,0.23 1.24,0.35 1.77,0.39 0.51,0.02 0.97,-0.07 1.32,-0.24 0.37,-0.18 0.66,-0.48 0.88,-0.85 l 27.82,-47.7 c 0.35,-0.61 0.59,-1.16 0.71,-1.67 0.14,-0.53 0.09,-0.99 -0.16,-1.46 -0.25,-0.46 -0.62,-0.91 -1.13,-1.38 -0.53,-0.48 -1.25,-0.99 -2.18,-1.53"
         style="fill:#1a1f20;fill-opacity:1;fill-rule:evenodd;stroke:none"
         id="path30" />
      <path
         d="m 1203.51,2886.44 c 0.19,-0.33 0.28,-0.68 0.25,-1.04 -0.02,-0.36 -0.19,-0.72 -0.54,-1.12 -0.32,-0.39 -0.8,-0.81 -1.38,-1.29 -0.61,-0.5 -1.42,-1.05 -2.48,-1.67 -0.97,-0.56 -1.86,-0.98 -2.61,-1.27 -0.75,-0.3 -1.36,-0.5 -1.86,-0.59 -0.5,-0.08 -0.89,-0.05 -1.21,0.11 -0.3,0.17 -0.57,0.42 -0.76,0.75 l -41.32,71.46 -0.13,-0.08 12.26,-88.66 c 0.05,-0.38 0.02,-0.75 -0.09,-1.1 -0.1,-0.32 -0.34,-0.71 -0.68,-1.12 -0.38,-0.39 -0.84,-0.8 -1.43,-1.23 -0.57,-0.41 -1.28,-0.88 -2.12,-1.37 -0.89,-0.51 -1.67,-0.9 -2.35,-1.18 -0.7,-0.29 -1.29,-0.46 -1.8,-0.58 -0.5,-0.08 -0.94,-0.08 -1.29,-0.02 -0.36,0.08 -0.65,0.23 -0.89,0.44 l -69.45,55.59 -0.07,-0.04 41.32,-71.46 c 0.19,-0.33 0.28,-0.68 0.25,-1.04 0,-0.34 -0.18,-0.72 -0.53,-1.11 -0.33,-0.39 -0.8,-0.82 -1.43,-1.32 -0.61,-0.5 -1.44,-1.07 -2.5,-1.68 -1.02,-0.59 -1.9,-1.01 -2.63,-1.29 -0.74,-0.28 -1.34,-0.48 -1.84,-0.57 -0.47,-0.07 -0.87,-0.04 -1.17,0.13 -0.3,0.17 -0.55,0.44 -0.73,0.76 l -43.64,75.47 c -1.03,1.77 -1.3,3.29 -0.8,4.59 0.49,1.29 1.3,2.28 2.45,2.95 l 6.6,3.81 c 1.34,0.78 2.61,1.34 3.77,1.67 1.16,0.35 2.28,0.45 3.36,0.35 1.08,-0.13 2.1,-0.46 3.11,-1 0.99,-0.56 2.02,-1.29 3.05,-2.23 l 58.14,-45.65 0.3,0.17 -9.51,73.54 c -0.28,1.52 -0.38,2.9 -0.36,4.11 0.05,1.21 0.25,2.27 0.6,3.17 0.33,0.91 0.85,1.71 1.52,2.41 0.66,0.7 1.53,1.34 2.59,1.96 l 6.9,3.99 c 0.63,0.36 1.29,0.63 1.98,0.77 0.68,0.13 1.33,0.1 1.97,-0.05 0.65,-0.17 1.26,-0.48 1.85,-0.95 0.62,-0.48 1.18,-1.14 1.69,-2.03 l 43.64,-75.46"
         style="fill:#1a1f20;fill-opacity:1;fill-rule:evenodd;stroke:none"
         id="path32" />
      <path
         d="m 1230.44,3003.03 c 0.44,-0.76 0.79,-1.48 1.08,-2.12 0.28,-0.64 0.55,-1.3 0.78,-1.91 0.22,-0.63 0.4,-1.28 0.5,-1.91 0.12,-0.66 0.22,-1.32 0.31,-2.08 l 9.83,-85.17 c 0.08,-0.64 0.06,-1.2 -0.09,-1.69 -0.12,-0.5 -0.38,-1 -0.74,-1.47 -0.4,-0.46 -0.93,-0.94 -1.67,-1.46 -0.72,-0.5 -1.63,-1.08 -2.73,-1.72 -1.43,-0.82 -2.59,-1.41 -3.47,-1.75 -0.87,-0.33 -1.57,-0.47 -2.08,-0.39 -0.53,0.07 -0.87,0.31 -1.06,0.74 -0.18,0.42 -0.33,0.97 -0.4,1.68 l -9.18,87.6 -39.39,-22.78 c -0.8,-0.47 -1.64,-0.4 -2.52,0.22 -0.9,0.6 -1.78,1.68 -2.66,3.2 -0.46,0.8 -0.83,1.53 -1.06,2.18 -0.23,0.65 -0.34,1.25 -0.39,1.77 -0.01,0.51 0.08,0.97 0.25,1.33 0.19,0.36 0.48,0.65 0.85,0.86 l 47.81,27.65 c 0.61,0.35 1.16,0.58 1.67,0.71 0.53,0.13 0.99,0.08 1.46,-0.17 0.46,-0.26 0.91,-0.63 1.37,-1.14 0.48,-0.53 0.99,-1.25 1.53,-2.18"
         style="fill:#1a1f20;fill-opacity:1;fill-rule:evenodd;stroke:none"
         id="path34" />
      <path
         d="m 2496.32,2937.54 c -0.43,-0.76 -0.88,-1.43 -1.29,-2 -0.42,-0.57 -0.85,-1.13 -1.26,-1.64 -0.44,-0.5 -0.91,-0.97 -1.41,-1.38 -0.51,-0.43 -1.04,-0.85 -1.65,-1.31 l -68.86,-51.07 c -0.51,-0.39 -1.01,-0.66 -1.51,-0.77 -0.49,-0.15 -1.05,-0.17 -1.64,-0.09 -0.6,0.11 -1.28,0.33 -2.1,0.72 -0.8,0.37 -1.75,0.86 -2.85,1.5 -1.43,0.82 -2.52,1.54 -3.25,2.13 -0.73,0.59 -1.2,1.12 -1.38,1.6 -0.21,0.5 -0.17,0.91 0.11,1.3 0.27,0.36 0.67,0.76 1.26,1.18 l 71.28,51.72 -39.41,22.74 c -0.8,0.46 -1.17,1.22 -1.07,2.29 0.07,1.08 0.57,2.39 1.44,3.9 0.47,0.8 0.92,1.49 1.36,2.02 0.45,0.52 0.91,0.92 1.34,1.22 0.45,0.26 0.88,0.42 1.27,0.45 0.42,0.02 0.82,-0.1 1.18,-0.31 l 47.84,-27.6 c 0.6,-0.35 1.09,-0.71 1.45,-1.09 0.38,-0.39 0.56,-0.82 0.58,-1.34 0.01,-0.53 -0.09,-1.11 -0.3,-1.77 -0.22,-0.68 -0.59,-1.48 -1.13,-2.4"
         style="fill:#1a1f20;fill-opacity:1;fill-rule:evenodd;stroke:none"
         id="path36" />
      <path
         d="m 2480.79,2166.67 c -3.02,-1.73 -6.22,-2.8 -9.54,-3.18 -3.33,-0.39 -6.62,-0.11 -9.8,0.81 -3.25,0.93 -6.21,2.49 -8.94,4.68 -2.72,2.16 -5.06,4.92 -6.94,8.2 -1.89,3.31 -3.09,6.59 -3.62,9.88 -0.54,3.29 -0.42,6.48 0.33,9.53 0.7,3.06 2.05,5.86 4.02,8.47 1.95,2.64 4.54,4.84 7.72,6.66 3.18,1.82 6.44,2.93 9.82,3.3 3.39,0.34 6.61,0.03 9.74,-0.93 3.14,-0.99 6.03,-2.55 8.77,-4.7 2.72,-2.16 5.01,-4.9 6.89,-8.18 1.85,-3.25 3.06,-6.53 3.58,-9.87 0.48,-3.35 0.4,-6.52 -0.32,-9.55 -0.66,-3.05 -2,-5.88 -3.97,-8.49 -1.97,-2.61 -4.56,-4.81 -7.74,-6.63 z m -7.08,11.54 c 1.66,0.95 3.11,2.11 4.24,3.52 1.1,1.4 1.94,2.89 2.43,4.48 0.46,1.62 0.62,3.27 0.44,4.98 -0.21,1.7 -0.73,3.35 -1.66,4.97 -0.89,1.55 -2.03,2.8 -3.37,3.81 -1.37,0.99 -2.87,1.7 -4.49,2.08 -1.63,0.42 -3.31,0.47 -5.07,0.23 -1.74,-0.28 -3.43,-0.87 -5.05,-1.8 -1.79,-1.02 -3.28,-2.25 -4.46,-3.65 -1.17,-1.43 -1.99,-2.95 -2.45,-4.57 -0.47,-1.62 -0.61,-3.31 -0.41,-5.05 0.23,-1.73 0.82,-3.42 1.73,-5.01 0.86,-1.5 1.96,-2.77 3.36,-3.74 1.37,-0.99 2.89,-1.64 4.51,-1.98 1.67,-0.31 3.34,-0.37 5.11,-0.12 1.75,0.25 3.46,0.89 5.14,1.85"
         style="fill:#1a1f20;fill-opacity:1;fill-rule:evenodd;stroke:none"
         id="path38" />
    </g>
  </g>
</svg>
