<?xml version="1.0" encoding="UTF-8" standalone="no"?>
<!-- Created with Inkscape (http://www.inkscape.org/) -->

<svg
   version="1.1"
   id="svg2"
   width="482.66666"
   height="482.66666"
   viewBox="0 0 482.66666 482.66666"
   sodipodi:docname="LM_Phrygian.eps"
   xmlns:inkscape="http://www.inkscape.org/namespaces/inkscape"
   xmlns:sodipodi="http://sodipodi.sourceforge.net/DTD/sodipodi-0.dtd"
   xmlns="http://www.w3.org/2000/svg"
   xmlns:svg="http://www.w3.org/2000/svg">
  <defs
     id="defs6" />
  <sodipodi:namedview
     id="namedview4"
     pagecolor="#ffffff"
     bordercolor="#000000"
     borderopacity="0.25"
     inkscape:showpageshadow="2"
     inkscape:pageopacity="0.0"
     inkscape:pagecheckerboard="0"
     inkscape:deskcolor="#d1d1d1" />
  <g
     id="g8"
     inkscape:groupmode="layer"
     inkscape:label="ink_ext_XXXXXX"
     transform="matrix(1.3333333,0,0,-1.3333333,0,482.66667)">
    <g
       id="g10"
       transform="scale(0.1)">
      <path
         d="M 1.12109,3615.79 H 56.918 v -55.8 H 1.12109 v 55.8"
         style="fill:#ffffff;fill-opacity:1;fill-rule:evenodd;stroke:none"
         id="path12" />
      <path
         d="m 3556.5,3615.79 h 55.79 v -55.8 h -55.79 v 55.8"
         style="fill:#ffffff;fill-opacity:1;fill-rule:evenodd;stroke:none"
         id="path14" />
      <path
         d="M 1.12109,60.4102 H 56.918 V 4.61328 H 1.12109 V 60.4102"
         style="fill:#ffffff;fill-opacity:1;fill-rule:evenodd;stroke:none"
         id="path16" />
      <path
         d="m 3556.5,60.4102 h 55.79 V 4.61328 H 3556.5 V 60.4102"
         style="fill:#ffffff;fill-opacity:1;fill-rule:evenodd;stroke:none"
         id="path18" />
      <path
         d="m 2317.28,1947.19 c -62.36,225.99 -270,392.79 -515.36,392.79 -144.88,0 -272.32,-60.12 -368.76,-154.3 l 92.24,-93.64 c 72.17,72.05 171.69,116.71 281.3,116.71 184,0 339.55,-125.83 385.03,-295.82 l 125.55,34.26"
         style="fill:#1a1f20;fill-opacity:1;fill-rule:evenodd;stroke:none"
         id="path20" />
      <path
         d="m 2644,2647.57 -91.93,-91.93 c -191.11,191.11 -454.84,309.59 -745.37,309.59 -290.52,0 -554.25,-118.48 -745.36,-309.59 l -91.93,91.93 c 214.68,214.68 510.94,347.77 837.29,347.77 326.36,0 622.62,-133.09 837.3,-347.77"
         style="fill:#1a1f20;fill-opacity:1;fill-rule:evenodd;stroke:none"
         id="path22" />
      <path
         d="m 2025.64,2172.53 c -0.2,-0.36 -0.53,-0.62 -0.93,-0.77 -0.4,-0.17 -0.94,-0.2 -1.6,-0.05 -0.66,0.12 -1.48,0.39 -2.47,0.8 -1,0.41 -2.2,1.01 -3.64,1.82 -1.4,0.8 -2.55,1.51 -3.43,2.16 -0.88,0.64 -1.55,1.22 -2,1.72 -0.45,0.48 -0.71,0.95 -0.78,1.4 -0.09,0.42 -0.01,0.82 0.19,1.18 l 38.22,67.82 c 0.2,0.36 0.51,0.64 0.91,0.78 0.42,0.17 0.96,0.19 1.64,0.03 0.68,-0.13 1.5,-0.4 2.49,-0.8 0.99,-0.41 2.2,-1.02 3.6,-1.81 1.44,-0.81 2.58,-1.53 3.45,-2.17 0.86,-0.63 1.51,-1.2 1.96,-1.7 0.47,-0.49 0.73,-0.96 0.79,-1.39 0.08,-0.42 0.02,-0.84 -0.18,-1.2 l -38.22,-67.82"
         style="fill:#ffffff;fill-opacity:1;fill-rule:evenodd;stroke:none"
         id="path24" />
      <path
         d="m 2181.62,2008.36 c -0.73,-0.18 -1.38,-0.22 -1.94,-0.17 -0.55,0.08 -1.12,0.38 -1.71,0.92 -0.58,0.57 -1.22,1.38 -1.94,2.5 -0.72,1.11 -1.62,2.58 -2.67,4.4 -0.85,1.47 -1.56,2.74 -2.15,3.81 -0.59,1.06 -1.06,1.97 -1.41,2.75 -0.35,0.77 -0.58,1.44 -0.69,1.98 -0.12,0.56 -0.17,1.03 -0.13,1.48 0.05,0.43 0.17,0.83 0.4,1.18 0.2,0.35 0.51,0.73 0.91,1.16 l 51,57.76 c 1.06,1.19 1.96,2.06 2.68,2.6 0.72,0.54 1.41,0.69 2.05,0.46 0.66,-0.23 1.34,-0.89 2.07,-1.94 0.73,-1.04 1.68,-2.55 2.83,-4.55 0.97,-1.69 1.7,-3.03 2.18,-4.04 0.47,-0.98 0.76,-1.79 0.87,-2.43 0.11,-0.61 0.05,-1.12 -0.2,-1.55 -0.24,-0.41 -0.61,-0.87 -1.04,-1.38 l -45.02,-49.15 0.02,-0.04 64.62,14.56 c 0.72,0.22 1.31,0.33 1.84,0.34 0.51,-0.01 1.04,-0.21 1.55,-0.61 0.53,-0.4 1.13,-1.08 1.78,-2.04 0.64,-0.93 1.47,-2.29 2.46,-4 0.98,-1.69 1.68,-3.04 2.11,-4.05 0.43,-1.01 0.54,-1.8 0.32,-2.4 -0.23,-0.58 -0.76,-1.05 -1.61,-1.36 -0.85,-0.31 -2.05,-0.63 -3.58,-0.93 l -75.6,-15.26"
         style="fill:#ffffff;fill-opacity:1;fill-rule:evenodd;stroke:none"
         id="path26" />
      <path
         d="m 1262.68,2743.6 c 0.21,-0.35 0.27,-0.77 0.2,-1.19 -0.06,-0.43 -0.31,-0.91 -0.78,-1.4 -0.44,-0.51 -1.08,-1.08 -1.94,-1.72 -0.86,-0.65 -1.99,-1.38 -3.43,-2.21 -1.39,-0.8 -2.59,-1.42 -3.59,-1.85 -1.01,-0.43 -1.85,-0.71 -2.5,-0.84 -0.65,-0.15 -1.18,-0.13 -1.6,0.03 -0.41,0.14 -0.72,0.41 -0.93,0.77 l -38.92,67.42 c -0.21,0.35 -0.29,0.76 -0.21,1.18 0.07,0.44 0.33,0.92 0.81,1.42 0.46,0.52 1.11,1.09 1.96,1.74 0.86,0.64 2,1.37 3.39,2.18 1.43,0.82 2.63,1.44 3.62,1.86 0.99,0.42 1.81,0.69 2.46,0.82 0.66,0.15 1.2,0.14 1.6,-0.03 0.41,-0.14 0.73,-0.4 0.94,-0.76 l 38.92,-67.42"
         style="fill:#ffffff;fill-opacity:1;fill-rule:evenodd;stroke:none"
         id="path28" />
      <path
         d="m 1292.8,2760.99 c 0.21,-0.35 0.27,-0.77 0.2,-1.19 -0.06,-0.43 -0.31,-0.91 -0.78,-1.4 -0.43,-0.51 -1.08,-1.08 -1.94,-1.72 -0.86,-0.65 -1.99,-1.38 -3.42,-2.21 -1.4,-0.8 -2.6,-1.42 -3.6,-1.85 -1.01,-0.43 -1.85,-0.71 -2.5,-0.84 -0.65,-0.15 -1.19,-0.13 -1.6,0.03 -0.41,0.14 -0.72,0.41 -0.93,0.77 l -38.92,67.42 c -0.2,0.35 -0.29,0.76 -0.2,1.18 0.07,0.45 0.32,0.92 0.8,1.43 0.46,0.51 1.11,1.08 1.97,1.73 0.85,0.64 1.99,1.37 3.38,2.18 1.43,0.82 2.63,1.44 3.62,1.86 0.99,0.42 1.81,0.69 2.46,0.82 0.66,0.16 1.2,0.14 1.6,-0.03 0.41,-0.14 0.74,-0.4 0.94,-0.76 l 38.92,-67.42"
         style="fill:#ffffff;fill-opacity:1;fill-rule:evenodd;stroke:none"
         id="path30" />
      <path
         d="m 1214.55,2707.52 -47.66,74.23 3.22,2.05 27.75,-43.21 c 1.3,4.71 3.6,8.12 6.88,10.23 2.61,1.67 5.28,2.27 8.06,1.79 2.79,-0.48 5.19,-2.2 7.22,-5.12 1.31,-2.16 1.9,-4.7 1.77,-7.63 -0.13,-2.92 -0.73,-6.25 -1.79,-9.99 -1.06,-3.75 -2.18,-7.62 -3.3,-11.64 -1.15,-4.02 -1.86,-7.58 -2.15,-10.71 z m -13.48,28.06 11.93,-18.57 c 0.93,6.07 1.45,11.02 1.59,14.87 0.13,3.81 -0.74,7.19 -2.61,10.11 -1.25,1.7 -2.6,2.76 -4.02,3.13 -1.42,0.39 -2.77,0.17 -4.01,-0.62 -2.45,-1.58 -3.42,-4.55 -2.88,-8.92"
         style="fill:#ffffff;fill-opacity:1;fill-rule:evenodd;stroke:none"
         id="path32" />
      <path
         d="m 2327.91,2756.78 c -0.21,-0.35 -0.54,-0.62 -0.95,-0.76 -0.39,-0.17 -0.93,-0.19 -1.59,-0.03 -0.66,0.13 -1.48,0.4 -2.47,0.82 -0.99,0.42 -2.19,1.04 -3.61,1.86 -1.4,0.81 -2.54,1.54 -3.41,2.19 -0.88,0.66 -1.54,1.25 -1.98,1.75 -0.45,0.48 -0.7,0.96 -0.77,1.4 -0.08,0.42 0,0.83 0.21,1.19 l 38.92,67.41 c 0.2,0.35 0.51,0.63 0.92,0.77 0.42,0.16 0.96,0.18 1.64,0.01 0.67,-0.14 1.49,-0.41 2.48,-0.83 0.99,-0.42 2.18,-1.04 3.58,-1.84 1.43,-0.83 2.57,-1.56 3.42,-2.2 0.86,-0.65 1.5,-1.22 1.95,-1.73 0.46,-0.49 0.71,-0.97 0.77,-1.4 0.08,-0.42 0.02,-0.84 -0.19,-1.19 l -38.92,-67.42"
         style="fill:#ffffff;fill-opacity:1;fill-rule:evenodd;stroke:none"
         id="path34" />
      <path
         d="m 2358.02,2739.39 c -0.2,-0.35 -0.53,-0.62 -0.93,-0.76 -0.41,-0.17 -0.94,-0.18 -1.61,-0.03 -0.65,0.13 -1.47,0.4 -2.46,0.82 -0.98,0.42 -2.18,1.04 -3.61,1.87 -1.4,0.8 -2.53,1.53 -3.41,2.18 -0.87,0.66 -1.54,1.24 -1.98,1.75 -0.45,0.48 -0.7,0.96 -0.77,1.4 -0.09,0.42 0,0.83 0.21,1.18 l 38.92,67.42 c 0.2,0.36 0.51,0.63 0.92,0.77 0.42,0.16 0.95,0.18 1.64,0.01 0.67,-0.14 1.49,-0.41 2.48,-0.83 0.99,-0.42 2.19,-1.04 3.58,-1.84 1.43,-0.83 2.57,-1.56 3.42,-2.2 0.86,-0.65 1.51,-1.22 1.94,-1.73 0.47,-0.49 0.73,-0.97 0.78,-1.4 0.08,-0.42 0.01,-0.84 -0.19,-1.19 l -38.93,-67.42"
         style="fill:#ffffff;fill-opacity:1;fill-rule:evenodd;stroke:none"
         id="path36" />
      <path
         d="m 2388.14,2722 c -0.2,-0.36 -0.53,-0.62 -0.93,-0.76 -0.41,-0.17 -0.94,-0.19 -1.6,-0.03 -0.66,0.13 -1.48,0.4 -2.47,0.82 -0.98,0.42 -2.18,1.04 -3.62,1.86 -1.39,0.81 -2.52,1.54 -3.4,2.2 -0.87,0.65 -1.54,1.23 -1.98,1.74 -0.45,0.48 -0.7,0.96 -0.77,1.4 -0.08,0.42 0,0.82 0.2,1.18 l 38.93,67.42 c 0.2,0.36 0.51,0.63 0.92,0.77 0.42,0.16 0.96,0.18 1.64,0.01 0.67,-0.14 1.49,-0.41 2.48,-0.83 0.99,-0.42 2.19,-1.04 3.58,-1.84 1.43,-0.83 2.56,-1.56 3.42,-2.2 0.86,-0.65 1.51,-1.22 1.94,-1.73 0.47,-0.49 0.73,-0.97 0.78,-1.4 0.08,-0.42 0.01,-0.84 -0.19,-1.19 L 2388.14,2722"
         style="fill:#ffffff;fill-opacity:1;fill-rule:evenodd;stroke:none"
         id="path38" />
      <path
         d="m 2274.23,2777.84 39.36,78.93 3.42,-1.7 -22.92,-45.97 c 4.71,1.3 8.81,1.07 12.31,-0.67 2.77,-1.38 4.64,-3.38 5.65,-6.02 1.02,-2.63 0.78,-5.58 -0.69,-8.82 -1.18,-2.23 -3.07,-4.03 -5.65,-5.42 -2.58,-1.38 -5.75,-2.58 -9.5,-3.57 -3.77,-1.01 -7.66,-2.04 -11.69,-3.12 -4.04,-1.07 -7.46,-2.28 -10.29,-3.64 z m 17.2,25.94 -9.85,-19.75 c 5.69,2.31 10.21,4.39 13.58,6.24 3.35,1.84 5.81,4.31 7.36,7.42 0.82,1.94 1.03,3.65 0.63,5.05 -0.4,1.42 -1.27,2.47 -2.59,3.13 -2.61,1.3 -5.65,0.61 -9.13,-2.09"
         style="fill:#ffffff;fill-opacity:1;fill-rule:evenodd;stroke:none"
         id="path40" />
      <path
         d="m 1805.25,2890.82 c -0.22,-0.72 -0.5,-1.3 -0.83,-1.76 -0.35,-0.43 -0.89,-0.79 -1.65,-1.02 -0.79,-0.22 -1.81,-0.37 -3.13,-0.44 -1.33,-0.06 -3.05,-0.1 -5.16,-0.1 -1.69,0 -3.15,0.02 -4.36,0.04 -1.22,0.02 -2.24,0.06 -3.09,0.15 -0.85,0.09 -1.55,0.22 -2.07,0.39 -0.54,0.17 -0.98,0.37 -1.35,0.63 -0.34,0.26 -0.63,0.56 -0.82,0.93 -0.2,0.35 -0.37,0.81 -0.54,1.38 l -24.53,73.03 c -0.49,1.53 -0.8,2.74 -0.91,3.63 -0.11,0.89 0.11,1.57 0.63,2 0.52,0.46 1.44,0.72 2.72,0.83 1.26,0.11 3.04,0.17 5.35,0.17 1.95,0 3.48,-0.04 4.58,-0.13 1.09,-0.08 1.94,-0.23 2.55,-0.45 0.58,-0.22 1,-0.52 1.24,-0.96 0.24,-0.41 0.45,-0.95 0.67,-1.59 l 20.06,-63.56 h 0.05 l 19.69,63.24 c 0.18,0.74 0.37,1.3 0.63,1.76 0.27,0.44 0.7,0.8 1.31,1.04 0.6,0.26 1.5,0.44 2.65,0.52 1.13,0.09 2.72,0.13 4.7,0.13 1.95,0 3.47,-0.06 4.56,-0.19 1.09,-0.13 1.83,-0.44 2.24,-0.94 0.39,-0.47 0.52,-1.17 0.37,-2.06 -0.15,-0.89 -0.48,-2.09 -0.98,-3.57 l -24.58,-73.1"
         style="fill:#ffffff;fill-opacity:1;fill-rule:evenodd;stroke:none"
         id="path42" />
      <path
         d="m 1858.18,2890.17 c 0,-0.42 -0.15,-0.81 -0.44,-1.13 -0.26,-0.35 -0.72,-0.63 -1.36,-0.83 -0.64,-0.22 -1.49,-0.39 -2.55,-0.52 -1.06,-0.13 -2.41,-0.19 -4.06,-0.19 -1.61,0 -2.96,0.06 -4.05,0.19 -1.08,0.13 -1.95,0.3 -2.58,0.52 -0.64,0.2 -1.09,0.48 -1.37,0.83 -0.29,0.32 -0.42,0.71 -0.42,1.13 v 77.84 c 0,0.42 0.13,0.81 0.42,1.13 0.28,0.35 0.73,0.63 1.41,0.83 0.65,0.21 1.5,0.39 2.57,0.52 1.06,0.13 2.41,0.19 4.02,0.19 1.65,0 3,-0.06 4.06,-0.19 1.06,-0.13 1.91,-0.31 2.55,-0.52 0.64,-0.2 1.1,-0.48 1.36,-0.83 0.29,-0.32 0.44,-0.71 0.44,-1.13 v -77.84"
         style="fill:#ffffff;fill-opacity:1;fill-rule:evenodd;stroke:none"
         id="path44" />
      <path
         d="m 1724.03,2881.92 -5.68,88.02 3.81,0.24 3.3,-51.25 c 3.43,3.49 7.09,5.36 10.99,5.61 3.09,0.2 5.71,-0.58 7.91,-2.35 2.21,-1.77 3.48,-4.44 3.84,-7.98 0.1,-2.52 -0.63,-5.03 -2.15,-7.53 -1.54,-2.49 -3.67,-5.11 -6.42,-7.86 -2.75,-2.77 -5.6,-5.62 -8.53,-8.58 -2.96,-2.96 -5.31,-5.72 -7.07,-8.32 z m 1.82,31.07 1.42,-22.03 c 3.75,4.86 6.61,8.94 8.6,12.23 1.97,3.27 2.85,6.65 2.62,10.11 -0.26,2.09 -0.94,3.68 -1.99,4.69 -1.05,1.03 -2.34,1.5 -3.81,1.4 -2.91,-0.19 -5.19,-2.31 -6.84,-6.4"
         style="fill:#ffffff;fill-opacity:1;fill-rule:evenodd;stroke:none"
         id="path46" />
      <path
         d="m 1595.57,2177.81 c 0.19,-0.73 0.25,-1.37 0.21,-1.93 -0.07,-0.56 -0.35,-1.13 -0.88,-1.74 -0.55,-0.59 -1.35,-1.25 -2.45,-2 -1.09,-0.74 -2.54,-1.67 -4.34,-2.76 -1.45,-0.88 -2.7,-1.62 -3.75,-2.24 -1.06,-0.61 -1.95,-1.1 -2.72,-1.47 -0.77,-0.37 -1.44,-0.62 -1.97,-0.74 -0.55,-0.13 -1.03,-0.2 -1.48,-0.16 -0.43,0.04 -0.83,0.15 -1.19,0.37 -0.35,0.19 -0.73,0.49 -1.18,0.88 l -58.91,49.66 c -1.21,1.04 -2.11,1.92 -2.66,2.63 -0.56,0.7 -0.72,1.39 -0.5,2.03 0.21,0.66 0.85,1.36 1.89,2.12 1.02,0.75 2.51,1.73 4.48,2.93 1.67,1.02 2.99,1.77 3.98,2.27 0.98,0.49 1.78,0.8 2.42,0.93 0.61,0.12 1.12,0.08 1.55,-0.17 0.42,-0.23 0.89,-0.58 1.4,-1.01 l 50.17,-43.87 0.04,0.02 -16.04,64.26 c -0.23,0.73 -0.36,1.31 -0.37,1.83 0,0.51 0.18,1.05 0.57,1.57 0.38,0.54 1.05,1.16 1.99,1.83 0.92,0.66 2.26,1.52 3.95,2.55 1.67,1.02 3,1.75 4,2.2 1,0.46 1.79,0.58 2.4,0.37 0.58,-0.21 1.05,-0.73 1.39,-1.57 0.33,-0.84 0.67,-2.03 1.01,-3.56 l 16.99,-75.23"
         style="fill:#ffffff;fill-opacity:1;fill-rule:evenodd;stroke:none"
         id="path48" />
      <path
         d="m 1641.13,2204.76 c 0.22,-0.35 0.29,-0.76 0.22,-1.19 -0.04,-0.43 -0.28,-0.91 -0.74,-1.41 -0.43,-0.52 -1.06,-1.11 -1.9,-1.77 -0.84,-0.67 -1.96,-1.43 -3.37,-2.28 -1.38,-0.84 -2.56,-1.48 -3.56,-1.94 -0.99,-0.45 -1.83,-0.75 -2.48,-0.9 -0.64,-0.16 -1.17,-0.15 -1.6,0 -0.41,0.13 -0.72,0.39 -0.94,0.75 l -40.46,66.5 c -0.21,0.36 -0.3,0.76 -0.23,1.18 0.06,0.45 0.31,0.93 0.78,1.44 0.44,0.53 1.08,1.12 1.92,1.79 0.84,0.66 1.96,1.41 3.33,2.25 1.41,0.86 2.6,1.5 3.58,1.95 0.97,0.44 1.79,0.73 2.44,0.87 0.66,0.17 1.2,0.17 1.6,0.01 0.41,-0.13 0.74,-0.39 0.96,-0.74 l 40.45,-66.51"
         style="fill:#ffffff;fill-opacity:1;fill-rule:evenodd;stroke:none"
         id="path50" />
      <path
         d="m 1670.85,2222.84 c 0.21,-0.36 0.29,-0.77 0.22,-1.19 -0.05,-0.44 -0.29,-0.92 -0.75,-1.42 -0.42,-0.52 -1.05,-1.1 -1.9,-1.77 -0.84,-0.66 -1.96,-1.42 -3.37,-2.28 -1.37,-0.83 -2.56,-1.48 -3.55,-1.93 -1,-0.46 -1.83,-0.76 -2.48,-0.9 -0.64,-0.16 -1.18,-0.15 -1.61,-0.01 -0.41,0.14 -0.72,0.4 -0.93,0.75 l -40.46,66.51 c -0.22,0.35 -0.31,0.76 -0.23,1.18 0.05,0.45 0.3,0.92 0.77,1.44 0.44,0.52 1.08,1.11 1.92,1.78 0.84,0.66 1.96,1.42 3.34,2.26 1.41,0.85 2.59,1.5 3.57,1.94 0.98,0.44 1.79,0.73 2.44,0.88 0.66,0.17 1.2,0.17 1.6,0 0.41,-0.13 0.75,-0.38 0.96,-0.74 l 40.46,-66.5"
         style="fill:#ffffff;fill-opacity:1;fill-rule:evenodd;stroke:none"
         id="path52" />
      <path
         d="m 1539.73,2134.42 -53.98,69.75 3.02,2.34 31.43,-40.62 c 0.88,4.81 2.87,8.41 5.96,10.8 2.45,1.89 5.05,2.72 7.88,2.48 2.81,-0.23 5.36,-1.72 7.64,-4.46 1.49,-2.03 2.3,-4.51 2.43,-7.44 0.12,-2.93 -0.18,-6.29 -0.92,-10.11 -0.72,-3.84 -1.49,-7.79 -2.26,-11.88 -0.79,-4.11 -1.19,-7.72 -1.2,-10.86 z m -15.89,26.77 13.51,-17.46 c 0.39,6.13 0.48,11.11 0.28,14.95 -0.2,3.81 -1.36,7.1 -3.48,9.84 -1.4,1.59 -2.84,2.52 -4.28,2.77 -1.46,0.26 -2.78,-0.07 -3.94,-0.97 -2.31,-1.78 -3.01,-4.82 -2.09,-9.13"
         style="fill:#ffffff;fill-opacity:1;fill-rule:evenodd;stroke:none"
         id="path54" />
      <path
         d="m 1777.2,2233.36 c 0,-0.42 -0.15,-0.81 -0.43,-1.13 -0.27,-0.35 -0.72,-0.64 -1.38,-0.83 -0.63,-0.22 -1.48,-0.39 -2.54,-0.52 -1.06,-0.13 -2.41,-0.2 -4.06,-0.2 -1.61,0 -2.96,0.07 -4.05,0.2 -1.08,0.13 -1.95,0.3 -2.58,0.52 -0.63,0.19 -1.09,0.48 -1.37,0.83 -0.29,0.32 -0.41,0.71 -0.41,1.13 v 77.84 c 0,0.41 0.12,0.8 0.41,1.13 0.28,0.35 0.74,0.63 1.41,0.83 0.65,0.21 1.5,0.39 2.57,0.52 1.06,0.13 2.41,0.2 4.02,0.2 1.65,0 3,-0.07 4.06,-0.2 1.06,-0.13 1.91,-0.31 2.54,-0.52 0.66,-0.2 1.11,-0.48 1.38,-0.83 0.28,-0.33 0.43,-0.72 0.43,-1.13 v -77.84"
         style="fill:#ffffff;fill-opacity:1;fill-rule:evenodd;stroke:none"
         id="path56" />
      <path
         d="m 1836.18,2234.01 c -0.22,-0.72 -0.51,-1.31 -0.83,-1.76 -0.35,-0.44 -0.89,-0.79 -1.65,-1.03 -0.79,-0.21 -1.81,-0.36 -3.13,-0.43 -1.33,-0.06 -3.05,-0.11 -5.16,-0.11 -1.7,0 -3.15,0.02 -4.37,0.05 -1.22,0.02 -2.24,0.06 -3.08,0.15 -0.85,0.08 -1.55,0.21 -2.07,0.39 -0.54,0.17 -0.98,0.37 -1.35,0.63 -0.34,0.26 -0.63,0.56 -0.82,0.93 -0.2,0.35 -0.37,0.81 -0.55,1.37 l -24.52,73.04 c -0.5,1.53 -0.8,2.74 -0.91,3.63 -0.11,0.9 0.11,1.57 0.63,2 0.52,0.46 1.43,0.72 2.72,0.83 1.26,0.11 3.04,0.18 5.34,0.18 1.96,0 3.48,-0.05 4.59,-0.14 1.09,-0.08 1.94,-0.24 2.55,-0.45 0.58,-0.22 1,-0.52 1.23,-0.96 0.24,-0.42 0.46,-0.95 0.68,-1.59 l 20.06,-63.56 h 0.05 l 19.69,63.24 c 0.18,0.74 0.37,1.3 0.63,1.76 0.26,0.43 0.7,0.8 1.3,1.04 0.61,0.26 1.5,0.44 2.66,0.52 1.13,0.09 2.72,0.14 4.69,0.14 1.96,0 3.48,-0.07 4.57,-0.2 1.08,-0.13 1.83,-0.44 2.24,-0.94 0.39,-0.47 0.52,-1.17 0.37,-2.06 -0.15,-0.89 -0.48,-2.09 -0.98,-3.57 l -24.58,-73.1"
         style="fill:#ffffff;fill-opacity:1;fill-rule:evenodd;stroke:none"
         id="path58" />
      <path
         d="m 1995.32,2136.35 c 40.12,-23.16 91.73,-9.33 114.89,30.79 23.17,40.12 9.34,91.73 -30.78,114.89 -40.12,23.17 -91.73,9.34 -114.9,-30.78 -23.16,-40.12 -9.33,-91.73 30.79,-114.9 z m 5.74,9.94 c 34.64,-20 79.21,-8.06 99.21,26.59 20,34.64 8.06,79.21 -26.58,99.21 -34.65,20 -79.21,8.06 -99.22,-26.58 -20,-34.65 -8.06,-79.21 26.59,-99.22"
         style="fill:#ffffff;fill-opacity:1;fill-rule:evenodd;stroke:none"
         id="path60" />
    </g>
  </g>
</svg>
