<?xml version="1.0" encoding="UTF-8" standalone="no"?>
<!-- Created with Inkscape (http://www.inkscape.org/) -->

<svg
   version="1.1"
   id="svg2"
   width="482.66666"
   height="482.66666"
   viewBox="0 0 482.66666 482.66666"
   sodipodi:docname="Mode_Locrian.eps"
   xmlns:inkscape="http://www.inkscape.org/namespaces/inkscape"
   xmlns:sodipodi="http://sodipodi.sourceforge.net/DTD/sodipodi-0.dtd"
   xmlns="http://www.w3.org/2000/svg"
   xmlns:svg="http://www.w3.org/2000/svg">
  <defs
     id="defs6" />
  <sodipodi:namedview
     id="namedview4"
     pagecolor="#ffffff"
     bordercolor="#000000"
     borderopacity="0.25"
     inkscape:showpageshadow="2"
     inkscape:pageopacity="0.0"
     inkscape:pagecheckerboard="0"
     inkscape:deskcolor="#d1d1d1" />
  <g
     id="g8"
     inkscape:groupmode="layer"
     inkscape:label="ink_ext_XXXXXX"
     transform="matrix(1.3333333,0,0,-1.3333333,0,482.66667)">
    <g
       id="g10"
       transform="scale(0.1)">
      <path
         d="M 1.12109,3615.79 H 56.918 v -55.8 H 1.12109 v 55.8"
         style="fill:#e9e9e9;fill-opacity:1;fill-rule:evenodd;stroke:none"
         id="path12" />
      <path
         d="m 3556.5,3615.79 h 55.79 v -55.8 h -55.79 v 55.8"
         style="fill:#e9e9e9;fill-opacity:1;fill-rule:evenodd;stroke:none"
         id="path14" />
      <path
         d="M 1.12109,60.4102 H 56.918 V 4.61328 H 1.12109 V 60.4102"
         style="fill:#e9e9e9;fill-opacity:1;fill-rule:evenodd;stroke:none"
         id="path16" />
      <path
         d="m 3556.5,60.4102 h 55.79 V 4.61328 H 3556.5 V 60.4102"
         style="fill:#e9e9e9;fill-opacity:1;fill-rule:evenodd;stroke:none"
         id="path18" />
      <path
         d="m 2317.28,1947.19 c -62.36,225.99 -270,392.79 -515.36,392.79 -144.88,0 -272.32,-60.12 -368.76,-154.3 l 92.24,-93.64 c 72.17,72.05 171.69,116.71 281.3,116.71 184,0 339.55,-125.83 385.03,-295.82 l 125.55,34.26"
         style="fill:#1a1f20;fill-opacity:1;fill-rule:evenodd;stroke:none"
         id="path20" />
      <path
         d="m 2644,2647.57 -91.93,-91.93 c -191.11,191.11 -454.84,309.59 -745.37,309.59 -290.52,0 -554.25,-118.48 -745.36,-309.59 l -91.93,91.93 c 214.68,214.68 510.94,347.77 837.29,347.77 326.36,0 622.62,-133.09 837.3,-347.77"
         style="fill:#1a1f20;fill-opacity:1;fill-rule:evenodd;stroke:none"
         id="path22" />
      <path
         d="m 1802.22,2890.17 c 0,-0.42 -0.15,-0.81 -0.43,-1.13 -0.26,-0.35 -0.72,-0.63 -1.37,-0.83 -0.63,-0.22 -1.48,-0.39 -2.54,-0.52 -1.07,-0.13 -2.42,-0.19 -4.07,-0.19 -1.61,0 -2.95,0.06 -4.04,0.19 -1.09,0.13 -1.96,0.3 -2.59,0.52 -0.63,0.2 -1.08,0.48 -1.37,0.83 -0.28,0.32 -0.41,0.71 -0.41,1.13 v 77.84 c 0,0.42 0.13,0.81 0.41,1.13 0.29,0.35 0.74,0.63 1.42,0.83 0.65,0.21 1.5,0.39 2.56,0.52 1.07,0.13 2.41,0.19 4.02,0.19 1.65,0 3,-0.06 4.07,-0.19 1.06,-0.13 1.91,-0.31 2.54,-0.52 0.65,-0.2 1.11,-0.48 1.37,-0.83 0.28,-0.32 0.43,-0.71 0.43,-1.13 v -77.84"
         style="fill:#ffffff;fill-opacity:1;fill-rule:evenodd;stroke:none"
         id="path24" />
      <path
         d="m 1837,2890.17 c 0,-0.42 -0.15,-0.81 -0.43,-1.13 -0.26,-0.35 -0.72,-0.63 -1.37,-0.83 -0.63,-0.22 -1.48,-0.39 -2.54,-0.52 -1.07,-0.13 -2.41,-0.19 -4.07,-0.19 -1.61,0 -2.95,0.06 -4.04,0.19 -1.09,0.13 -1.96,0.3 -2.59,0.52 -0.63,0.2 -1.08,0.48 -1.37,0.83 -0.28,0.32 -0.41,0.71 -0.41,1.13 v 77.84 c 0,0.42 0.13,0.81 0.41,1.13 0.29,0.35 0.74,0.63 1.42,0.83 0.65,0.21 1.5,0.39 2.56,0.52 1.07,0.13 2.41,0.19 4.02,0.19 1.66,0 3,-0.06 4.07,-0.19 1.06,-0.13 1.91,-0.31 2.54,-0.52 0.65,-0.2 1.11,-0.48 1.37,-0.83 0.28,-0.32 0.43,-0.71 0.43,-1.13 v -77.84"
         style="fill:#ffffff;fill-opacity:1;fill-rule:evenodd;stroke:none"
         id="path26" />
      <path
         d="m 1280.04,2754.38 c 0.17,-0.74 0.21,-1.38 0.16,-1.95 -0.08,-0.54 -0.38,-1.12 -0.92,-1.7 -0.57,-0.59 -1.38,-1.23 -2.49,-1.95 -1.12,-0.71 -2.59,-1.61 -4.41,-2.67 -1.47,-0.84 -2.74,-1.56 -3.81,-2.14 -1.06,-0.59 -1.97,-1.07 -2.75,-1.42 -0.77,-0.34 -1.44,-0.58 -1.98,-0.69 -0.56,-0.12 -1.03,-0.17 -1.48,-0.13 -0.43,0.06 -0.83,0.18 -1.18,0.4 -0.35,0.21 -0.73,0.51 -1.16,0.91 l -57.76,51 c -1.19,1.07 -2.06,1.97 -2.6,2.68 -0.54,0.72 -0.69,1.41 -0.46,2.05 0.23,0.66 0.89,1.34 1.94,2.08 1.04,0.72 2.55,1.67 4.55,2.82 1.69,0.98 3.03,1.71 4.04,2.18 0.98,0.47 1.79,0.76 2.43,0.88 0.61,0.1 1.12,0.04 1.55,-0.21 0.41,-0.24 0.87,-0.6 1.38,-1.04 l 49.15,-45.02 0.04,0.03 -14.56,64.61 c -0.22,0.73 -0.33,1.31 -0.34,1.84 0.01,0.51 0.21,1.04 0.61,1.56 0.4,0.52 1.08,1.12 2.04,1.77 0.93,0.64 2.29,1.48 4,2.46 1.69,0.98 3.04,1.69 4.05,2.12 1.01,0.43 1.8,0.53 2.4,0.31 0.58,-0.22 1.04,-0.76 1.36,-1.61 0.31,-0.84 0.63,-2.04 0.93,-3.57 l 15.27,-75.6"
         style="fill:#ffffff;fill-opacity:1;fill-rule:evenodd;stroke:none"
         id="path28" />
      <path
         d="m 2358.68,2739.77 c -0.55,-0.51 -1.09,-0.88 -1.61,-1.11 -0.51,-0.2 -1.16,-0.23 -1.93,-0.06 -0.79,0.2 -1.75,0.58 -2.93,1.19 -1.18,0.6 -2.69,1.43 -4.52,2.48 -1.47,0.85 -2.72,1.6 -3.76,2.22 -1.04,0.63 -1.91,1.18 -2.6,1.68 -0.69,0.5 -1.22,0.96 -1.59,1.37 -0.38,0.42 -0.66,0.81 -0.85,1.22 -0.18,0.4 -0.27,0.81 -0.25,1.22 0,0.4 0.08,0.88 0.21,1.46 l 15.29,75.52 c 0.32,1.56 0.67,2.77 1.02,3.59 0.35,0.83 0.88,1.31 1.55,1.42 0.68,0.14 1.6,-0.09 2.77,-0.64 1.14,-0.54 2.72,-1.37 4.71,-2.53 1.7,-0.97 2.99,-1.77 3.91,-2.4 0.9,-0.62 1.56,-1.17 1.97,-1.67 0.4,-0.48 0.61,-0.95 0.6,-1.44 0,-0.49 -0.08,-1.06 -0.21,-1.72 l -14.41,-65.07 0.04,-0.03 48.68,44.92 c 0.52,0.55 0.97,0.94 1.42,1.21 0.45,0.24 1.01,0.35 1.65,0.25 0.66,-0.08 1.52,-0.37 2.56,-0.87 1.02,-0.49 2.42,-1.25 4.13,-2.24 1.7,-0.98 2.98,-1.79 3.86,-2.45 0.88,-0.66 1.36,-1.29 1.47,-1.93 0.1,-0.61 -0.13,-1.28 -0.71,-1.97 -0.58,-0.7 -1.46,-1.57 -2.63,-2.6 l -57.84,-51.02"
         style="fill:#ffffff;fill-opacity:1;fill-rule:evenodd;stroke:none"
         id="path30" />
      <path
         d="m 2404.19,2712.74 c -0.21,-0.36 -0.54,-0.62 -0.94,-0.76 -0.4,-0.17 -0.94,-0.19 -1.6,-0.03 -0.66,0.12 -1.48,0.4 -2.47,0.82 -0.98,0.42 -2.18,1.03 -3.61,1.86 -1.4,0.81 -2.53,1.53 -3.41,2.19 -0.87,0.66 -1.54,1.24 -1.98,1.75 -0.45,0.48 -0.7,0.95 -0.77,1.4 -0.08,0.42 0,0.82 0.21,1.18 l 38.92,67.42 c 0.21,0.36 0.51,0.63 0.92,0.77 0.42,0.16 0.96,0.18 1.64,0.01 0.67,-0.14 1.49,-0.41 2.48,-0.83 0.99,-0.42 2.19,-1.04 3.58,-1.84 1.43,-0.83 2.57,-1.56 3.43,-2.2 0.85,-0.65 1.5,-1.23 1.94,-1.73 0.46,-0.5 0.72,-0.97 0.77,-1.4 0.08,-0.42 0.02,-0.84 -0.19,-1.19 l -38.92,-67.42"
         style="fill:#ffffff;fill-opacity:1;fill-rule:evenodd;stroke:none"
         id="path32" />
      <path
         d="m 1834.23,2290.11 c 0,-0.22 0,-0.48 -0.02,-0.76 -0.02,-0.3 -0.07,-0.63 -0.13,-1 -0.07,-0.35 -0.15,-0.76 -0.26,-1.24 -0.11,-0.45 -0.24,-1 -0.42,-1.58 l -17.06,-51.39 c -0.22,-0.74 -0.5,-1.31 -0.85,-1.76 -0.37,-0.44 -0.95,-0.81 -1.78,-1.05 -0.83,-0.26 -1.96,-0.43 -3.39,-0.52 -1.41,-0.08 -3.28,-0.13 -5.57,-0.13 -2.26,0 -4.09,0.07 -5.5,0.18 -1.43,0.1 -2.54,0.28 -3.34,0.54 -0.81,0.24 -1.4,0.58 -1.77,1.04 -0.34,0.44 -0.65,1 -0.84,1.7 l -17.09,51.39 c -0.24,0.85 -0.46,1.6 -0.59,2.28 -0.15,0.69 -0.24,1.17 -0.26,1.48 -0.02,0.28 -0.04,0.56 -0.04,0.82 0,0.42 0.13,0.78 0.37,1.11 0.22,0.33 0.63,0.59 1.24,0.81 0.59,0.19 1.41,0.35 2.43,0.43 1.05,0.09 2.35,0.13 3.94,0.13 1.74,0 3.13,-0.04 4.19,-0.15 1.07,-0.11 1.89,-0.26 2.53,-0.46 0.6,-0.19 1.04,-0.45 1.3,-0.82 0.26,-0.35 0.45,-0.78 0.63,-1.31 l 12.93,-41.71 0.37,-1.59 0.39,1.59 12.74,41.71 c 0.13,0.53 0.33,0.96 0.61,1.31 0.26,0.37 0.7,0.63 1.3,0.82 0.59,0.2 1.4,0.35 2.39,0.46 1.01,0.11 2.31,0.15 3.92,0.15 1.56,0 2.85,-0.04 3.85,-0.13 1,-0.08 1.78,-0.24 2.32,-0.43 0.55,-0.22 0.94,-0.48 1.16,-0.81 0.21,-0.33 0.3,-0.69 0.3,-1.11"
         style="fill:#ffffff;fill-opacity:1;fill-rule:evenodd;stroke:none"
         id="path34" />
      <path
         d="m 1859.71,2233.25 c 0,-0.44 -0.11,-0.81 -0.37,-1.13 -0.27,-0.31 -0.7,-0.59 -1.31,-0.79 -0.63,-0.21 -1.43,-0.37 -2.46,-0.47 -1.02,-0.11 -2.3,-0.18 -3.89,-0.18 -1.56,0 -2.87,0.07 -3.86,0.18 -1.03,0.1 -1.85,0.26 -2.46,0.47 -0.63,0.2 -1.07,0.48 -1.31,0.79 -0.26,0.32 -0.39,0.69 -0.39,1.13 v 56.67 c 0,0.43 0.13,0.8 0.39,1.11 0.24,0.32 0.68,0.6 1.31,0.82 0.61,0.24 1.43,0.42 2.46,0.55 0.99,0.13 2.3,0.19 3.86,0.19 1.59,0 2.87,-0.06 3.89,-0.19 1.03,-0.13 1.83,-0.31 2.46,-0.55 0.61,-0.22 1.04,-0.5 1.31,-0.82 0.26,-0.31 0.37,-0.68 0.37,-1.11 z m 1.21,76.04 c 0,-3.24 -0.65,-5.46 -1.97,-6.7 -1.31,-1.24 -3.77,-1.85 -7.33,-1.85 -3.61,0 -6.02,0.59 -7.28,1.78 -1.27,1.2 -1.89,3.33 -1.89,6.44 0,3.22 0.65,5.45 1.95,6.72 1.28,1.26 3.74,1.89 7.35,1.89 3.57,0 6,-0.61 7.26,-1.83 1.28,-1.22 1.91,-3.36 1.91,-6.45"
         style="fill:#ffffff;fill-opacity:1;fill-rule:evenodd;stroke:none"
         id="path36" />
      <path
         d="m 1891.75,2233.25 c 0,-0.44 -0.11,-0.81 -0.37,-1.13 -0.26,-0.31 -0.7,-0.59 -1.31,-0.79 -0.62,-0.21 -1.43,-0.37 -2.45,-0.47 -1.03,-0.11 -2.31,-0.18 -3.89,-0.18 -1.57,0 -2.87,0.07 -3.87,0.18 -1.02,0.1 -1.85,0.26 -2.46,0.47 -0.63,0.2 -1.06,0.48 -1.3,0.79 -0.26,0.32 -0.39,0.69 -0.39,1.13 v 56.67 c 0,0.43 0.13,0.8 0.39,1.11 0.24,0.32 0.67,0.6 1.3,0.82 0.61,0.24 1.44,0.42 2.46,0.55 1,0.13 2.3,0.19 3.87,0.19 1.58,0 2.86,-0.06 3.89,-0.19 1.02,-0.13 1.83,-0.31 2.45,-0.55 0.61,-0.22 1.05,-0.5 1.31,-0.82 0.26,-0.31 0.37,-0.68 0.37,-1.11 z m 1.21,76.04 c 0,-3.24 -0.65,-5.46 -1.97,-6.7 -1.31,-1.24 -3.76,-1.85 -7.33,-1.85 -3.61,0 -6.02,0.59 -7.28,1.78 -1.26,1.2 -1.89,3.33 -1.89,6.44 0,3.22 0.65,5.45 1.96,6.72 1.28,1.26 3.73,1.89 7.34,1.89 3.57,0 6,-0.61 7.26,-1.83 1.29,-1.22 1.91,-3.36 1.91,-6.45"
         style="fill:#ffffff;fill-opacity:1;fill-rule:evenodd;stroke:none"
         id="path38" />
      <path
         d="m 1599.04,2178.89 c 0.22,-0.38 0.31,-0.75 0.26,-1.16 -0.07,-0.4 -0.3,-0.87 -0.73,-1.34 -0.43,-0.51 -1.04,-1.05 -1.86,-1.67 -0.83,-0.62 -1.89,-1.33 -3.26,-2.14 -1.34,-0.8 -2.5,-1.41 -3.41,-1.83 -0.93,-0.43 -1.72,-0.72 -2.36,-0.84 -0.64,-0.16 -1.16,-0.14 -1.52,0 -0.39,0.15 -0.69,0.4 -0.91,0.77 l -28.98,48.71 c -0.22,0.37 -0.3,0.76 -0.23,1.15 0.04,0.41 0.27,0.87 0.7,1.38 0.4,0.51 1.02,1.09 1.83,1.72 0.79,0.63 1.88,1.35 3.23,2.15 1.36,0.81 2.5,1.41 3.44,1.82 0.95,0.41 1.73,0.67 2.39,0.79 0.64,0.12 1.16,0.1 1.55,-0.04 0.37,-0.13 0.66,-0.4 0.88,-0.77 z m -37.84,65.97 c 1.66,-2.78 2.23,-5.02 1.73,-6.77 -0.49,-1.73 -2.29,-3.5 -5.36,-5.33 -3.1,-1.84 -5.47,-2.57 -7.17,-2.19 -1.69,0.38 -3.32,1.89 -4.91,4.56 -1.65,2.77 -2.23,5.03 -1.76,6.78 0.46,1.73 2.25,3.53 5.35,5.38 3.07,1.82 5.47,2.54 7.18,2.14 1.72,-0.39 3.36,-1.92 4.94,-4.57"
         style="fill:#ffffff;fill-opacity:1;fill-rule:evenodd;stroke:none"
         id="path40" />
      <path
         d="m 1626.57,2195.27 c 0.23,-0.38 0.32,-0.75 0.26,-1.16 -0.06,-0.4 -0.29,-0.86 -0.72,-1.34 -0.43,-0.51 -1.04,-1.05 -1.86,-1.67 -0.83,-0.62 -1.89,-1.33 -3.26,-2.14 -1.35,-0.8 -2.5,-1.41 -3.41,-1.83 -0.94,-0.43 -1.72,-0.72 -2.36,-0.84 -0.64,-0.16 -1.16,-0.13 -1.52,0.01 -0.39,0.14 -0.69,0.39 -0.91,0.77 l -28.98,48.7 c -0.22,0.37 -0.3,0.76 -0.23,1.16 0.04,0.4 0.27,0.86 0.7,1.37 0.4,0.52 1.02,1.09 1.83,1.73 0.79,0.62 1.88,1.34 3.23,2.14 1.36,0.81 2.5,1.41 3.44,1.82 0.95,0.41 1.73,0.67 2.39,0.79 0.63,0.13 1.15,0.11 1.54,-0.04 0.38,-0.13 0.67,-0.39 0.89,-0.76 z m -37.83,65.97 c 1.65,-2.78 2.23,-5.02 1.72,-6.76 -0.48,-1.73 -2.28,-3.51 -5.35,-5.34 -3.1,-1.84 -5.47,-2.57 -7.17,-2.19 -1.69,0.39 -3.32,1.89 -4.91,4.57 -1.65,2.76 -2.23,5.02 -1.76,6.77 0.46,1.74 2.25,3.53 5.35,5.38 3.07,1.82 5.47,2.54 7.18,2.14 1.72,-0.39 3.36,-1.91 4.94,-4.57"
         style="fill:#ffffff;fill-opacity:1;fill-rule:evenodd;stroke:none"
         id="path42" />
      <path
         d="m 1654.11,2211.65 c 0.23,-0.37 0.32,-0.74 0.26,-1.16 -0.07,-0.39 -0.3,-0.86 -0.72,-1.34 -0.43,-0.51 -1.04,-1.05 -1.86,-1.67 -0.83,-0.61 -1.9,-1.32 -3.26,-2.13 -1.35,-0.8 -2.5,-1.42 -3.41,-1.83 -0.94,-0.43 -1.73,-0.72 -2.36,-0.85 -0.64,-0.15 -1.16,-0.13 -1.52,0.01 -0.39,0.14 -0.69,0.39 -0.92,0.77 l -28.97,48.71 c -0.22,0.37 -0.3,0.75 -0.23,1.15 0.04,0.4 0.27,0.87 0.7,1.37 0.4,0.52 1.02,1.09 1.83,1.73 0.79,0.62 1.88,1.34 3.23,2.14 1.36,0.82 2.5,1.41 3.44,1.83 0.95,0.41 1.72,0.67 2.39,0.78 0.63,0.13 1.15,0.11 1.54,-0.04 0.38,-0.12 0.66,-0.39 0.89,-0.76 z m -37.83,65.98 c 1.65,-2.79 2.23,-5.03 1.72,-6.77 -0.48,-1.73 -2.29,-3.51 -5.35,-5.33 -3.1,-1.85 -5.47,-2.58 -7.17,-2.19 -1.69,0.38 -3.32,1.89 -4.91,4.56 -1.65,2.76 -2.23,5.02 -1.76,6.77 0.46,1.74 2.25,3.54 5.35,5.38 3.07,1.83 5.47,2.55 7.18,2.15 1.72,-0.4 3.36,-1.92 4.94,-4.57"
         style="fill:#ffffff;fill-opacity:1;fill-rule:evenodd;stroke:none"
         id="path44" />
      <path
         d="m 2002.32,2185.74 c -0.22,-0.38 -0.5,-0.64 -0.89,-0.79 -0.37,-0.14 -0.89,-0.16 -1.52,-0.03 -0.65,0.13 -1.43,0.4 -2.36,0.81 -0.94,0.42 -2.09,1.01 -3.46,1.8 -1.36,0.78 -2.45,1.49 -3.26,2.08 -0.83,0.61 -1.47,1.16 -1.89,1.65 -0.45,0.48 -0.69,0.94 -0.74,1.33 -0.06,0.41 0.01,0.8 0.23,1.17 l 28.33,49.08 c 0.22,0.38 0.52,0.63 0.9,0.77 0.37,0.16 0.88,0.19 1.54,0.06 0.64,-0.1 1.45,-0.36 2.4,-0.76 0.93,-0.39 2.09,-0.98 3.45,-1.77 1.37,-0.79 2.45,-1.48 3.27,-2.11 0.82,-0.62 1.43,-1.18 1.85,-1.7 0.42,-0.49 0.66,-0.95 0.72,-1.37 0.07,-0.39 -0.01,-0.76 -0.23,-1.14 z m 39.07,65.24 c -1.62,-2.8 -3.29,-4.39 -5.06,-4.8 -1.75,-0.43 -4.18,0.28 -7.26,2.06 -3.13,1.8 -4.93,3.52 -5.42,5.18 -0.49,1.67 0.03,3.83 1.58,6.52 1.61,2.79 3.29,4.4 5.05,4.84 1.74,0.45 4.18,-0.23 7.31,-2.04 3.09,-1.78 4.89,-3.52 5.37,-5.21 0.5,-1.69 -0.02,-3.87 -1.57,-6.55"
         style="fill:#ffffff;fill-opacity:1;fill-rule:evenodd;stroke:none"
         id="path46" />
      <path
         d="m 2089.88,2200.85 c -0.1,-0.19 -0.24,-0.42 -0.39,-0.65 -0.17,-0.25 -0.38,-0.51 -0.62,-0.8 -0.23,-0.27 -0.51,-0.58 -0.84,-0.94 -0.32,-0.34 -0.71,-0.75 -1.15,-1.17 l -40.48,-35.97 c -0.56,-0.53 -1.08,-0.88 -1.61,-1.1 -0.54,-0.2 -1.23,-0.22 -2.07,-0.01 -0.84,0.18 -1.91,0.59 -3.2,1.24 -1.26,0.63 -2.9,1.53 -4.88,2.67 -1.96,1.13 -3.51,2.1 -4.68,2.9 -1.18,0.81 -2.06,1.52 -2.62,2.14 -0.58,0.61 -0.91,1.21 -1,1.79 -0.09,0.55 -0.07,1.19 0.11,1.89 l 10.89,53.05 c 0.22,0.85 0.41,1.62 0.64,2.27 0.22,0.68 0.38,1.13 0.51,1.41 0.12,0.25 0.24,0.51 0.38,0.73 0.2,0.36 0.5,0.61 0.87,0.78 0.35,0.17 0.84,0.19 1.47,0.08 0.61,-0.13 1.4,-0.41 2.33,-0.84 0.95,-0.45 2.1,-1.07 3.48,-1.86 1.5,-0.87 2.68,-1.6 3.55,-2.23 0.87,-0.62 1.51,-1.17 1.96,-1.66 0.43,-0.47 0.67,-0.91 0.72,-1.36 0.05,-0.43 0,-0.91 -0.11,-1.45 l -9.66,-42.59 -0.47,-1.56 1.13,1.18 31.89,29.76 c 0.37,0.38 0.76,0.66 1.18,0.82 0.41,0.19 0.92,0.2 1.54,0.06 0.61,-0.12 1.38,-0.39 2.3,-0.79 0.92,-0.41 2.07,-1.03 3.47,-1.83 1.35,-0.78 2.44,-1.46 3.27,-2.04 0.82,-0.57 1.42,-1.09 1.79,-1.54 0.36,-0.46 0.57,-0.88 0.6,-1.27 0.02,-0.39 -0.09,-0.75 -0.3,-1.11"
         style="fill:#ffffff;fill-opacity:1;fill-rule:evenodd;stroke:none"
         id="path48" />
      <path
         d="m 2168.1,2030.25 c -0.37,-0.22 -0.75,-0.31 -1.16,-0.25 -0.39,0.07 -0.86,0.31 -1.33,0.74 -0.5,0.44 -1.04,1.06 -1.64,1.89 -0.61,0.83 -1.31,1.91 -2.1,3.28 -0.78,1.36 -1.38,2.52 -1.78,3.44 -0.42,0.94 -0.7,1.73 -0.82,2.36 -0.14,0.65 -0.11,1.17 0.03,1.52 0.15,0.4 0.41,0.69 0.78,0.91 l 49.08,28.34 c 0.38,0.21 0.76,0.28 1.16,0.21 0.4,-0.04 0.86,-0.28 1.36,-0.72 0.52,-0.4 1.08,-1.03 1.7,-1.85 0.62,-0.8 1.32,-1.9 2.11,-3.25 0.79,-1.38 1.37,-2.52 1.77,-3.47 0.4,-0.95 0.65,-1.74 0.76,-2.4 0.12,-0.64 0.09,-1.16 -0.06,-1.54 -0.14,-0.38 -0.4,-0.66 -0.78,-0.88 z m 66.46,36.96 c -2.8,-1.62 -5.05,-2.16 -6.78,-1.63 -1.73,0.51 -3.48,2.33 -5.26,5.42 -1.81,3.12 -2.51,5.5 -2.11,7.2 0.41,1.69 1.94,3.3 4.63,4.85 2.79,1.61 5.05,2.16 6.8,1.66 1.73,-0.48 3.5,-2.29 5.31,-5.41 1.78,-3.09 2.47,-5.5 2.05,-7.2 -0.41,-1.72 -1.96,-3.34 -4.64,-4.89"
         style="fill:#ffffff;fill-opacity:1;fill-rule:evenodd;stroke:none"
         id="path50" />
      <path
         d="m 2252.34,2023.55 c -2.07,-1.19 -4.19,-1.91 -6.39,-2.18 -2.21,-0.27 -4.37,-0.08 -6.49,0.53 -2.1,0.61 -4.1,1.64 -5.96,3.11 -1.84,1.44 -3.42,3.32 -4.73,5.6 -1.32,2.27 -2.16,4.55 -2.52,6.78 -0.36,2.25 -0.32,4.38 0.16,6.41 0.46,2.05 1.37,3.9 2.69,5.62 1.33,1.7 3.01,3.12 5.07,4.31 2.07,1.19 4.19,1.91 6.4,2.16 2.22,0.25 4.36,0.06 6.46,-0.53 2.1,-0.63 4.06,-1.65 5.93,-3.1 1.86,-1.44 3.45,-3.28 4.75,-5.53 1.31,-2.27 2.15,-4.55 2.53,-6.82 0.37,-2.24 0.32,-4.38 -0.16,-6.41 -0.47,-2.01 -1.38,-3.88 -2.68,-5.59 -1.31,-1.71 -3.01,-3.17 -5.06,-4.36 z m -5.82,9.3 c 0.89,0.51 1.63,1.14 2.25,1.88 0.62,0.75 1.06,1.56 1.31,2.38 0.28,0.84 0.33,1.7 0.21,2.61 -0.15,0.91 -0.46,1.79 -0.94,2.62 -0.44,0.77 -1.03,1.44 -1.76,1.96 -0.72,0.55 -1.5,0.9 -2.36,1.08 -0.82,0.18 -1.69,0.2 -2.64,0.06 -0.91,-0.15 -1.79,-0.46 -2.64,-0.95 -0.88,-0.51 -1.63,-1.14 -2.25,-1.88 -0.62,-0.75 -1.07,-1.54 -1.31,-2.38 -0.25,-0.83 -0.33,-1.7 -0.23,-2.62 0.11,-0.92 0.41,-1.79 0.9,-2.64 0.45,-0.77 1.04,-1.44 1.77,-1.97 0.73,-0.53 1.52,-0.9 2.38,-1.08 0.88,-0.17 1.77,-0.19 2.68,-0.04 0.92,0.16 1.79,0.48 2.63,0.97"
         style="fill:#ffffff;fill-opacity:1;fill-rule:evenodd;stroke:none"
         id="path52" />
      <path
         d="m 1212.75,2706.33 -47.81,74.13 3.21,2.06 27.84,-43.16 c 1.29,4.72 3.58,8.13 6.87,10.25 2.59,1.68 5.26,2.28 8.05,1.8 2.79,-0.47 5.19,-2.18 7.23,-5.1 1.31,-2.15 1.91,-4.7 1.79,-7.62 -0.13,-2.93 -0.72,-6.26 -1.78,-10 -1.05,-3.76 -2.16,-7.63 -3.28,-11.64 -1.14,-4.03 -1.84,-7.59 -2.12,-10.72 z m -13.54,28.03 11.97,-18.54 c 0.91,6.07 1.43,11.02 1.55,14.86 0.13,3.82 -0.74,7.2 -2.62,10.11 -1.25,1.7 -2.62,2.75 -4.03,3.12 -1.42,0.39 -2.77,0.17 -4.01,-0.62 -2.45,-1.59 -3.41,-4.56 -2.86,-8.93"
         style="fill:#ffffff;fill-opacity:1;fill-rule:evenodd;stroke:none"
         id="path54" />
      <path
         d="m 1735.71,2882.75 -4.72,88.08 3.81,0.2 2.75,-51.29 c 3.46,3.46 7.15,5.28 11.04,5.49 3.09,0.17 5.71,-0.64 7.89,-2.43 2.18,-1.8 3.43,-4.48 3.75,-8.02 0.07,-2.53 -0.68,-5.03 -2.24,-7.5 -1.56,-2.48 -3.72,-5.08 -6.5,-7.8 -2.78,-2.74 -5.66,-5.56 -8.62,-8.48 -2.99,-2.93 -5.37,-5.67 -7.16,-8.25 z m 2.16,31.05 1.18,-22.04 c 3.81,4.82 6.71,8.86 8.73,12.13 2,3.25 2.92,6.62 2.74,10.08 -0.25,2.1 -0.91,3.69 -1.95,4.71 -1.05,1.04 -2.32,1.52 -3.79,1.45 -2.91,-0.16 -5.22,-2.26 -6.91,-6.33"
         style="fill:#ffffff;fill-opacity:1;fill-rule:evenodd;stroke:none"
         id="path56" />
      <path
         d="m 1550.46,2142.97 -51.67,71.48 3.09,2.24 30.1,-41.63 c 1.03,4.78 3.14,8.31 6.3,10.6 2.51,1.81 5.15,2.55 7.95,2.23 2.81,-0.33 5.31,-1.91 7.5,-4.71 1.42,-2.09 2.15,-4.59 2.18,-7.52 0.03,-2.93 -0.38,-6.28 -1.24,-10.07 -0.85,-3.82 -1.75,-7.74 -2.65,-11.8 -0.93,-4.09 -1.44,-7.68 -1.56,-10.82 z m -15,27.28 12.93,-17.89 c 0.59,6.1 0.84,11.08 0.77,14.93 -0.08,3.81 -1.13,7.14 -3.16,9.95 -1.34,1.63 -2.76,2.61 -4.19,2.9 -1.44,0.31 -2.77,0.02 -3.97,-0.84 -2.36,-1.71 -3.16,-4.72 -2.38,-9.05"
         style="fill:#ffffff;fill-opacity:1;fill-rule:evenodd;stroke:none"
         id="path58" />
      <path
         d="m 2284.08,2773.01 40.18,78.53 3.4,-1.75 -23.4,-45.72 c 4.73,1.25 8.83,0.97 12.31,-0.8 2.75,-1.41 4.61,-3.42 5.59,-6.07 0.99,-2.65 0.72,-5.59 -0.78,-8.82 -1.21,-2.21 -3.11,-4 -5.71,-5.36 -2.59,-1.36 -5.77,-2.52 -9.54,-3.47 -3.77,-0.98 -7.68,-1.97 -11.71,-3.01 -4.05,-1.03 -7.49,-2.2 -10.34,-3.53 z m 17.47,25.76 -10.05,-19.65 c 5.71,2.26 10.25,4.29 13.64,6.11 3.37,1.8 5.85,4.25 7.43,7.34 0.84,1.93 1.07,3.64 0.69,5.04 -0.38,1.43 -1.24,2.49 -2.56,3.16 -2.59,1.33 -5.64,0.67 -9.15,-2"
         style="fill:#ffffff;fill-opacity:1;fill-rule:evenodd;stroke:none"
         id="path60" />
      <path
         d="m 1739.26,2224.76 -11.52,87.45 3.78,0.5 6.71,-50.92 c 3.18,3.71 6.72,5.82 10.59,6.33 3.07,0.4 5.73,-0.2 8.05,-1.82 2.31,-1.62 3.76,-4.19 4.36,-7.7 0.26,-2.51 -0.29,-5.06 -1.65,-7.65 -1.37,-2.6 -3.32,-5.36 -5.88,-8.28 -2.56,-2.95 -5.22,-5.98 -7.94,-9.13 -2.75,-3.15 -4.91,-6.06 -6.5,-8.78 z m -0.25,31.13 2.88,-21.88 c 3.42,5.1 6.01,9.35 7.77,12.77 1.74,3.4 2.4,6.83 1.95,10.26 -0.41,2.07 -1.19,3.61 -2.31,4.55 -1.12,0.95 -2.43,1.34 -3.89,1.14 -2.89,-0.38 -5.03,-2.65 -6.4,-6.84"
         style="fill:#ffffff;fill-opacity:1;fill-rule:evenodd;stroke:none"
         id="path62" />
      <path
         d="m 2133.08,1998.37 c 23.17,-40.12 74.78,-53.95 114.89,-30.79 40.12,23.17 53.95,74.78 30.79,114.9 -23.16,40.12 -74.78,53.95 -114.89,30.78 -40.12,-23.16 -53.95,-74.77 -30.79,-114.89 z m 9.94,5.74 c 20,-34.65 64.57,-46.59 99.21,-26.59 34.65,20 46.59,64.57 26.59,99.21 -20,34.65 -64.57,46.59 -99.21,26.59 -34.65,-20 -46.59,-64.57 -26.59,-99.21"
         style="fill:#ffffff;fill-opacity:1;fill-rule:evenodd;stroke:none"
         id="path64" />
      <path
         d="m 1823.25,3043.85 c 0,-0.37 -0.1,-0.72 -0.3,-1.02 -0.2,-0.3 -0.53,-0.53 -1.03,-0.7 -0.47,-0.18 -1.1,-0.3 -1.85,-0.43 -0.77,-0.12 -1.75,-0.2 -2.97,-0.2 -1.13,0 -2.1,0.08 -2.9,0.2 -0.8,0.13 -1.43,0.25 -1.9,0.43 -0.48,0.17 -0.8,0.4 -1,0.7 -0.18,0.3 -0.28,0.65 -0.28,1.02 v 82.55 h -0.15 l -33.77,-82.9 c -0.15,-0.35 -0.35,-0.65 -0.63,-0.9 -0.25,-0.22 -0.65,-0.45 -1.15,-0.62 -0.52,-0.15 -1.12,-0.28 -1.85,-0.35 -0.7,-0.08 -1.55,-0.13 -2.52,-0.13 -1.03,0 -1.9,0.05 -2.63,0.15 -0.75,0.1 -1.35,0.25 -1.85,0.4 -0.47,0.18 -0.85,0.4 -1.12,0.63 -0.28,0.25 -0.45,0.52 -0.55,0.82 l -32.3,82.9 h -0.08 v -82.55 c 0,-0.37 -0.1,-0.72 -0.3,-1.02 -0.17,-0.3 -0.52,-0.53 -1.02,-0.7 -0.48,-0.18 -1.1,-0.3 -1.9,-0.43 -0.78,-0.12 -1.78,-0.2 -3,-0.2 -1.18,0 -2.15,0.08 -2.93,0.2 -0.77,0.13 -1.4,0.25 -1.87,0.43 -0.45,0.17 -0.78,0.4 -0.95,0.7 -0.18,0.3 -0.25,0.65 -0.25,1.02 v 87.18 c 0,2.05 0.52,3.5 1.6,4.37 1.07,0.88 2.27,1.33 3.6,1.33 h 7.62 c 1.55,0 2.93,-0.15 4.1,-0.45 1.18,-0.28 2.2,-0.75 3.08,-1.37 0.87,-0.66 1.6,-1.46 2.2,-2.43 0.57,-0.98 1.1,-2.13 1.52,-3.45 l 27.48,-68.62 h 0.35 l 28.57,68.42 c 0.53,1.45 1.13,2.7 1.75,3.72 0.65,1.03 1.35,1.85 2.1,2.45 0.75,0.63 1.6,1.05 2.53,1.33 0.92,0.28 2,0.4 3.22,0.4 h 7.98 c 0.73,0 1.42,-0.1 2.1,-0.32 0.65,-0.23 1.2,-0.58 1.67,-1.03 0.48,-0.47 0.85,-1.05 1.13,-1.75 0.3,-0.72 0.45,-1.58 0.45,-2.6 v -87.18"
         style="fill:#1a1f20;fill-opacity:1;fill-rule:evenodd;stroke:none"
         id="path66" />
      <path
         d="m 1904.93,3131.3 c 0,-0.87 -0.05,-1.67 -0.13,-2.37 -0.08,-0.7 -0.17,-1.4 -0.28,-2.05 -0.12,-0.65 -0.3,-1.3 -0.52,-1.9 -0.23,-0.62 -0.48,-1.25 -0.78,-1.95 l -34.12,-78.65 c -0.25,-0.6 -0.55,-1.08 -0.92,-1.43 -0.36,-0.37 -0.83,-0.67 -1.38,-0.9 -0.58,-0.2 -1.28,-0.35 -2.18,-0.42 -0.87,-0.08 -1.95,-0.13 -3.22,-0.13 -1.65,0 -2.95,0.08 -3.88,0.23 -0.92,0.15 -1.59,0.37 -2,0.7 -0.42,0.32 -0.6,0.7 -0.55,1.17 0.05,0.45 0.21,1 0.5,1.65 l 35.91,80.43 h -45.5 c -0.93,0 -1.63,0.48 -2.08,1.45 -0.48,0.98 -0.7,2.35 -0.7,4.1 0,0.93 0.05,1.75 0.17,2.42 0.13,0.68 0.33,1.26 0.55,1.73 0.25,0.45 0.55,0.8 0.88,1.03 0.35,0.22 0.75,0.32 1.18,0.32 h 55.22 c 0.7,0 1.3,-0.07 1.8,-0.23 0.53,-0.14 0.9,-0.42 1.17,-0.87 0.28,-0.45 0.48,-1 0.63,-1.68 0.15,-0.7 0.23,-1.57 0.23,-2.65"
         style="fill:#1a1f20;fill-opacity:1;fill-rule:evenodd;stroke:none"
         id="path68" />
      <path
         d="m 1840.8,2474.92 c 0,-0.87 -0.05,-1.67 -0.13,-2.37 -0.08,-0.7 -0.17,-1.4 -0.28,-2.05 -0.12,-0.65 -0.29,-1.3 -0.52,-1.9 -0.23,-0.63 -0.48,-1.25 -0.77,-1.95 L 1804.97,2388 c -0.25,-0.6 -0.55,-1.08 -0.92,-1.43 -0.35,-0.37 -0.83,-0.68 -1.38,-0.9 -0.58,-0.2 -1.27,-0.35 -2.17,-0.42 -0.88,-0.08 -1.95,-0.13 -3.23,-0.13 -1.65,0 -2.95,0.08 -3.88,0.22 -0.92,0.16 -1.59,0.38 -2,0.71 -0.42,0.32 -0.59,0.7 -0.55,1.17 0.06,0.45 0.21,1 0.51,1.65 l 35.9,80.43 h -45.5 c -0.93,0 -1.63,0.47 -2.08,1.45 -0.47,0.97 -0.7,2.35 -0.7,4.1 0,0.92 0.05,1.75 0.17,2.42 0.13,0.68 0.33,1.25 0.56,1.73 0.25,0.45 0.55,0.8 0.87,1.02 0.35,0.23 0.75,0.33 1.18,0.33 h 55.22 c 0.7,0 1.3,-0.08 1.8,-0.22 0.53,-0.16 0.9,-0.43 1.18,-0.88 0.27,-0.45 0.47,-1 0.62,-1.68 0.15,-0.7 0.23,-1.57 0.23,-2.65"
         style="fill:#1a1f20;fill-opacity:1;fill-rule:evenodd;stroke:none"
         id="path70" />
      <path
         d="m 1502.52,2402.21 c 0.44,-0.76 0.8,-1.48 1.09,-2.12 0.28,-0.64 0.55,-1.3 0.79,-1.91 0.22,-0.63 0.39,-1.27 0.5,-1.9 0.12,-0.66 0.22,-1.33 0.31,-2.08 l 9.97,-85.15 c 0.09,-0.65 0.07,-1.21 -0.08,-1.7 -0.12,-0.5 -0.38,-1 -0.74,-1.47 -0.4,-0.46 -0.93,-0.94 -1.67,-1.46 -0.72,-0.51 -1.62,-1.09 -2.73,-1.72 -1.42,-0.83 -2.58,-1.42 -3.46,-1.76 -0.87,-0.33 -1.57,-0.48 -2.08,-0.4 -0.53,0.07 -0.87,0.31 -1.06,0.74 -0.19,0.42 -0.33,0.97 -0.4,1.68 l -9.33,87.58 -39.35,-22.84 c -0.8,-0.47 -1.64,-0.41 -2.52,0.21 -0.9,0.61 -1.79,1.68 -2.67,3.2 -0.46,0.8 -0.83,1.53 -1.06,2.18 -0.23,0.65 -0.35,1.25 -0.39,1.77 -0.01,0.51 0.07,0.96 0.24,1.32 0.19,0.37 0.48,0.66 0.85,0.87 l 47.76,27.73 c 0.61,0.35 1.17,0.59 1.67,0.71 0.53,0.13 0.99,0.08 1.46,-0.17 0.46,-0.25 0.91,-0.62 1.38,-1.13 0.48,-0.53 0.98,-1.25 1.52,-2.18"
         style="fill:#1a1f20;fill-opacity:1;fill-rule:evenodd;stroke:none"
         id="path72" />
      <path
         d="m 2164.35,2371.54 c -0.43,-0.77 -0.87,-1.44 -1.28,-2.01 -0.41,-0.57 -0.84,-1.13 -1.25,-1.65 -0.43,-0.5 -0.9,-0.98 -1.39,-1.39 -0.51,-0.44 -1.04,-0.85 -1.64,-1.31 l -68.5,-51.57 c -0.51,-0.4 -1.01,-0.66 -1.5,-0.78 -0.5,-0.16 -1.06,-0.19 -1.65,-0.11 -0.6,0.11 -1.28,0.33 -2.1,0.71 -0.79,0.36 -1.75,0.85 -2.86,1.48 -1.44,0.81 -2.53,1.52 -3.26,2.11 -0.74,0.58 -1.21,1.11 -1.4,1.59 -0.21,0.5 -0.17,0.91 0.11,1.3 0.26,0.36 0.66,0.77 1.25,1.18 l 70.91,52.24 -39.58,22.45 c -0.8,0.46 -1.17,1.22 -1.08,2.29 0.07,1.08 0.55,2.39 1.41,3.91 0.46,0.81 0.91,1.5 1.35,2.02 0.44,0.53 0.9,0.93 1.33,1.23 0.44,0.27 0.87,0.43 1.27,0.46 0.41,0.02 0.81,-0.08 1.18,-0.3 l 48.03,-27.25 c 0.61,-0.35 1.1,-0.71 1.46,-1.09 0.38,-0.38 0.57,-0.81 0.59,-1.34 0.02,-0.52 -0.08,-1.1 -0.29,-1.76 -0.21,-0.68 -0.58,-1.48 -1.11,-2.41"
         style="fill:#1a1f20;fill-opacity:1;fill-rule:evenodd;stroke:none"
         id="path74" />
      <path
         d="m 2397.99,2115.72 c -0.75,-0.44 -1.47,-0.8 -2.11,-1.09 -0.65,-0.29 -1.3,-0.55 -1.91,-0.79 -0.63,-0.22 -1.27,-0.4 -1.91,-0.51 -0.65,-0.12 -1.32,-0.22 -2.07,-0.31 l -85.14,-10.15 c -0.64,-0.08 -1.21,-0.07 -1.69,0.08 -0.5,0.11 -1,0.37 -1.47,0.74 -0.47,0.39 -0.95,0.92 -1.47,1.66 -0.51,0.72 -1.09,1.62 -1.73,2.72 -0.83,1.43 -1.42,2.59 -1.76,3.46 -0.34,0.88 -0.48,1.57 -0.4,2.08 0.06,0.53 0.3,0.87 0.74,1.07 0.41,0.18 0.96,0.33 1.68,0.4 l 87.55,9.51 -22.92,39.3 c -0.47,0.81 -0.41,1.65 0.21,2.53 0.6,0.9 1.68,1.79 3.19,2.67 0.8,0.46 1.53,0.84 2.18,1.07 0.65,0.23 1.24,0.35 1.77,0.39 0.51,0.02 0.97,-0.07 1.32,-0.24 0.37,-0.18 0.66,-0.48 0.88,-0.85 l 27.82,-47.7 c 0.35,-0.61 0.59,-1.16 0.71,-1.67 0.14,-0.53 0.09,-0.99 -0.16,-1.46 -0.25,-0.46 -0.62,-0.91 -1.13,-1.38 -0.53,-0.48 -1.25,-0.99 -2.18,-1.53"
         style="fill:#1a1f20;fill-opacity:1;fill-rule:evenodd;stroke:none"
         id="path76" />
      <path
         d="m 1203.51,2886.44 c 0.19,-0.33 0.28,-0.68 0.25,-1.04 -0.02,-0.36 -0.19,-0.72 -0.54,-1.12 -0.32,-0.39 -0.8,-0.81 -1.38,-1.29 -0.61,-0.5 -1.42,-1.05 -2.48,-1.67 -0.97,-0.56 -1.86,-0.98 -2.61,-1.27 -0.75,-0.3 -1.36,-0.5 -1.86,-0.59 -0.5,-0.08 -0.89,-0.05 -1.21,0.11 -0.3,0.17 -0.57,0.42 -0.76,0.75 l -41.32,71.46 -0.13,-0.08 12.26,-88.66 c 0.05,-0.38 0.02,-0.75 -0.09,-1.1 -0.1,-0.32 -0.34,-0.71 -0.68,-1.12 -0.38,-0.39 -0.84,-0.8 -1.43,-1.23 -0.57,-0.41 -1.28,-0.88 -2.12,-1.37 -0.89,-0.51 -1.67,-0.9 -2.35,-1.18 -0.7,-0.29 -1.29,-0.46 -1.8,-0.58 -0.5,-0.08 -0.94,-0.08 -1.29,-0.02 -0.36,0.08 -0.65,0.23 -0.89,0.44 l -69.45,55.59 -0.07,-0.04 41.32,-71.46 c 0.19,-0.33 0.28,-0.68 0.25,-1.04 0,-0.34 -0.18,-0.72 -0.53,-1.11 -0.33,-0.39 -0.8,-0.82 -1.43,-1.32 -0.61,-0.5 -1.44,-1.07 -2.5,-1.68 -1.02,-0.59 -1.9,-1.01 -2.63,-1.29 -0.74,-0.28 -1.34,-0.48 -1.84,-0.57 -0.47,-0.07 -0.87,-0.04 -1.17,0.13 -0.3,0.17 -0.55,0.44 -0.73,0.76 l -43.64,75.47 c -1.03,1.77 -1.3,3.29 -0.8,4.59 0.49,1.29 1.3,2.28 2.45,2.95 l 6.6,3.81 c 1.34,0.78 2.61,1.34 3.77,1.67 1.16,0.35 2.28,0.45 3.36,0.35 1.08,-0.13 2.1,-0.46 3.11,-1 0.99,-0.56 2.02,-1.29 3.05,-2.23 l 58.14,-45.65 0.3,0.17 -9.51,73.54 c -0.28,1.52 -0.38,2.9 -0.36,4.11 0.05,1.21 0.25,2.27 0.6,3.17 0.33,0.91 0.85,1.71 1.52,2.41 0.66,0.7 1.53,1.34 2.59,1.96 l 6.9,3.99 c 0.63,0.36 1.29,0.63 1.98,0.77 0.68,0.13 1.33,0.1 1.97,-0.05 0.65,-0.17 1.26,-0.48 1.85,-0.95 0.62,-0.48 1.18,-1.14 1.69,-2.03 l 43.64,-75.46"
         style="fill:#1a1f20;fill-opacity:1;fill-rule:evenodd;stroke:none"
         id="path78" />
      <path
         d="m 1230.44,3003.03 c 0.44,-0.76 0.79,-1.48 1.08,-2.12 0.28,-0.64 0.55,-1.3 0.78,-1.91 0.22,-0.63 0.4,-1.28 0.5,-1.91 0.12,-0.66 0.22,-1.32 0.31,-2.08 l 9.83,-85.17 c 0.08,-0.64 0.06,-1.2 -0.09,-1.69 -0.12,-0.5 -0.38,-1 -0.74,-1.47 -0.4,-0.46 -0.93,-0.94 -1.67,-1.46 -0.72,-0.5 -1.63,-1.08 -2.73,-1.72 -1.43,-0.82 -2.59,-1.41 -3.47,-1.75 -0.87,-0.33 -1.57,-0.47 -2.08,-0.39 -0.53,0.07 -0.87,0.31 -1.06,0.74 -0.18,0.42 -0.33,0.97 -0.4,1.68 l -9.18,87.6 -39.39,-22.78 c -0.8,-0.47 -1.64,-0.4 -2.52,0.22 -0.9,0.6 -1.78,1.68 -2.66,3.2 -0.46,0.8 -0.83,1.53 -1.06,2.18 -0.23,0.65 -0.34,1.25 -0.39,1.77 -0.01,0.51 0.08,0.97 0.25,1.33 0.19,0.36 0.48,0.65 0.85,0.86 l 47.81,27.65 c 0.61,0.35 1.16,0.58 1.67,0.71 0.53,0.13 0.99,0.08 1.46,-0.17 0.46,-0.26 0.91,-0.63 1.37,-1.14 0.48,-0.53 0.99,-1.25 1.53,-2.18"
         style="fill:#1a1f20;fill-opacity:1;fill-rule:evenodd;stroke:none"
         id="path80" />
      <path
         d="m 2496.32,2937.54 c -0.43,-0.76 -0.88,-1.43 -1.29,-2 -0.42,-0.57 -0.85,-1.13 -1.26,-1.64 -0.44,-0.5 -0.91,-0.97 -1.41,-1.38 -0.51,-0.43 -1.04,-0.85 -1.65,-1.31 l -68.86,-51.07 c -0.51,-0.39 -1.01,-0.66 -1.51,-0.77 -0.49,-0.15 -1.05,-0.17 -1.64,-0.09 -0.6,0.11 -1.28,0.33 -2.1,0.72 -0.8,0.37 -1.75,0.86 -2.85,1.5 -1.43,0.82 -2.52,1.54 -3.25,2.13 -0.73,0.59 -1.2,1.12 -1.38,1.6 -0.21,0.5 -0.17,0.91 0.11,1.3 0.27,0.36 0.67,0.76 1.26,1.18 l 71.28,51.72 -39.41,22.74 c -0.8,0.46 -1.17,1.22 -1.07,2.29 0.07,1.08 0.57,2.39 1.44,3.9 0.47,0.8 0.92,1.49 1.36,2.02 0.45,0.52 0.91,0.92 1.34,1.22 0.45,0.26 0.88,0.42 1.27,0.45 0.42,0.02 0.82,-0.1 1.18,-0.31 l 47.84,-27.6 c 0.6,-0.35 1.09,-0.71 1.45,-1.09 0.38,-0.39 0.56,-0.82 0.58,-1.34 0.01,-0.53 -0.09,-1.11 -0.3,-1.77 -0.22,-0.68 -0.59,-1.48 -1.13,-2.4"
         style="fill:#1a1f20;fill-opacity:1;fill-rule:evenodd;stroke:none"
         id="path82" />
      <path
         d="m 1497.96,2463.93 c 0.23,-0.38 0.34,-0.8 0.31,-1.17 -0.04,-0.4 -0.23,-0.84 -0.56,-1.3 -0.33,-0.48 -0.87,-1 -1.63,-1.59 -0.74,-0.58 -1.72,-1.23 -2.94,-1.94 -1.26,-0.74 -2.33,-1.3 -3.19,-1.67 -0.86,-0.37 -1.6,-0.59 -2.22,-0.67 -0.58,-0.07 -1.05,-0.04 -1.43,0.12 -0.36,0.14 -0.67,0.44 -0.9,0.83 l -24.39,41.45 c -1.69,2.87 -3.5,5.35 -5.38,7.42 -1.92,2.07 -3.92,3.64 -6.05,4.72 -2.12,1.05 -4.31,1.53 -6.55,1.44 -2.24,-0.1 -4.56,-0.84 -6.86,-2.19 -2.9,-1.71 -5.13,-4.52 -6.72,-8.45 -1.59,-3.93 -2.88,-9.07 -3.82,-15.4 l 28.04,-47.65 c 0.23,-0.4 0.34,-0.82 0.28,-1.2 -0.04,-0.4 -0.23,-0.84 -0.6,-1.33 -0.35,-0.48 -0.9,-1.02 -1.64,-1.59 -0.77,-0.59 -1.75,-1.24 -2.96,-1.95 -1.16,-0.68 -2.18,-1.21 -3.07,-1.6 -0.91,-0.4 -1.65,-0.62 -2.26,-0.7 -0.59,-0.07 -1.06,-0.03 -1.41,0.14 -0.31,0.17 -0.62,0.47 -0.85,0.86 l -24.39,41.45 c -1.69,2.86 -3.53,5.34 -5.45,7.37 -1.97,2.05 -4,3.6 -6.13,4.68 -2.12,1.05 -4.29,1.55 -6.51,1.46 -2.23,-0.09 -4.5,-0.8 -6.82,-2.17 -2.9,-1.71 -5.15,-4.52 -6.75,-8.46 -1.62,-3.95 -2.91,-9.09 -3.8,-15.39 l 28.05,-47.66 c 0.22,-0.38 0.33,-0.81 0.28,-1.18 -0.04,-0.41 -0.24,-0.84 -0.56,-1.31 -0.34,-0.48 -0.87,-1 -1.61,-1.57 -0.77,-0.59 -1.77,-1.26 -3.04,-2 -1.19,-0.7 -2.23,-1.24 -3.12,-1.62 -0.86,-0.38 -1.6,-0.6 -2.18,-0.66 -0.61,-0.09 -1.09,-0.05 -1.41,0.14 -0.34,0.15 -0.65,0.45 -0.88,0.84 l -40.12,68.18 c -0.25,0.42 -0.36,0.8 -0.38,1.18 0,0.35 0.16,0.79 0.46,1.28 0.33,0.5 0.83,0.97 1.5,1.47 0.66,0.49 1.56,1.09 2.72,1.77 1.12,0.66 2.07,1.15 2.84,1.5 0.77,0.35 1.42,0.56 1.97,0.57 0.53,0 0.99,-0.08 1.32,-0.24 0.32,-0.19 0.62,-0.46 0.87,-0.88 l 5.31,-9.02 c 1.3,6.55 3.17,11.89 5.62,16.01 2.44,4.12 5.5,7.27 9.17,9.43 2.84,1.68 5.57,2.83 8.2,3.51 2.64,0.65 5.14,0.9 7.58,0.73 2.4,-0.18 4.71,-0.74 6.89,-1.65 2.16,-0.96 4.28,-2.18 6.26,-3.73 0.82,3.82 1.73,7.18 2.77,10.09 1.02,2.93 2.2,5.5 3.46,7.67 1.26,2.17 2.65,4 4.18,5.56 1.49,1.54 3.17,2.84 4.97,3.9 4.4,2.59 8.55,3.99 12.44,4.19 3.87,0.22 7.49,-0.43 10.86,-1.9 3.36,-1.5 6.46,-3.75 9.26,-6.73 2.81,-3.01 5.35,-6.43 7.61,-10.28 l 25.36,-43.11"
         style="fill:#1a1f20;fill-opacity:1;fill-rule:evenodd;stroke:none"
         id="path84" />
      <path
         d="m 2480.79,2166.67 c -3.02,-1.73 -6.22,-2.8 -9.54,-3.18 -3.33,-0.39 -6.62,-0.11 -9.8,0.81 -3.25,0.93 -6.21,2.49 -8.94,4.68 -2.72,2.16 -5.06,4.92 -6.94,8.2 -1.89,3.31 -3.09,6.59 -3.62,9.88 -0.54,3.29 -0.42,6.48 0.33,9.53 0.7,3.06 2.05,5.86 4.02,8.47 1.95,2.64 4.54,4.84 7.72,6.66 3.18,1.82 6.44,2.93 9.82,3.3 3.39,0.34 6.61,0.03 9.74,-0.93 3.14,-0.99 6.03,-2.55 8.77,-4.7 2.72,-2.16 5.01,-4.9 6.89,-8.18 1.85,-3.25 3.06,-6.53 3.58,-9.87 0.48,-3.35 0.4,-6.52 -0.32,-9.55 -0.66,-3.05 -2,-5.88 -3.97,-8.49 -1.97,-2.61 -4.56,-4.81 -7.74,-6.63 z m -7.08,11.54 c 1.66,0.95 3.11,2.11 4.24,3.52 1.1,1.4 1.94,2.89 2.43,4.48 0.46,1.62 0.62,3.27 0.44,4.98 -0.21,1.7 -0.73,3.35 -1.66,4.97 -0.89,1.55 -2.03,2.8 -3.37,3.81 -1.37,0.99 -2.87,1.7 -4.49,2.08 -1.63,0.42 -3.31,0.47 -5.07,0.23 -1.74,-0.28 -3.43,-0.87 -5.05,-1.8 -1.79,-1.02 -3.28,-2.25 -4.46,-3.65 -1.17,-1.43 -1.99,-2.95 -2.45,-4.57 -0.47,-1.62 -0.61,-3.31 -0.41,-5.05 0.23,-1.73 0.82,-3.42 1.73,-5.01 0.86,-1.5 1.96,-2.77 3.36,-3.74 1.37,-0.99 2.89,-1.64 4.51,-1.98 1.67,-0.31 3.34,-0.37 5.11,-0.12 1.75,0.25 3.46,0.89 5.14,1.85"
         style="fill:#1a1f20;fill-opacity:1;fill-rule:evenodd;stroke:none"
         id="path86" />
      <path
         d="m 1866.18,2530.73 c 0.01,-0.44 -0.11,-0.86 -0.32,-1.17 -0.23,-0.33 -0.62,-0.6 -1.13,-0.85 -0.53,-0.24 -1.26,-0.42 -2.21,-0.55 -0.93,-0.13 -2.1,-0.2 -3.51,-0.21 -1.47,-0.02 -2.67,0.03 -3.6,0.15 -0.94,0.11 -1.69,0.28 -2.26,0.52 -0.54,0.23 -0.93,0.5 -1.18,0.83 -0.24,0.3 -0.36,0.71 -0.36,1.17 l -0.4,48.09 c -0.03,3.33 -0.35,6.38 -0.95,9.11 -0.62,2.75 -1.57,5.12 -2.88,7.11 -1.3,1.97 -2.96,3.49 -4.95,4.52 -1.99,1.04 -4.37,1.56 -7.04,1.54 -3.35,-0.03 -6.7,-1.35 -10.04,-3.95 -3.34,-2.61 -7.03,-6.42 -11.01,-11.44 l 0.46,-55.29 c 0,-0.45 -0.12,-0.87 -0.35,-1.17 -0.24,-0.33 -0.63,-0.6 -1.2,-0.85 -0.54,-0.24 -1.29,-0.43 -2.21,-0.56 -0.96,-0.13 -2.13,-0.19 -3.54,-0.21 -1.35,-0.01 -2.49,0.04 -3.45,0.16 -1,0.11 -1.75,0.28 -2.32,0.52 -0.54,0.23 -0.93,0.5 -1.14,0.83 -0.19,0.29 -0.31,0.71 -0.32,1.16 l -0.39,48.1 c -0.03,3.32 -0.38,6.38 -1.04,9.1 -0.68,2.76 -1.66,5.12 -2.96,7.12 -1.31,1.97 -2.94,3.49 -4.9,4.52 -1.99,1.04 -4.3,1.56 -7.01,1.54 -3.36,-0.03 -6.7,-1.35 -10.08,-3.96 -3.36,-2.61 -7.05,-6.42 -10.97,-11.43 l 0.46,-55.29 c 0,-0.45 -0.12,-0.87 -0.36,-1.17 -0.23,-0.33 -0.62,-0.61 -1.13,-0.85 -0.54,-0.24 -1.25,-0.43 -2.18,-0.56 -0.96,-0.13 -2.16,-0.2 -3.63,-0.21 -1.38,-0.01 -2.55,0.04 -3.51,0.15 -0.94,0.11 -1.69,0.29 -2.23,0.52 -0.57,0.24 -0.96,0.5 -1.14,0.84 -0.22,0.29 -0.34,0.71 -0.34,1.16 l -0.66,79.11 c 0,0.48 0.09,0.87 0.26,1.2 0.18,0.31 0.54,0.61 1.05,0.88 0.53,0.28 1.19,0.43 2.03,0.53 0.81,0.1 1.89,0.16 3.24,0.17 1.29,0.02 2.37,-0.03 3.21,-0.12 0.84,-0.08 1.51,-0.22 1.99,-0.49 0.45,-0.27 0.81,-0.57 1.02,-0.86 0.19,-0.33 0.31,-0.72 0.31,-1.2 l 0.09,-10.47 c 4.4,5.02 8.69,8.71 12.87,11.05 4.18,2.35 8.4,3.56 12.66,3.59 3.3,0.03 6.25,-0.34 8.86,-1.07 2.62,-0.75 4.91,-1.79 6.93,-3.15 1.99,-1.37 3.71,-3 5.14,-4.88 1.39,-1.91 2.61,-4.03 3.56,-6.36 2.62,2.9 5.08,5.35 7.44,7.35 2.35,2.03 4.65,3.67 6.83,4.92 2.18,1.24 4.3,2.14 6.4,2.72 2.06,0.59 4.16,0.88 6.26,0.89 5.1,0.05 9.4,-0.82 12.86,-2.59 3.47,-1.74 6.28,-4.12 8.46,-7.07 2.16,-2.99 3.72,-6.48 4.65,-10.46 0.93,-4.02 1.41,-8.25 1.45,-12.71 l 0.41,-50.02"
         style="fill:#1a1f20;fill-opacity:1;fill-rule:evenodd;stroke:none"
         id="path88" />
      <path
         d="m 2219.19,2403.95 c -0.22,-0.39 -0.53,-0.69 -0.86,-0.85 -0.37,-0.17 -0.85,-0.21 -1.41,-0.17 -0.58,0.06 -1.3,0.26 -2.19,0.63 -0.87,0.35 -1.92,0.88 -3.14,1.58 -1.29,0.72 -2.3,1.37 -3.05,1.93 -0.75,0.57 -1.31,1.09 -1.68,1.58 -0.36,0.48 -0.56,0.9 -0.61,1.31 -0.06,0.38 0.04,0.81 0.27,1.2 l 23.75,41.81 c 1.65,2.89 2.9,5.7 3.75,8.36 0.84,2.69 1.2,5.22 1.07,7.6 -0.14,2.36 -0.82,4.5 -2.02,6.39 -1.2,1.89 -3,3.54 -5.32,4.86 -2.92,1.66 -6.48,2.19 -10.68,1.61 -4.19,-0.59 -9.29,-2.03 -15.25,-4.38 l -27.31,-48.07 c -0.22,-0.39 -0.53,-0.7 -0.89,-0.84 -0.37,-0.17 -0.84,-0.21 -1.46,-0.14 -0.59,0.06 -1.33,0.27 -2.2,0.63 -0.89,0.37 -1.94,0.89 -3.16,1.59 -1.17,0.67 -2.14,1.28 -2.91,1.86 -0.8,0.6 -1.37,1.12 -1.74,1.61 -0.36,0.48 -0.56,0.9 -0.58,1.3 -0.01,0.35 0.09,0.77 0.32,1.16 l 23.75,41.81 c 1.65,2.9 2.87,5.72 3.67,8.41 0.79,2.72 1.13,5.26 1,7.65 -0.15,2.35 -0.8,4.48 -1.97,6.36 -1.21,1.89 -2.95,3.5 -5.3,4.83 -2.92,1.66 -6.48,2.2 -10.7,1.63 -4.22,-0.57 -9.32,-2.01 -15.23,-4.39 l -27.31,-48.07 c -0.22,-0.39 -0.53,-0.7 -0.89,-0.84 -0.37,-0.17 -0.84,-0.21 -1.41,-0.17 -0.58,0.06 -1.3,0.26 -2.16,0.61 -0.9,0.37 -1.97,0.91 -3.25,1.64 -1.2,0.68 -2.19,1.31 -2.96,1.89 -0.75,0.56 -1.31,1.09 -1.67,1.57 -0.37,0.49 -0.58,0.92 -0.57,1.29 -0.04,0.36 0.06,0.79 0.29,1.18 l 39.07,68.79 c 0.24,0.41 0.51,0.71 0.83,0.91 0.31,0.17 0.77,0.25 1.35,0.23 0.6,-0.03 1.25,-0.22 2.02,-0.56 0.75,-0.32 1.72,-0.8 2.89,-1.47 1.12,-0.64 2.03,-1.22 2.72,-1.72 0.69,-0.49 1.19,-0.95 1.47,-1.42 0.26,-0.46 0.42,-0.89 0.46,-1.26 -0.01,-0.37 -0.1,-0.77 -0.34,-1.19 l -5.17,-9.1 c 6.32,2.13 11.89,3.18 16.68,3.11 4.79,-0.06 9.05,-1.13 12.75,-3.24 2.87,-1.63 5.23,-3.42 7.13,-5.36 1.89,-1.97 3.35,-4.01 4.42,-6.2 1.04,-2.18 1.71,-4.46 2,-6.8 0.25,-2.35 0.24,-4.79 -0.1,-7.29 3.71,1.2 7.08,2.09 10.12,2.64 3.05,0.57 5.86,0.84 8.37,0.83 2.51,-0.01 4.8,-0.31 6.9,-0.85 2.09,-0.53 4.05,-1.33 5.87,-2.37 4.43,-2.52 7.72,-5.42 9.83,-8.69 2.13,-3.24 3.37,-6.7 3.78,-10.35 0.37,-3.67 -0.03,-7.48 -1.22,-11.39 -1.21,-3.94 -2.9,-7.84 -5.11,-11.72 l -24.71,-43.49"
         style="fill:#1a1f20;fill-opacity:1;fill-rule:evenodd;stroke:none"
         id="path90" />
    </g>
  </g>
</svg>
